<?xml version="1.0" encoding="utf-8"?>
<!-- Generator: Adobe Illustrator 22.0.1, SVG Export Plug-In . SVG Version: 6.00 Build 0)  -->
<svg version="1.1" id="Слой_1" xmlns="http://www.w3.org/2000/svg" xmlns:xlink="http://www.w3.org/1999/xlink" x="0px" y="0px"
	 viewBox="0 0 103 32" style="enable-background:new 0 0 103 32;" xml:space="preserve">
<style type="text/css">
	.st0{fill:#E12C38;}
	.st1{fill:#FFFFFF;}
</style>
<g>
	<path class="st0" d="M28.8,22.3v-0.4c0-2-1.6-3.6-3.6-3.6h-2.1c-2,0-3.6,1.6-3.6,3.6v6.5c0,2,1.6,3.6,3.6,3.6h1.3
		c0,0,1.3,0,2.7-1.4v1.1h1.6v-3.3v-1.2v-2.2h-1.4h-1.2H24v1.6h2.2v1.9c0,1-0.8,1.8-1.8,1.8h-0.3c-1,0-1.8-0.8-1.8-1.8v-6.5
		c0-1,0.8-1.8,1.8-1.8h0.3c1,0,1.8,0.8,1.8,1.8v0.5H28.8z"/>
	<path class="st0" d="M83.4,22.3v-0.4c0-2-1.6-3.6-3.6-3.6h-2.1c-2,0-3.6,1.6-3.6,3.6v6.5c0,2,1.6,3.6,3.6,3.6h1.3
		c0,0,1.3,0,2.7-1.4v1.1h1.6v-3.3v-1.2v-2.2H82h-1.2h-2.2v1.6h2.2v1.9c0,1-0.8,1.8-1.8,1.8h-0.3c-1,0-1.8-0.8-1.8-1.8v-6.5
		c0-1,0.8-1.8,1.8-1.8H79c1,0,1.8,0.8,1.8,1.8v0.5H83.4z"/>
	<path class="st0" d="M38.1,31.7h2.6l-4-13.3h-0.1h-2.2h-0.1l-4,13.3H33l0.8-2.8h3.4L38.1,31.7z M34.4,27.2H34l1.5-5l1.5,5h-0.3
		H34.4z"/>
	<polygon class="st0" points="52.1,18.4 50.8,18.4 47.8,24.1 44.9,18.4 43.5,18.4 42.8,18.4 42.8,31.9 44.9,31.9 44.9,23 46.6,26.4 
		46.6,26.4 47.8,28.7 47.8,28.7 47.8,28.7 49,26.4 49,26.4 50.8,23 50.8,31.9 52.9,31.9 52.9,18.4 	"/>
	<polygon class="st0" points="60.9,20.1 60.9,18.4 54.7,18.4 54.7,20.1 56.6,20.1 56.6,30 54.7,30 54.7,31.7 60.9,31.7 60.9,30 
		58.9,30 58.9,20.1 	"/>
	<polygon class="st0" points="70.1,18.4 70.1,26.8 66.1,18.4 63.7,18.4 63.7,31.7 66.1,31.7 66.1,23.4 70.1,31.7 72.5,31.7 
		72.5,18.4 	"/>
	<path class="st1" d="M22.3,0c0,0,7.1,0.2,9.7,4c0.8,1.2,0.5,2.7,0.1,3.6c-0.3,0.6-0.6,1.1-1.1,1.6c-0.4,0.5-0.9,0.9-1.4,1.3
		l-1.7,1.3c-0.3,0.2-0.1,0.7,0.2,0.7l5.1-0.2v3.1l-12.7,0v-0.4c0,0,5.8-3.9,6.8-7.1c0.8-2.6-1.1-3.9-2.7-4.4c-1.7-0.6-3-0.6-3-0.6
		L22.3,0z"/>
	<path class="st1" d="M71.6,0c0,0,7.3,0.1,9.7,4c1.8,2.9-1,5.2-1,5.2l-3.1,2.5c-0.3,0.2-0.1,0.7,0.2,0.7l5.1-0.2v3.4l-12.7-0.3V15
		c0,0,6.1-4.3,6.7-7.2c0.6-2.5-1-3.8-2.6-4.4c-1.7-0.6-3-0.6-3-0.6L71.6,0z"/>
	<path class="st1" d="M50.3,10.8c0-1.2-1-2.3-2.3-2.7c0,0,0,0,0,0l-1.3-0.4c-0.3-0.1-0.4-0.6,0-0.7l0.8-0.3l0,0
		c1.2-0.5,2.1-1.6,2.1-2.7c0-1.2-1-2-2.2-2.5c0,0,0,0,0,0c-1.2-0.7-5.6-0.9-5.6-0.9h-4.6l0,14.9l4.4,0
		C46.3,15.3,50.3,13.2,50.3,10.8L50.3,10.8C50.3,10.8,50.3,10.8,50.3,10.8z M41.5,2.4c0-0.2,0.2-0.4,0.4-0.4c0.4,0,1.2,0.2,1.8,0.4
		c1.2,0.5,1.7,1.7,0.8,3.1c-0.7,1.1-1.7,1.4-2.4,1.5c-0.2,0-0.6-0.1-0.6-0.3V2.4z M44.6,12.5c-0.7,0.6-1.9,0.9-2.7,1
		c-0.3,0-0.5-0.2-0.5-0.4V8.8c0-0.3,0.2-0.5,0.6-0.4c1.6,0.2,2,0.4,2.8,0.9C45.6,9.9,45.9,11.5,44.6,12.5z"/>
	<path class="st1" d="M68,3.7l-1.1-3.3c0-0.1-0.2-0.2-0.3-0.2c-1,0.3-4.4,1.6-6,4.8c-0.2,0.3-0.3,0.6-0.4,1c-0.1,0.3-0.6,0.3-0.7,0
		c-0.2-0.6-0.6-1.4-1.1-2.2c-1.6-2.4-4.3-3.3-5.1-3.5c-0.1,0-0.3,0-0.3,0.1l-1.4,3.3c-0.1,0.1,0,0.3,0.2,0.4c2.6,0.8,3.7,2,4.4,3.2
		c1,1.6,1.1,3,1.1,3v5h4.7l0-4.4c0,0,0-3,2.3-5c1.7-1.5,3.1-1.8,3.7-1.9C68,4,68.1,3.8,68,3.7z"/>
</g>
</svg>
