<svg width="22" height="22" viewBox="0 0 22 22" fill="none" xmlns="http://www.w3.org/2000/svg">
<g clip-path="url(#clip0_711_12)">
<path d="M11.0002 0C17.0754 0 21.9999 4.92438 21.9999 10.9997C21.9999 17.075 17.0755 22 11.0002 22C4.92487 22 0.000488281 17.0749 0.000488281 10.9997C0.000488281 4.92446 4.92495 0 11.0002 0Z" fill="#EBEBEB"/>
<path d="M15.8123 10.3129H11.6875V5.49914C11.6875 5.11898 11.3795 4.81165 11 4.81165C10.6205 4.81165 10.3125 5.11898 10.3125 5.49914V10.999C10.3125 11.3791 10.6205 11.6865 11 11.6865H15.8123C16.1925 11.6865 16.4998 11.3791 16.4998 10.999C16.4998 10.6209 16.1925 10.3129 15.8123 10.3129Z" fill="#324D5B"/>
<path d="M11.0002 0C4.92495 0 0.000488281 4.92438 0.000488281 10.9997C0.000488281 17.075 4.92487 22 11.0002 22C17.0755 22 21.9999 17.0749 21.9999 10.9997C21.9999 4.92446 17.0754 0 11.0002 0ZM11.0002 19.9376C6.07234 19.9376 2.06296 15.9282 2.06296 10.9997C2.06296 6.07185 6.07234 2.06247 11.0002 2.06247C15.928 2.06247 19.9374 6.07185 19.9374 10.9997C19.9374 15.9282 15.928 19.9376 11.0002 19.9376Z" fill="#E2574C"/>
</g>
<defs>
<clipPath id="clip0_711_12">
<rect width="22" height="22" fill="white"/>
</clipPath>
</defs>
</svg>
