<svg width="93" height="93" viewBox="0 0 93 93" fill="none" xmlns="http://www.w3.org/2000/svg">
<path d="M65.189 16.6072C68.462 16.6072 71.1153 19.2736 71.1153 22.5628V58.2968C71.1153 61.5861 68.462 64.2525 65.189 64.2525H5.92627C2.65328 64.2525 0 61.5861 0 58.2968V22.5628C0 19.2736 2.65328 16.6072 5.92627 16.6072H65.189Z" fill="url(#paint0_linear_946_1927)"/>
<path d="M20.9948 50.356H9.73437C8.7223 50.356 7.90186 51.1764 7.90186 52.1885C7.90186 53.2005 8.7223 54.021 9.73437 54.021H20.9948C22.0068 54.021 22.8273 53.2005 22.8273 52.1885C22.8273 51.1764 22.0068 50.356 20.9948 50.356Z" fill="url(#paint1_linear_946_1927)"/>
<path d="M37.8957 50.356H26.6352C25.6232 50.356 24.8027 51.1764 24.8027 52.1885C24.8027 53.2005 25.6232 54.021 26.6352 54.021H37.8957C38.9077 54.021 39.7282 53.2005 39.7282 52.1885C39.7282 51.1764 38.9077 50.356 37.8957 50.356Z" fill="url(#paint2_linear_946_1927)"/>
<path d="M11.8527 32.489C14.0347 32.489 15.8036 30.7114 15.8036 28.5185C15.8036 26.3257 14.0347 24.5481 11.8527 24.5481C9.67071 24.5481 7.90186 26.3257 7.90186 28.5185C7.90186 30.7114 9.67071 32.489 11.8527 32.489Z" fill="#F15314"/>
<path d="M17.779 32.489C19.961 32.489 21.7298 30.7114 21.7298 28.5185C21.7298 26.3257 19.961 24.5481 17.779 24.5481C15.597 24.5481 13.8281 26.3257 13.8281 28.5185C13.8281 30.7114 15.597 32.489 17.779 32.489Z" fill="#F59D00"/>
<path d="M71.2917 25.0397C71.2917 23.1489 72.9385 21.6162 74.9701 21.6162C75.6786 21.6162 76.3721 21.8067 76.9671 22.1646L89.6785 29.8124C91.3846 30.8389 91.8736 32.9582 90.7707 34.546C90.488 34.9529 90.1158 35.2994 89.6785 35.5625L76.9671 43.2102C75.261 44.2367 72.9839 43.7816 71.8809 42.1938C71.4963 41.64 71.2917 40.9946 71.2917 40.3364L71.2912 39.7947L50.7532 39.7955C48.7216 39.7955 47.0747 38.2627 47.0747 36.372V29.0029C47.0747 27.1122 48.7216 25.5794 50.7531 25.5794L71.2912 25.5788L71.2917 25.0397Z" fill="url(#paint3_linear_946_1927)"/>
<path d="M62 45.3928C70.5604 45.3928 77.5 52.3324 77.5 60.8928C77.5 69.4532 70.5604 76.3928 62 76.3928C53.4396 76.3928 46.5 69.4532 46.5 60.8928C46.5 52.3324 53.4396 45.3928 62 45.3928Z" fill="url(#paint4_linear_946_1927)"/>
<path d="M62 45.3928C70.5604 45.3928 77.5 52.3324 77.5 60.8928C77.5 69.4532 70.5604 76.3928 62 76.3928C53.4396 76.3928 46.5 69.4532 46.5 60.8928C46.5 52.3324 53.4396 45.3928 62 45.3928ZM56.3282 67.3723L56.2856 67.425L52.6752 71.0357C54.9318 73.1113 57.8829 74.4436 61.1401 74.6442L61.1394 69.4615C59.3054 69.2795 57.6406 68.5221 56.3282 67.3723ZM62.8606 69.4615L62.8599 74.6442C66.241 74.436 69.2923 73.0083 71.5792 70.7956C71.5258 70.7649 71.4754 70.7249 71.4289 70.6785L67.909 67.1567C66.5627 68.4271 64.8069 69.2683 62.8606 69.4615ZM53.4309 61.749L53.3889 61.7539L48.2486 61.7528C48.4368 64.809 49.6214 67.5958 51.4816 69.7921L55.0678 66.2072L55.1642 66.1303C54.214 64.8919 53.5927 63.388 53.4309 61.749ZM69.0397 65.8532L72.6467 69.4607L72.7201 69.5484C74.464 67.3913 75.5701 64.6971 75.7514 61.7528L70.6111 61.7539L70.5691 61.749C70.4192 63.2676 69.8748 64.6703 69.0397 65.8532ZM62 54.0039C58.1954 54.0039 55.1111 57.0882 55.1111 60.8928C55.1111 64.6974 58.1954 67.7817 62 67.7817C65.8046 67.7817 68.8889 64.6974 68.8889 60.8928C68.8889 57.0882 65.8046 54.0039 62 54.0039ZM48.2486 60.0329L53.3889 60.0317L53.4309 60.0366C53.5927 58.3977 54.214 56.8937 55.1642 55.6554L55.0678 55.5784L51.4816 51.9935C49.6214 54.1899 48.4368 56.9766 48.2486 60.0329ZM72.361 51.8109L68.6964 55.4785C69.7252 56.7493 70.3995 58.3188 70.5691 60.0366L70.6111 60.0317L75.7514 60.0329C75.5579 56.8913 74.3117 54.0345 72.361 51.8109ZM52.6752 50.7499L56.2856 54.3606C56.3029 54.3778 56.3192 54.3956 56.3347 54.4139C57.6417 53.2627 59.3081 52.5049 61.1438 52.3237C61.1392 52.3106 61.1389 52.2962 61.1389 52.2817L61.1401 47.1414C57.8829 47.342 54.9318 48.6743 52.6752 50.7499ZM62.8599 47.1414L62.8611 52.2817L62.8562 52.3237C64.6056 52.4964 66.2013 53.1927 67.4842 54.2537L71.148 50.5901C68.9151 48.606 66.0328 47.3368 62.8599 47.1414Z" fill="url(#paint5_linear_946_1927)"/>
<defs>
<linearGradient id="paint0_linear_946_1927" x1="3555.76" y1="16.6072" x2="3555.76" y2="4781.14" gradientUnits="userSpaceOnUse">
<stop stop-color="#EDEEF4"/>
<stop offset="1" stop-color="#D7D8E6"/>
</linearGradient>
<linearGradient id="paint1_linear_946_1927" x1="1500.45" y1="233.607" x2="7.90186" y2="233.607" gradientUnits="userSpaceOnUse">
<stop stop-color="#C3C4D4"/>
<stop offset="1" stop-color="#AEAFC8"/>
</linearGradient>
<linearGradient id="paint2_linear_946_1927" x1="1517.35" y1="233.607" x2="24.8027" y2="233.607" gradientUnits="userSpaceOnUse">
<stop stop-color="#C3C4D4"/>
<stop offset="1" stop-color="#AEAFC8"/>
</linearGradient>
<linearGradient id="paint3_linear_946_1927" x1="2261.36" y1="21.6162" x2="2261.36" y2="2235.9" gradientUnits="userSpaceOnUse">
<stop stop-color="#1DD47F"/>
<stop offset="1" stop-color="#0DA949"/>
</linearGradient>
<linearGradient id="paint4_linear_946_1927" x1="1596.5" y1="45.3928" x2="1596.5" y2="3145.39" gradientUnits="userSpaceOnUse">
<stop stop-color="#7AA0FA"/>
<stop offset="1" stop-color="#4466F3"/>
</linearGradient>
<linearGradient id="paint5_linear_946_1927" x1="1596.5" y1="45.3928" x2="1596.5" y2="3145.39" gradientUnits="userSpaceOnUse">
<stop stop-color="#2F6DC8"/>
<stop offset="1" stop-color="#153B97"/>
</linearGradient>
</defs>
</svg>
