<svg width="68" height="68" viewBox="0 0 68 68" fill="none" xmlns="http://www.w3.org/2000/svg">
<g clip-path="url(#clip0_946_1889)">
<path d="M18.946 37.0908C29.3583 37.0908 37.9241 41.9474 37.8902 48.3291C37.884 49.4714 37.6039 50.5648 37.0886 51.5903C37.6158 52.6328 37.8964 53.7473 37.8902 54.9126C37.8559 61.2849 29.2951 66.1387 18.946 66.1387C8.59693 66.1387 0.0360783 61.2849 0.00180941 54.9126C-0.00438563 53.7472 0.276175 52.6328 0.802371 51.5894C0.288072 50.5648 0.00795227 49.4713 0.00180941 48.329C-0.0321164 41.9474 8.53367 37.0908 18.946 37.0908Z" fill="url(#paint0_linear_946_1889)"/>
<path d="M37.8903 48.3413L37.887 48.4156L37.8918 54.3387C34.3198 58.8371 27.0867 61.7971 18.9461 61.7971C10.7254 61.7971 3.49674 58.9546 0.000732422 54.4829V48.3435L31.2684 48.4033L37.8903 48.3413ZM31.2684 48.4033L0.00156777 48.3291C0.0361362 54.7015 8.59699 59.5553 18.9461 59.5553C29.0922 59.5553 37.5195 54.9016 37.8785 48.7143L37.887 48.4156L31.2684 48.4033Z" fill="#DF960A"/>
<path d="M18.946 30.9092C29.3583 30.9092 37.9241 35.7657 37.8902 42.1474C37.884 43.2897 37.6039 44.3832 37.0886 45.4087C37.6158 46.4511 37.8964 47.5656 37.8902 48.731C37.8559 55.1033 29.2951 59.9571 18.946 59.9571C8.59693 59.9571 0.0360783 55.1033 0.00180941 48.7309C-0.00438563 47.5656 0.276175 46.4511 0.802371 45.4078C0.288072 44.3832 0.00795227 43.2897 0.00180941 42.1474C-0.0321164 35.7657 8.53367 30.9092 18.946 30.9092Z" fill="url(#paint1_linear_946_1889)"/>
<path d="M37.8903 42.1596L37.887 42.234L37.8918 48.157C34.3198 52.6554 27.0867 55.6155 18.9461 55.6155C10.7254 55.6155 3.49674 52.773 0.000732422 48.3012V42.1619L31.2684 42.2216L37.8903 42.1596ZM31.2684 42.2216L0.00156777 42.1475C0.0361362 48.5198 8.59699 53.3736 18.9461 53.3736C29.0922 53.3736 37.5195 48.72 37.8785 42.5327L37.887 42.234L31.2684 42.2216Z" fill="#DF960A"/>
<path d="M18.946 24.7273C29.3583 24.7273 37.9241 29.5839 37.8902 35.9656C37.884 37.1078 37.6039 38.2013 37.0886 39.2268C37.6158 40.2693 37.8964 41.3837 37.8902 42.5491C37.8559 48.9214 29.2951 53.7752 18.946 53.7752C8.59693 53.7752 0.0360783 48.9214 0.00180941 42.549C-0.00438563 41.3837 0.276175 40.2692 0.802371 39.2259C0.288072 38.2013 0.00795227 37.1078 0.00180941 35.9655C-0.0321164 29.5839 8.53367 24.7273 18.946 24.7273Z" fill="url(#paint2_linear_946_1889)"/>
<path d="M37.8903 35.9777L37.887 36.0521L37.8918 41.9752C34.3198 46.4736 27.0867 49.4336 18.9461 49.4336C10.7254 49.4336 3.49674 46.5911 0.000732422 42.1193V35.98L31.2684 36.0398L37.8903 35.9777ZM31.2684 36.0398L0.00156777 35.9656C0.0361362 42.338 8.59699 47.1917 18.9461 47.1917C29.0922 47.1917 37.5195 42.5381 37.8785 36.3508L37.887 36.0521L31.2684 36.0398Z" fill="#DF960A"/>
<path d="M18.946 18.5454C29.3583 18.5454 37.9241 23.402 37.8902 29.7837C37.884 30.9259 37.6039 32.0194 37.0886 33.0449C37.6158 34.0874 37.8964 35.2019 37.8902 36.3672C37.8559 42.7395 29.2951 47.5933 18.946 47.5933C8.59693 47.5933 0.0360783 42.7395 0.00180941 36.3671C-0.00438563 35.2018 0.276175 34.0873 0.802371 33.044C0.288072 32.0194 0.00795227 30.9259 0.00180941 29.7836C-0.0321164 23.402 8.53367 18.5454 18.946 18.5454Z" fill="url(#paint3_linear_946_1889)"/>
<path d="M37.8903 29.7958L37.887 29.8702L37.8918 35.7933C34.3198 40.2917 27.0867 43.2517 18.9461 43.2517C10.7254 43.2517 3.49674 40.4092 0.000732422 35.9374V29.7981L31.2684 29.8579L37.8903 29.7958ZM31.2684 29.8579L0.00156777 29.7837C0.0361362 36.1561 8.59699 41.0098 18.9461 41.0098C29.0922 41.0098 37.5195 36.3562 37.8785 30.1689L37.887 29.8702L31.2684 29.8579Z" fill="#DF960A"/>
<path d="M18.946 6.18188C29.3583 6.18188 37.9241 11.0385 37.8902 17.4201C37.884 18.5624 37.6039 19.6559 37.0886 20.6814C37.6158 21.7238 37.8964 22.8383 37.8902 24.0037C37.8559 30.376 29.2951 35.2298 18.946 35.2298C8.59693 35.2298 0.0360783 30.376 0.00180941 24.0036C-0.00438563 22.8383 0.276175 21.7238 0.802371 20.6805C0.288072 19.6559 0.00795227 18.5624 0.00180941 17.4201C-0.0321164 11.0385 8.53367 6.18188 18.946 6.18188Z" fill="url(#paint4_linear_946_1889)"/>
<path d="M37.8903 17.4323L37.887 17.5067L37.8918 23.4297C34.3198 27.9282 27.0867 30.8882 18.9461 30.8882C10.7254 30.8882 3.49674 28.0457 0.000732422 23.5739V17.4346L31.2684 17.4943L37.8903 17.4323ZM31.2684 17.4943L0.00156777 17.4202C0.0361362 23.7925 8.59699 28.6463 18.9461 28.6463C29.0922 28.6463 37.5195 23.9927 37.8785 17.8054L37.887 17.5067L31.2684 17.4943Z" fill="#DF960A"/>
<path d="M18.946 12.3635C29.3583 12.3635 37.9241 17.2201 37.8902 23.6018C37.884 24.7441 37.6039 25.8375 37.0886 26.863C37.6158 27.9055 37.8964 29.02 37.8902 30.1853C37.8559 36.5576 29.2951 41.4114 18.946 41.4114C8.59693 41.4114 0.0360783 36.5576 0.00180941 30.1853C-0.00438563 29.0199 0.276175 27.9055 0.802371 26.8621C0.288072 25.8375 0.00795227 24.744 0.00180941 23.6018C-0.0321164 17.2201 8.53367 12.3635 18.946 12.3635Z" fill="url(#paint5_linear_946_1889)"/>
<path d="M37.8903 23.614L37.887 23.6884L37.8918 29.6114C34.3198 34.1098 27.0867 37.0698 18.9461 37.0698C10.7254 37.0698 3.49674 34.2273 0.000732422 29.7556V23.6162L31.2684 23.676L37.8903 23.614ZM31.2684 23.676L0.00156777 23.6018C0.0361362 29.9742 8.59699 34.828 18.9461 34.828C29.0922 34.828 37.5195 30.1743 37.8785 23.987L37.887 23.6884L31.2684 23.676Z" fill="#DF960A"/>
<path d="M18.946 6.18188C29.3583 6.18188 37.9241 11.0385 37.8902 17.4201C37.884 18.5624 37.6039 19.6559 37.0886 20.6814C37.6158 21.7238 37.8964 22.8383 37.8902 24.0037C37.8559 30.376 29.2951 35.2298 18.946 35.2298C8.59693 35.2298 0.0360783 30.376 0.00180941 24.0036C-0.00438563 22.8383 0.276175 21.7238 0.802371 20.6805C0.288072 19.6559 0.00795227 18.5624 0.00180941 17.4201C-0.0321164 11.0385 8.53367 6.18188 18.946 6.18188Z" fill="url(#paint6_linear_946_1889)"/>
<path d="M37.8903 17.4323L37.887 17.5067L37.8918 23.4297C34.3198 27.9282 27.0867 30.8882 18.9461 30.8882C10.7254 30.8882 3.49674 28.0457 0.000732422 23.5739V17.4346L31.2684 17.4943L37.8903 17.4323ZM31.2684 17.4943L0.00156777 17.4202C0.0361362 23.7925 8.59699 28.6463 18.9461 28.6463C29.0922 28.6463 37.5195 23.9927 37.8785 17.8054L37.887 17.5067L31.2684 17.4943Z" fill="#DF960A"/>
<path d="M18.946 0C29.3583 0 37.9241 4.85657 37.8902 11.2383C37.884 12.3805 37.6039 13.474 37.0886 14.4995C37.6158 15.542 37.8964 16.6564 37.8902 17.8218C37.8559 24.1941 29.2951 29.0479 18.946 29.0479C8.59693 29.0479 0.0360783 24.1941 0.00180941 17.8217C-0.00438563 16.6564 0.276175 15.5419 0.802371 14.4986C0.288072 13.474 0.00795227 12.3805 0.00180941 11.2382C-0.0321164 4.85657 8.53367 0 18.946 0Z" fill="url(#paint7_linear_946_1889)"/>
<path d="M37.8903 11.2504L37.887 11.3248L37.8918 17.2479C34.3198 21.7463 27.0867 24.7063 18.9461 24.7063C10.7254 24.7063 3.49674 21.8638 0.000732422 17.392V11.2527L31.2684 11.3125L37.8903 11.2504ZM31.2684 11.3125L0.00156777 11.2383C0.0361362 17.6107 8.59699 22.4644 18.9461 22.4644C29.0922 22.4644 37.5195 17.8108 37.8785 11.6235L37.887 11.3248L31.2684 11.3125Z" fill="#DF960A"/>
<path d="M46.3634 24.7273C58.3128 24.7273 67.9998 34.4142 67.9998 46.3637C67.9998 58.3131 58.3128 68 46.3634 68C34.414 68 24.7271 58.3131 24.7271 46.3637C24.7271 34.4142 34.414 24.7273 46.3634 24.7273Z" fill="url(#paint8_linear_946_1889)"/>
<path d="M46.3634 24.7273C58.3128 24.7273 67.9998 34.4142 67.9998 46.3637C67.9998 58.3131 58.3128 68 46.3634 68C34.414 68 24.7271 58.3131 24.7271 46.3637C24.7271 34.6101 34.099 25.0455 45.7776 24.7351L46.3634 24.7273ZM38.4469 55.409L38.3868 55.4819L33.347 60.522C36.4963 63.4188 40.6146 65.2784 45.1602 65.559L45.1603 58.3244C42.6013 58.0701 40.2784 57.0132 38.4469 55.409ZM47.5665 58.3244L47.5666 65.559C52.2845 65.2677 56.542 63.2756 59.7336 60.1883C59.6584 60.1424 59.5891 60.0872 59.5252 60.0234L54.6098 55.1092C52.7312 56.8812 50.2818 58.0546 47.5665 58.3244ZM34.4021 47.5606L34.3432 47.5657L27.1681 47.5669C27.4314 51.8327 29.0854 55.7223 31.6822 58.7878L36.6868 53.782L36.8194 53.672C35.4944 51.9443 34.628 49.8466 34.4021 47.5606ZM56.1892 53.2892L61.2251 58.3235L61.3274 58.4461C63.7613 55.4356 65.3051 51.6758 65.5587 47.5669L58.3836 47.5657L58.3248 47.5606C58.1152 49.6803 57.355 51.6382 56.1892 53.2892ZM46.3634 36.7475C41.0526 36.7475 36.7473 41.0528 36.7473 46.3637C36.7473 51.6745 41.0526 55.9798 46.3634 55.9798C51.6743 55.9798 55.9796 51.6745 55.9796 46.3637C55.9796 41.0528 51.6743 36.7475 46.3634 36.7475ZM27.1681 45.1605L34.3432 45.1616L34.4021 45.1667C34.628 42.8808 35.4944 40.783 36.8194 39.0554L36.6868 38.9453L31.6822 33.9395C29.0854 37.005 27.4314 40.8946 27.1681 45.1605ZM60.8273 33.6874L55.7087 38.8032C57.1456 40.5771 58.0877 42.7683 58.3248 45.1667L58.3836 45.1616L65.5587 45.1605C65.2881 40.7767 63.549 36.7904 60.8273 33.6874ZM33.347 32.2053L38.3868 37.2454C38.4099 37.2686 38.432 37.2925 38.4529 37.317C40.2799 35.7128 42.605 34.6555 45.1665 34.4023C45.1619 34.3853 45.1614 34.3644 45.1614 34.3435L45.1602 27.1684C40.6146 27.449 36.4963 29.3085 33.347 32.2053ZM47.5666 27.1684L47.5654 34.3435L47.5603 34.4023C50.0015 34.6436 52.228 35.6153 54.0183 37.0957L59.1311 31.9805C56.0151 29.2125 51.9935 27.4416 47.5666 27.1684Z" fill="url(#paint9_linear_946_1889)"/>
<path d="M47.1788 45.2749C45.9616 44.8168 45.5509 44.5401 45.5509 44.1781C45.5509 43.7551 45.9369 43.5224 46.6385 43.5224C47.0801 43.5224 47.4938 43.5834 47.9028 43.7084C48.1406 43.7817 48.4061 43.7536 48.6237 43.632C48.8422 43.5093 49.0035 43.3001 49.0661 43.0569L49.0792 43.0052C49.2135 42.4831 48.8985 41.9462 48.3768 41.808C48.0186 41.7138 47.6196 41.6521 47.1889 41.6253V41.2054C47.1889 40.7358 46.8065 40.3535 46.3367 40.3535C45.8667 40.3535 45.4846 40.7358 45.4846 41.2054V41.746C43.9841 42.0824 43.0579 43.0994 43.0579 44.4224C43.0579 46.0754 44.4931 46.7704 45.7432 47.1911C46.7667 47.5369 47.1654 47.848 47.1654 48.3003C47.1654 48.7654 46.7053 49.0428 45.9346 49.0428C45.4151 49.0428 44.8848 48.9471 44.3577 48.7588C44.123 48.6747 43.8552 48.694 43.6352 48.8105C43.4125 48.9286 43.2492 49.1362 43.1867 49.3794L43.1582 49.4921C43.0258 50.0077 43.3199 50.5387 43.8274 50.7016C44.3145 50.8575 44.8721 50.961 45.4124 50.9968V51.5179C45.4124 51.9875 45.7949 52.3696 46.2642 52.3696C46.7343 52.3696 47.1163 51.9875 47.1163 51.5175V50.8792C48.674 50.5635 49.6732 49.4832 49.6732 48.0989C49.6732 46.7365 48.9264 45.8912 47.1788 45.2749Z" fill="url(#paint10_linear_946_1889)"/>
</g>
<defs>
<linearGradient id="paint0_linear_946_1889" x1="1894.43" y1="37.0908" x2="1894.43" y2="2941.88" gradientUnits="userSpaceOnUse">
<stop stop-color="#FFC923"/>
<stop offset="1" stop-color="#FFAD41"/>
</linearGradient>
<linearGradient id="paint1_linear_946_1889" x1="1894.43" y1="30.9092" x2="1894.43" y2="2935.7" gradientUnits="userSpaceOnUse">
<stop stop-color="#FFC923"/>
<stop offset="1" stop-color="#FFAD41"/>
</linearGradient>
<linearGradient id="paint2_linear_946_1889" x1="1894.43" y1="24.7273" x2="1894.43" y2="2929.52" gradientUnits="userSpaceOnUse">
<stop stop-color="#FFC923"/>
<stop offset="1" stop-color="#FFAD41"/>
</linearGradient>
<linearGradient id="paint3_linear_946_1889" x1="1894.43" y1="18.5454" x2="1894.43" y2="2923.34" gradientUnits="userSpaceOnUse">
<stop stop-color="#FFC923"/>
<stop offset="1" stop-color="#FFAD41"/>
</linearGradient>
<linearGradient id="paint4_linear_946_1889" x1="1894.43" y1="6.18188" x2="1894.43" y2="2910.97" gradientUnits="userSpaceOnUse">
<stop stop-color="#FFC923"/>
<stop offset="1" stop-color="#FFAD41"/>
</linearGradient>
<linearGradient id="paint5_linear_946_1889" x1="1894.43" y1="12.3635" x2="1894.43" y2="2917.15" gradientUnits="userSpaceOnUse">
<stop stop-color="#FFC923"/>
<stop offset="1" stop-color="#FFAD41"/>
</linearGradient>
<linearGradient id="paint6_linear_946_1889" x1="1894.43" y1="6.18188" x2="1894.43" y2="2910.97" gradientUnits="userSpaceOnUse">
<stop stop-color="#FFC923"/>
<stop offset="1" stop-color="#FFAD41"/>
</linearGradient>
<linearGradient id="paint7_linear_946_1889" x1="1894.43" y1="0" x2="1894.43" y2="2904.79" gradientUnits="userSpaceOnUse">
<stop stop-color="#FFC923"/>
<stop offset="1" stop-color="#FFAD41"/>
</linearGradient>
<linearGradient id="paint8_linear_946_1889" x1="2188.36" y1="24.7273" x2="2188.36" y2="4352" gradientUnits="userSpaceOnUse">
<stop stop-color="#7AA0FA"/>
<stop offset="1" stop-color="#4466F3"/>
</linearGradient>
<linearGradient id="paint9_linear_946_1889" x1="2188.36" y1="24.7273" x2="2188.36" y2="4352" gradientUnits="userSpaceOnUse">
<stop stop-color="#2F6DC8"/>
<stop offset="1" stop-color="#153B97"/>
</linearGradient>
<linearGradient id="paint10_linear_946_1889" x1="373.824" y1="40.3535" x2="373.824" y2="1241.97" gradientUnits="userSpaceOnUse">
<stop stop-color="#F1F1F5"/>
<stop offset="1" stop-color="#DEDEE7"/>
</linearGradient>
<clipPath id="clip0_946_1889">
<rect width="68" height="68" fill="white"/>
</clipPath>
</defs>
</svg>
