<svg width="60" height="59" viewBox="0 0 60 59" fill="none" xmlns="http://www.w3.org/2000/svg">
<g clip-path="url(#clip0_946_1941)">
<path d="M29.9999 58.9999C46.5684 58.9999 59.9999 45.7923 59.9999 29.4999C59.9999 13.2076 46.5684 0 29.9999 0C13.4314 0 0 13.2076 0 29.4999C0 45.7923 13.4314 58.9999 29.9999 58.9999Z" fill="#0090FF"/>
<path opacity="0.1" d="M59.1068 36.6655L36.9603 14.8881L36.7479 14.6792C35.004 13.0074 32.6225 11.981 29.9973 11.981C24.6531 11.981 20.2964 16.2649 20.2964 21.5201V26.4926H18.865C17.7275 26.4926 16.8086 27.3961 16.8086 28.5147V44.9992C16.8086 45.5401 17.0273 46.038 17.3899 46.4006L17.4586 46.4682L30.1966 58.9977C44.1658 58.9089 55.8659 49.4355 59.1068 36.6655Z" fill="black"/>
<path d="M41.1368 27.7227H39.7014H39.7011H36.24H36.2397H30.0001H23.7609H23.7606H20.2995H20.2992H18.8636C17.7288 27.7227 16.8086 28.6274 16.8086 29.7434V44.9964C16.8086 46.1124 17.7286 47.0171 18.8636 47.0171H30.0001H41.1368C42.2715 47.0171 43.1916 46.1124 43.1916 44.9964V29.7434C43.1916 28.6274 42.2715 27.7227 41.1368 27.7227Z" fill="#DC8744"/>
<path d="M36.2396 21.5222V26.4934H36.2399H39.701V21.5222C39.701 16.2623 35.3491 11.9829 30 11.9829V15.3866C33.4408 15.3866 36.2396 18.1388 36.2396 21.5222Z" fill="#3A556A"/>
<path d="M23.7602 26.4935V21.5224C23.7602 18.1389 26.5592 15.3867 29.9997 15.3867V11.9829C24.6507 11.9829 20.2988 16.2623 20.2988 21.5222V26.4934H20.2991L23.7602 26.4935Z" fill="#64798A"/>
<path d="M41.1367 26.4934H39.7013H39.701H36.2399H36.2396H30V45.7878H41.1367C42.2714 45.7878 43.1915 44.8831 43.1915 43.7671V28.514C43.1915 27.398 42.2714 26.4934 41.1367 26.4934Z" fill="#F6C358"/>
<path d="M23.7609 26.4934H23.7606H20.2995H20.2992H18.8636C17.7288 26.4934 16.8086 27.3981 16.8086 28.5141V43.7672C16.8086 44.8832 17.7286 45.7879 18.8636 45.7879H30.0001V26.4934H23.7609Z" fill="#FCD462"/>
<path d="M32.3487 33.1958C32.3487 31.9201 31.2972 30.886 29.9998 30.886C28.7026 30.886 27.6509 31.9201 27.6509 33.1958C27.6509 34.0158 28.0883 34.7316 28.7434 35.1414L28.0428 38.4235H31.9565L31.2561 35.1414C31.9113 34.7316 32.3487 34.0159 32.3487 33.1958Z" fill="#DC8744"/>
</g>
<defs>
<clipPath id="clip0_946_1941">
<rect width="60" height="59" fill="white"/>
</clipPath>
</defs>
</svg>
