<svg width="62" height="61" viewBox="0 0 62 61" fill="none" xmlns="http://www.w3.org/2000/svg">
<path d="M32.915 2.22806C33.7639 2.63404 34.4512 3.29849 34.8712 4.11913L42.123 18.2896L58.3053 20.5779C60.6657 20.9117 62.2991 23.0321 61.9539 25.3139C61.8168 26.2198 61.3756 27.057 60.698 27.6967L48.9977 38.7429L51.7468 54.3277C52.1479 56.6009 50.5667 58.758 48.2151 59.1457C47.2815 59.2996 46.3214 59.1526 45.4827 58.7273L30.9997 51.3837L16.5166 58.7273C14.404 59.7985 11.7932 59.0113 10.6851 56.9691C10.2452 56.1583 10.0932 55.2302 10.2524 54.3277L13.0017 38.7429L1.3015 27.6967C-0.405145 26.0855 -0.437591 23.4419 1.22915 21.7921C1.89089 21.1371 2.75708 20.7105 3.69421 20.5779L19.8763 18.2896L27.1281 4.11913C28.1859 2.05216 30.7768 1.2055 32.915 2.22806Z" fill="url(#paint0_linear_946_1922)"/>
<defs>
<linearGradient id="paint0_linear_946_1922" x1="3100" y1="1.79419" x2="3100" y2="5742.97" gradientUnits="userSpaceOnUse">
<stop stop-color="#FFC923"/>
<stop offset="1" stop-color="#FFAD41"/>
</linearGradient>
</defs>
</svg>
