<svg width="13" height="13" viewBox="0 0 13 13" fill="none" xmlns="http://www.w3.org/2000/svg">
<g clip-path="url(#clip0_27_2717)">
<path d="M0.173079 3.96329L6.08233 9.87238C6.1931 9.9832 6.34343 10.0454 6.50014 10.0454C6.65689 10.0454 6.80717 9.98316 6.91799 9.87234L12.8269 3.96325C13.0577 3.73248 13.0577 3.35836 12.8269 3.12759C12.5962 2.89686 12.222 2.89682 11.9913 3.12759L6.50014 8.61883L1.00874 3.12759C0.893356 3.0122 0.742124 2.95453 0.59089 2.95453C0.439656 2.95453 0.288424 3.0122 0.173038 3.12763C-0.0576916 3.3584 -0.0576916 3.73252 0.173079 3.96329Z" fill="white"/>
</g>
<defs>
<clipPath id="clip0_27_2717">
<rect width="13" height="13" fill="white" transform="matrix(-1 0 0 -1 13 13)"/>
</clipPath>
</defs>
</svg>
