<?xml version="1.0" encoding="utf-8"?>
<!-- Generator: Adobe Illustrator 22.0.1, SVG Export Plug-In . SVG Version: 6.00 Build 0)  -->
<svg version="1.1" id="Слой_1" xmlns="http://www.w3.org/2000/svg" xmlns:xlink="http://www.w3.org/1999/xlink" x="0px" y="0px"
	 viewBox="0 0 103 32" style="enable-background:new 0 0 103 32;" xml:space="preserve">
<style type="text/css">
	.st0{fill:#FFFFFF;}
	.st1{fill:#A3A3A3;}
	.st2{fill:url(#SVGID_1_);}
	.st3{fill:url(#SVGID_2_);}
	.st4{fill:url(#SVGID_3_);}
</style>
<path class="st0" d="M76.7,4.7L76.7,4.7l3.5-0.1v7.5c0,0.2,0,0.3,0.1,0.4c0.2,0.1,0.3,0.2,0.5,0.2h0.6v0.7h-4.3v-0.7h0.6
	c0.2,0,0.4-0.1,0.6-0.2c0.1-0.2,0.2-0.4,0.2-0.6V6.6c0-0.3-0.1-0.6-0.3-0.8c-0.3-0.2-0.6-0.3-0.9-0.3h-0.7v0h-3.4v5.6
	c0,0.4,0.1,0.8,0.3,1.1c0.2,0.3,0.5,0.4,0.9,0.4c0.4,0,0.8-0.2,1.1-0.6c0.4-0.6,0.5-1.3,0.5-2h0.6c0,1.2-0.3,2-0.8,2.6
	c-0.5,0.6-1.2,0.9-1.9,0.8c-0.6,0-1.2-0.2-1.7-0.6c-0.4-0.4-0.6-1-0.6-1.6V5.5h-1.5V4.9c0.6-0.1,1.2-0.4,1.6-0.9
	c0.6-0.8,0.9-1.9,0.9-2.9h0.6v3.6H76.7L76.7,4.7z"/>
<path class="st0" d="M27.8,0.3h10.6l0.3,3.6H38c-0.2-1.5-0.3-1.8-0.8-2.4C36.6,1,35.6,1,34.7,1H32c-0.2,0-0.4,0.1-0.5,0.2
	c-0.1,0.2-0.2,0.3-0.2,0.5v4.5h1.2c0.6,0,1.2-0.2,1.5-0.7c0.4-0.6,0.7-1.3,0.6-2.1h0.6v6.4h-0.6c0-1.1-0.2-1.8-0.6-2.3
	C33.6,7.2,33,7,32.4,7h-1.1v5.1c0,0.2,0.1,0.3,0.2,0.5c0.2,0.1,0.4,0.2,0.7,0.2h2.1c2.3,0,3.7-0.8,4-3.7H39l-0.2,4.4h-11v-0.7h0.6
	c0.3,0,0.6,0,0.8-0.2c0.2-0.1,0.2-0.3,0.2-0.6V1.8c0-0.2-0.1-0.4-0.2-0.5C29,1.1,28.8,1,28.6,1h-0.8L27.8,0.3z"/>
<path class="st0" d="M38.2,4.7h4.8v0.6c-0.4,0-0.7,0-1.1,0.2c-0.1,0.1-0.2,0.2-0.2,0.4c0,0.1,0,0.3,0.1,0.4l2.3,5.2l2.1-5
	c0-0.1,0-0.2,0-0.3c0-0.5-0.4-0.7-1.3-0.8V4.7h3.6v0.6c-0.3,0-0.6,0.1-0.9,0.3c-0.2,0.2-0.4,0.4-0.5,0.7l-3.2,7.4h-0.5l-3.4-7.6
	c-0.1-0.2-0.2-0.4-0.5-0.6c-0.4-0.1-0.9-0.2-1.3-0.2L38.2,4.7L38.2,4.7z"/>
<path class="st0" d="M54.8,5.7c-0.8-0.8-1.8-1.3-3-1.3v0c-1.1,0-2.2,0.5-2.9,1.3c-1.6,2-1.6,4.8,0,6.7c0.7,0.8,1.8,1.3,2.9,1.3
	c0.8,0,1.5-0.2,2.1-0.6c0.6-0.4,1.2-0.9,1.5-1.6c0.4-0.8,0.6-1.6,0.5-2.5C56.1,7.8,55.6,6.6,54.8,5.7z M53.6,12.1
	c-0.4,0.6-1.1,1-1.8,1c-0.7,0-1.4-0.4-1.7-1c-0.4-0.7-0.7-1.7-0.7-3.1c0-1.4,0.2-2.4,0.7-3c0.4-0.6,1-1,1.7-1v0
	c0.7,0,1.4,0.3,1.8,0.9c0.4,0.6,0.7,1.6,0.7,2.9C54.3,10.4,54,11.4,53.6,12.1z"/>
<path class="st0" d="M58.9,0.2v12c0,0.1,0.1,0.3,0.2,0.4c0.2,0.1,0.4,0.2,0.6,0.2h0.6v0.7H56v-0.7h0.5c0.2,0,0.5-0.1,0.6-0.2
	c0.1-0.2,0.2-0.4,0.2-0.6V2c0-0.3-0.1-0.5-0.3-0.7C56.8,1.1,56.5,1,56.2,1h-0.8V0.3L58.9,0.2z"/>
<path class="st0" d="M63.3,4.5v5.8c0,0.6,0.2,1.2,0.5,1.6c0.4,0.4,0.9,0.6,1.4,0.6c0.7,0,1.3-0.3,1.8-0.8c0.5-0.6,0.8-1.3,0.7-2.1
	V6.3c0-0.3-0.1-0.5-0.3-0.7c-0.4-0.2-0.8-0.3-1.2-0.3V4.7l3.1-0.2v7.2c0,0.3,0.1,0.6,0.3,0.8c0.2,0.2,0.5,0.3,0.8,0.3h0.6v0.6
	L68,13.4l-0.2-1.7c-0.4,0.5-1,1-1.6,1.4c-0.5,0.3-1,0.5-1.6,0.5c-0.7,0-1.5-0.3-2-0.8c-0.5-0.5-0.8-1.4-0.8-2.7V6.3
	c0-0.3-0.1-0.6-0.4-0.8c-0.4-0.2-0.8-0.2-1.2-0.2V4.7C60.3,4.7,63.3,4.5,63.3,4.5z"/>
<path class="st0" d="M79.2,0.5c0.3,0,0.5,0.1,0.7,0.3c0.2,0.2,0.3,0.5,0.3,0.8c0,0.3-0.1,0.5-0.3,0.7c-0.4,0.4-1.1,0.4-1.5,0
	c-0.2-0.3-0.3-0.6-0.3-1C78.3,0.9,78.7,0.6,79.2,0.5L79.2,0.5L79.2,0.5z"/>
<path class="st0" d="M88.9,5.7c-0.8-0.8-1.8-1.3-3-1.3c-1.1,0-2.2,0.5-2.9,1.3c-1.6,2-1.6,4.8,0,6.7c0.7,0.8,1.8,1.3,2.9,1.3
	c0.8,0,1.5-0.2,2.1-0.6c0.6-0.4,1.2-0.9,1.5-1.6c0.4-0.8,0.6-1.6,0.5-2.5C90.2,7.8,89.7,6.6,88.9,5.7z M87.7,12.1
	c-0.4,0.6-1.1,1-1.8,1c-0.7,0-1.4-0.4-1.7-1c-0.4-0.7-0.7-1.7-0.7-3.1c0-1.4,0.2-2.4,0.7-3c0.4-0.6,1-1,1.7-0.9v0v0
	c0.7,0,1.4,0.3,1.8,0.9c0.4,0.6,0.7,1.6,0.7,2.9C88.4,10.4,88.2,11.4,87.7,12.1z"/>
<path class="st0" d="M89.9,4.7l2.9-0.2C93,5.1,93,5.8,93.1,6.4c0.3-0.6,0.8-1.1,1.4-1.4c0.5-0.3,1.2-0.5,1.8-0.5
	c0.5,0,1,0.1,1.5,0.3c0.4,0.3,0.7,0.6,0.9,1.1C98.9,6.5,99,7,99,7.6v4.3c0,0.2,0.1,0.5,0.2,0.7c0.2,0.2,0.5,0.2,0.7,0.2h0.3v0.7
	h-3.9v-0.7h0.1c0.3,0,0.6,0,0.9-0.2c0.2-0.1,0.3-0.4,0.2-0.6V8.2c0-0.6-0.1-1.3-0.4-1.8c-0.3-0.6-0.9-0.9-1.6-0.8
	c-0.7,0-1.3,0.3-1.8,0.8C93.3,7,93,7.8,93.1,8.6v3.2c0,0.2,0.1,0.5,0.2,0.7c0.2,0.2,0.5,0.2,0.7,0.2h0.2v0.7h-3.9v-0.7h0.2
	c0.2,0,0.5,0,0.7-0.2c0.2-0.1,0.2-0.3,0.2-0.5V6.4c0-0.3-0.1-0.6-0.3-0.9c-0.2-0.2-0.6-0.3-0.9-0.3h-0.4L89.9,4.7L89.9,4.7z"/>
<path class="st0" d="M42.7,16.3l0.8-1.4h0.6l0.3,5.5h-0.6c-0.5-1.6-1-2.7-1.7-3.4c-0.7-0.8-1.7-1.3-2.8-1.4c-0.8,0-1.6,0.2-2.2,0.7
	c-0.7,0.5-1.2,1.2-1.5,2c-0.4,1.1-0.6,2.3-0.5,3.5c-0.1,1.2,0.1,2.3,0.5,3.4c0.3,0.8,0.7,1.5,1.4,2c0.6,0.4,1.3,0.7,2.1,0.6
	c0.9,0.1,1.8-0.3,2.5-0.9c0.6-0.6,0.9-1.5,0.9-2.4v-1.3c0-0.2-0.1-0.4-0.2-0.5c-0.2-0.1-0.5-0.2-0.8-0.2h-1.2V22H46v0.7h-0.4
	c-0.3,0-0.5,0-0.7,0.2c-0.2,0.1-0.2,0.3-0.2,0.5v5.3H44c-0.2-0.8-0.4-1.6-0.7-2.4c-0.4,0.7-1,1.3-1.7,1.7c-0.7,0.4-1.4,0.6-2.2,0.6
	c-1.1,0-2.3-0.3-3.2-0.9c-3.1-2-4.1-6-2.3-9.2c0.6-1.1,1.4-2,2.4-2.6c0.9-0.6,2-0.9,3.1-1c0.6,0,1.1,0.1,1.7,0.3
	C41.6,15.4,42.2,15.8,42.7,16.3L42.7,16.3z"/>
<path class="st0" d="M85,27.6c-0.3,0-0.5,0-0.7-0.2c-0.2-0.2-0.2-0.4-0.2-0.7v-4.3c0-0.6-0.1-1.1-0.4-1.7c-0.2-0.4-0.5-0.8-0.9-1.1
	c-0.4-0.2-0.9-0.4-1.5-0.3c-0.6,0-1.3,0.2-1.8,0.5c-0.6,0.4-1,0.8-1.4,1.4c0-0.6-0.1-1.3-0.3-1.9l-2.9,0.2l0,0.6h0.5
	c0.3,0,0.6,0.1,0.9,0.3c0.2,0.2,0.3,0.5,0.3,0.8v5.7c0,0.2-0.1,0.4-0.2,0.5c-0.2,0.1-0.4,0.2-0.7,0.2H75v0h-0.8
	c-0.2,0-0.4-0.1-0.5-0.2c-0.1-0.1-0.2-0.3-0.1-0.4v-7.5l-3.1,0.1l0,0.7h0.4c0.3,0,0.6,0.1,0.9,0.3c0.2,0.2,0.3,0.5,0.3,0.8v5.5
	c0,0.2-0.1,0.4-0.2,0.6c-0.2,0.1-0.4,0.2-0.6,0.2h-1.4c-0.3,0-0.6-0.1-0.8-0.2c-0.1-0.1-0.2-0.3-0.2-0.5v-4.3c0-0.9-0.2-1.7-0.8-2.4
	c-0.5-0.5-1.1-0.8-1.8-0.7c-0.6,0-1.2,0.2-1.7,0.5c-0.6,0.4-1,0.9-1.4,1.5c-0.1-0.6-0.5-1.1-0.9-1.5c-0.4-0.3-1-0.5-1.5-0.5
	c-0.6,0-1.1,0.1-1.6,0.4c-0.6,0.4-1.1,0.9-1.4,1.4c0-0.6-0.1-1.2-0.3-1.9L55,19.5v0.6c0.3,0,0.7,0.1,1,0.3c0.2,0.2,0.3,0.4,0.2,0.7
	v5.7c0,0.2-0.1,0.4-0.2,0.5c-0.2,0.1-0.4,0.2-0.6,0.2h-0.5c-0.2,0-0.4,0-0.6-0.1c-0.2,0-0.4-0.2-0.5-0.3c-0.2-0.2-0.2-0.5-0.2-0.8
	v-4.8c0-0.6-0.3-1.3-0.8-1.7c-0.7-0.5-1.5-0.7-2.4-0.7c-1,0-1.9,0.2-2.7,0.8c-0.7,0.5-1,1.1-1,1.7c0,0.3,0.1,0.6,0.3,0.8
	c0.2,0.2,0.5,0.3,0.8,0.3c0.3,0,0.5-0.1,0.7-0.3c0.2-0.2,0.3-0.4,0.3-0.7c0-0.2-0.1-0.5-0.3-0.7c-0.1-0.1-0.2-0.3-0.2-0.4
	c0-0.2,0.1-0.3,0.4-0.5c0.4-0.2,0.9-0.3,1.4-0.3c0.5,0,1,0.2,1.4,0.5c0.4,0.3,0.6,0.7,0.6,1.2V23c-1.5,0.1-2.9,0.5-4.3,1.2
	c-1.1,0.6-1.6,1.4-1.6,2.3c0,0.6,0.2,1.1,0.7,1.5c0.6,0.4,1.3,0.6,2,0.6c0.6,0,1.1-0.1,1.6-0.3c0.6-0.3,1.1-0.7,1.6-1.3
	c0.2,0.6,0.3,0.8,0.6,1.1c0.3,0.2,1.1,0.2,1.6,0.2c0.2,0,0.3,0,0.5,0h4.4v-0.7h-0.5c-0.3,0-0.5,0-0.8-0.2c-0.1-0.1-0.2-0.4-0.2-0.6
	v-3.5c0-0.8,0.3-1.6,0.8-2.2c0.4-0.5,0.9-0.7,1.5-0.7c0.5,0,0.9,0.2,1.2,0.6c0.3,0.6,0.5,1.2,0.5,1.9v4c0,0.2-0.1,0.4-0.2,0.5
	c-0.2,0.1-0.5,0.2-0.7,0.2h-0.5v0.7h4.5v-0.7h-0.6c-0.2,0-0.5,0-0.6-0.2c-0.1-0.1-0.2-0.4-0.2-0.6V23c0-0.5,0.2-1,0.4-1.4
	c0.2-0.4,0.4-0.7,0.7-0.9c0.3-0.2,0.7-0.3,1.1-0.3c0.5,0,0.9,0.2,1.2,0.5c0.3,0.4,0.5,1,0.5,1.5v4.4c0,0.2-0.1,0.4-0.2,0.6
	c-0.2,0.1-0.5,0.2-0.8,0.2h-0.4v0.7h9.4v0h4.1v-0.7H79c-0.3,0-0.5,0-0.7-0.2c-0.2-0.2-0.2-0.4-0.2-0.7v-3.2c0-0.8,0.2-1.6,0.7-2.2
	c0.4-0.5,1.1-0.9,1.8-0.8c0.6,0,1.3,0.3,1.6,0.8c0.3,0.6,0.4,1.2,0.4,1.8v3.8c0,0.2-0.1,0.4-0.2,0.6c-0.3,0.2-0.6,0.2-0.9,0.2h-0.1
	v0.7h3.9v-0.7H85z M51.2,27c-0.5,0.5-1.2,0.8-1.9,0.8c-0.4,0-0.7-0.1-1-0.4c-0.3-0.3-0.4-0.7-0.4-1.1c0-0.6,0.2-1.2,0.7-1.6
	c0.7-0.5,1.8-0.8,3.4-1.1l0,1.2C52.1,25.6,51.8,26.4,51.2,27z"/>
<path class="st0" d="M72.4,15.4c0.3,0,0.5,0.1,0.7,0.3c0.4,0.4,0.4,1,0,1.4c0,0,0,0,0,0c-0.4,0.4-1.1,0.4-1.5,0
	c-0.2-0.3-0.3-0.6-0.3-1C71.5,15.7,71.9,15.4,72.4,15.4C72.4,15.4,72.4,15.4,72.4,15.4z"/>
<path class="st0" d="M95.8,18.8c-0.1-0.1-0.2-0.2-0.4-0.3c-0.2-0.1-0.4-0.1-0.7-0.1c-0.6,0-2.3,0.9-2.9,1.6
	c-0.4-0.2-0.8-0.4-1.2-0.6c-0.4-0.1-0.8-0.2-1.3-0.2c-0.9,0-1.9,0.3-2.6,0.9c-0.6,0.5-1,1.3-1,2.1c0,0.5,0.1,1,0.4,1.4
	c0.3,0.4,0.7,0.8,1.2,1.1c-0.5,0.1-0.9,0.4-1.3,0.8c-0.3,0.3-0.4,0.7-0.4,1c0,0.4,0.2,0.8,0.5,1.1c0.4,0.3,0.9,0.6,1.4,0.7
	c-0.6,0.1-1.2,0.3-1.6,0.7c-0.3,0.3-0.5,0.6-0.5,1c0,0.5,0.3,1,0.8,1.3c0.6,0.5,1.6,0.7,3,0.7c1.6,0,2.8-0.4,3.7-1.1
	c0.6-0.5,0.9-1.2,0.9-1.9c0-0.6-0.3-1.2-0.8-1.6c-0.5-0.4-1.4-0.6-2.5-0.6l-2.3,0c-0.4,0-0.8,0-1.1-0.2c-0.2-0.1-0.3-0.3-0.3-0.6
	c0-0.3,0.1-0.5,0.4-0.7c0.5-0.2,0.9-0.3,1.4-0.2h1c0.6,0,1.2-0.2,1.7-0.5c0.5-0.2,1-0.6,1.3-1.1c0.3-0.4,0.4-0.9,0.4-1.4
	c0-0.3,0-0.6-0.1-0.9c-0.1-0.3-0.3-0.7-0.6-1c0.5-0.4,1-0.7,1.5-0.9c0.1,0,0.2,0.1,0.3,0.3c0.1,0.3,0.2,0.4,0.3,0.5
	c0.4,0.4,1,0.4,1.4,0c0,0,0,0,0,0C96.3,19.8,96.2,19.2,95.8,18.8z M89.9,28.3L89.9,28.3c0.6,0,1.1,0,1.6,0.2
	c0.3,0.1,0.6,0.3,0.8,0.5c0.2,0.2,0.2,0.5,0.2,0.7c0,0.4-0.3,0.8-0.8,1.2c-0.7,0.4-1.6,0.6-2.4,0.5c-0.7,0-1.4-0.1-2.1-0.5
	c-0.3-0.2-0.6-0.6-0.6-1c0-0.5,0.3-0.9,0.7-1.2C88,28.4,88.8,28.3,89.9,28.3z M90.8,24c-0.1,0.1-0.1,0.1-0.2,0.2
	c-0.8,0.6-1.9,0.6-2.6-0.2c-0.4-0.5-0.6-1.2-0.5-1.8c0-0.6,0.2-1.2,0.5-1.7c0.3-0.4,0.8-0.6,1.4-0.6h0c0.5,0,1,0.2,1.4,0.6
	c0.4,0.5,0.6,1.1,0.5,1.7C91.4,22.8,91.2,23.5,90.8,24z"/>
<path class="st1" d="M22.1,26.9h-0.4v-0.6h0.5c0.1,0.1,0.1,0.1,0.1,0.2C22.5,26.8,22.3,26.9,22.1,26.9 M22.8,26.6
	c0-0.1-0.1-0.4-0.2-0.4c-0.1-0.1-0.4-0.1-0.6-0.1h-0.6v1.9h0.4v-0.7H22l0.4,0.7h0.4l-0.4-0.7C22.7,27.1,22.8,26.9,22.8,26.6
	 M22.1,28.5c-0.8,0-1.4-0.7-1.4-1.4c0-0.8,0.7-1.4,1.4-1.4s1.4,0.7,1.4,1.4C23.5,27.8,22.9,28.5,22.1,28.5 M22.1,25.2
	c-1,0-1.8,0.8-1.8,1.8s0.8,1.8,1.8,1.8s1.8-0.8,1.8-1.8S23,25.2,22.1,25.2"/>
<linearGradient id="SVGID_1_" gradientUnits="userSpaceOnUse" x1="246.3766" y1="-1278.4885" x2="244.6536" y2="-1294.5884" gradientTransform="matrix(1 0 0 -1 -233.17 -1269.5356)">
	<stop  offset="0" style="stop-color:#DADCDF"/>
	<stop  offset="1" style="stop-color:#A8A8A8"/>
</linearGradient>
<path class="st2" d="M3.1,1.7C11.7-2.9,22.8,2,23.6,13.7C7.7,14.9,5.7,7.7,3.1,1.7z"/>
<linearGradient id="SVGID_2_" gradientUnits="userSpaceOnUse" x1="247.7676" y1="-1278.639" x2="246.0447" y2="-1294.7389" gradientTransform="matrix(1 0 0 -1 -233.17 -1269.5356)">
	<stop  offset="0" style="stop-color:#DADCDF"/>
	<stop  offset="1" style="stop-color:#A8A8A8"/>
</linearGradient>
<path class="st3" d="M3.1,26.8c8.6,4.6,19.7-0.3,20.6-11.9C7.7,13.5,5.7,20.8,3.1,26.8z"/>
<radialGradient id="SVGID_3_" cx="241.5797" cy="-1280.4742" r="16.4401" gradientTransform="matrix(1 0 0 -1 -233.17 -1269.5356)" gradientUnits="userSpaceOnUse">
	<stop  offset="0" style="stop-color:#C2C2C2"/>
	<stop  offset="0.22" style="stop-color:#BDBDBD"/>
	<stop  offset="0.46" style="stop-color:#B0B0B0"/>
	<stop  offset="0.72" style="stop-color:#999999"/>
	<stop  offset="0.99" style="stop-color:#7A7A7A"/>
	<stop  offset="1" style="stop-color:#787878"/>
</radialGradient>
<path class="st4" d="M20.7,5.4C16.5,0,9-1.6,3.1,1.7c2.4,5.4,4.2,11.7,16,12.1C20.5,11.3,21.1,8.3,20.7,5.4z M6,20.8
	c0.4,0,0.7,0.1,1,0.1c4.6,0,8.9-2.3,11.5-6.2C11.4,15.1,8.1,17.7,6,20.8z"/>
</svg>
