<svg version="1.2" xmlns="http://www.w3.org/2000/svg" viewBox="0 0 1139 1583" width="1139" height="1583">
	<title>logooneline-svg</title>
	<defs>
		<radialGradient id="g1" cx="490.1" cy="382.9" r="650.3" gradientUnits="userSpaceOnUse">
			<stop offset="0" stop-color="#ffffff"/>
			<stop offset="1" stop-color="#ffffff"/>
		</radialGradient>
		<radialGradient id="g2" cx="507" cy="989.4" r="273.7" gradientUnits="userSpaceOnUse">
			<stop offset="0" stop-color="#ffffff"/>
			<stop offset="1" stop-color="#ffffff"/>
		</radialGradient>
	</defs>
	<style>
		.s0 { fill: #ffffff } 
		.s1 { fill: url(#g1) } 
		.s2 { fill: url(#g2) } 
	</style>
	<g id="Layer">
		<path id="Layer" class="s0" d="m980.2 395.8c0-34.3-2.4-67.9-6.8-100.9 91.3 120.6 152.1 276.2 165.5 463.5-92.9 7.4-177.1 9.4-253.8 7 60.5-109.6 95.1-235.6 95.1-369.6z"/>
		<path id="Layer" class="s0" d="m1138.9 824.2c-46.3 649.1-662 917.9-1138.9 662.9 48.4-108.8 92.2-224.4 160.1-328.6 18.5 1.3 37.3 2.2 56.2 2.2 265.9 0 499.9-135.9 636.7-342.2 85.1-4.2 179.8-2.7 285.9 5.7z"/>
		<path id="Layer" class="s1" d="m973.4 294.9c4.4 33 6.8 66.6 6.8 100.9 0 134-34.6 260-95.1 369.6-653.1-20.5-752.5-371.1-885.1-669.9 339.2-181.4 748.6-97.6 973.4 199.4z"/>
		<path id="Layer" class="s2" d="m216.3 1160.7c-18.9 0-37.7-0.9-56.2-2.2 115.2-177 299.8-320.6 692.9-340-136.8 206.2-370.8 342.2-636.7 342.2z"/>
	</g>
</svg>