<svg width="14" height="14" viewBox="0 0 14 14" fill="none" xmlns="http://www.w3.org/2000/svg">
<path d="M6.70382 0.185303H1.03301C0.565451 0.185303 0.185303 0.565451 0.185303 1.03301V6.70382H6.70382V0.185303Z" fill="#F0C419"/>
<path d="M0.185303 7.29639V12.9672C0.185303 13.4348 0.565451 13.8149 1.03301 13.8149H6.70382V7.29639H0.185303Z" fill="#ED7161"/>
<path d="M12.9672 0.185303H7.29639V6.70382H13.8149V1.03301C13.8149 0.565451 13.4348 0.185303 12.9672 0.185303Z" fill="#67B9CC"/>
<path d="M7.29639 13.8149H12.9672C13.4348 13.8149 13.8149 13.4348 13.8149 12.9672V7.29639H7.29639V13.8149Z" fill="#A4E869"/>
<path d="M3.29644 5.81505C4.52374 5.81505 5.51866 4.82013 5.51866 3.59283C5.51866 2.36553 4.52374 1.37061 3.29644 1.37061C2.06914 1.37061 1.07422 2.36553 1.07422 3.59283C1.07422 4.82013 2.06914 5.81505 3.29644 5.81505Z" fill="#F29C1F"/>
<path d="M10.5554 1.37063L8.48145 3.44458L10.5554 5.51853L12.6293 3.44458L10.5554 1.37063Z" fill="#48A0DC"/>
<path d="M5.51875 12.3335H3.44468H1.37061L3.44468 8.1853L5.51875 12.3335Z" fill="#DF4D60"/>
<path d="M10.5557 8.1853L11.3047 9.70323L12.926 9.96308L11.7678 11.1278L12.0537 12.7963L10.5557 12.0084L9.0576 12.7963L9.34353 11.1278L8.1853 9.96308L9.80664 9.70323L10.5557 8.1853Z" fill="#4FBA6F"/>
</svg>
