<?xml version="1.0" encoding="utf-8"?>
<!-- Generator: Adobe Illustrator 22.0.1, SVG Export Plug-In . SVG Version: 6.00 Build 0)  -->
<svg version="1.1" id="Слой_1" xmlns="http://www.w3.org/2000/svg" xmlns:xlink="http://www.w3.org/1999/xlink" x="0px" y="0px"
	 viewBox="0 0 103 32" style="enable-background:new 0 0 103 32;" xml:space="preserve">
<style type="text/css">
	.st0{fill:url(#SVGID_1_);}
	.st1{fill:url(#SVGID_2_);}
	.st2{fill:url(#SVGID_3_);}
	.st3{fill:url(#SVGID_4_);}
	.st4{fill:url(#SVGID_5_);}
	.st5{fill:#FFFFFF;}
</style>
<g transform="matrix(.07 0 0 .07 -12.643 -26.49)">
	
		<linearGradient id="SVGID_1_" gradientUnits="userSpaceOnUse" x1="72838.0469" y1="-59465.0469" x2="73035" y2="-59465.0469" gradientTransform="matrix(7.000000e-02 0 0 -7.000000e-02 -4915.0718 -3693.0183)">
		<stop  offset="0" style="stop-color:#EE344D"/>
		<stop  offset="1" style="stop-color:#F89927"/>
	</linearGradient>
	<path class="st0" d="M293.6,485.8c3.6,0,6.6-3,6.6-6.6v-19.2c0-3.6-3-6.6-6.6-6.6c-3.6,0-6.6,3-6.6,6.6v19.2
		C287,482.8,290,485.8,293.6,485.8z"/>
	
		<linearGradient id="SVGID_2_" gradientUnits="userSpaceOnUse" x1="72940.2109" y1="-59716.2539" x2="73135.4453" y2="-59716.2539" gradientTransform="matrix(7.000000e-02 0 0 -7.000000e-02 -4915.0718 -3693.0183)">
		<stop  offset="0" style="stop-color:#EE344D"/>
		<stop  offset="1" style="stop-color:#F89927"/>
	</linearGradient>
	<path class="st1" d="M267,503.3c3.6,0,6.6-3,6.6-6.6v-19.2c0-3.6-3-6.6-6.6-6.6s-6.6,3-6.6,6.6v19.2
		C260.4,500.4,263.4,503.3,267,503.3z"/>
	
		<linearGradient id="SVGID_3_" gradientUnits="userSpaceOnUse" x1="72877.0234" y1="-59219.8516" x2="73073.0547" y2="-59219.8516" gradientTransform="matrix(7.000000e-02 0 0 -7.000000e-02 -4915.0718 -3693.0183)">
		<stop  offset="0" style="stop-color:#EE344D"/>
		<stop  offset="1" style="stop-color:#F89927"/>
	</linearGradient>
	<path class="st2" d="M267,458.9c3.6,0,6.6-3,6.6-6.6v0.2c0-3.6-3-6.6-6.6-6.6s-6.6,3-6.6,6.6v-0.2
		C260.4,455.9,263.4,458.9,267,458.9z"/>
	
		<linearGradient id="SVGID_4_" gradientUnits="userSpaceOnUse" x1="72862.1875" y1="-59928.043" x2="73056.4453" y2="-59928.043" gradientTransform="matrix(7.000000e-02 0 0 -7.000000e-02 -4915.0718 -3693.0183)">
		<stop  offset="0" style="stop-color:#EE344D"/>
		<stop  offset="1" style="stop-color:#F89927"/>
	</linearGradient>
	<path class="st3" d="M320.2,508.5c3.6,0,6.6-3,6.6-6.6v0.2c0-3.6-3-6.6-6.6-6.6c-3.6,0-6.6,3-6.6,6.6v-0.2
		C313.5,505.5,316.5,508.5,320.2,508.5z"/>
	
		<linearGradient id="SVGID_5_" gradientUnits="userSpaceOnUse" x1="72795.5156" y1="-61653.0938" x2="72994.8359" y2="-61653.0938" gradientTransform="matrix(7.000000e-02 0 0 -7.000000e-02 -4915.0718 -3693.0183)">
		<stop  offset="0" style="stop-color:#EE344D"/>
		<stop  offset="1" style="stop-color:#F89927"/>
	</linearGradient>
	<path class="st4" d="M373.3,557.7c-3.6,0-6.6,3-6.6,6.6v3.4c-0.2,3.5-3.1,6.2-6.6,6.2c-3.6,0-6.6-3-6.6-6.6v-16.6
		c0-3.6-3-6.6-6.6-6.6s-6.6,3-6.6,6.6v0.4c0,3.6-3,6.6-6.6,6.6s-6.6-3-6.6-6.6v-27.8c0-3.6-3-6.6-6.6-6.6c-3.6,0-6.6,3-6.6,6.6v10.6
		c-0.1,3.7-3.4,6.6-6.6,6.6c-3.6,0-6.6-3-6.6-6.6v-29.9c0-3.6-3-6.6-6.6-6.6c-3.6,0-6.6,3-6.6,6.6v26c0,3.6-3,6.6-6.6,6.6
		s-6.6-3-6.6-6.6v-9.3c0-3.6-3-6.6-6.6-6.6s-6.6,3-6.6,6.6v20c0,3.6-3,6.6-6.6,6.6c-3.6,0-6.6-3-6.6-6.6v-27.8c0-3.6-3-6.6-6.6-6.6
		c-3.6,0-6.6,3-6.6,6.6v42.6c0,3.6-3,6.6-6.6,6.6s-6.6-3-6.6-6.6v-11.2c0-3.6-3-6.6-6.6-6.6c-3.6,0-6.6,3-6.6,6.6v31.2
		c0,3.6-3,6.6-6.6,6.6c-3.6,0-6.6-3-6.6-6.6v-10.3c0-3.6-3-6.6-6.6-6.6s-6.6,3-6.6,6.6l-0.1,10.3v115.1l99.7,57.5l99.6-57.6V564.4
		C379.9,560.7,377,557.7,373.3,557.7z M327.2,670.6h-31.3v-23.9h-31.3v23.9h-31.3v-74.6h31.3V621h31.3v-25.1h31.3V670.6z"/>
</g>
<g>
	<polygon class="st5" points="27,12.2 27,15.8 23.7,15.8 23.7,12.2 21.2,12.2 21.2,21.7 23.7,21.7 23.7,17.9 27,17.9 27,21.7 
		29.6,21.7 29.6,12.2 	"/>
	<path class="st5" d="M37.5,21.7h2.6l-2.8-9.5H36h-1.3h-1.3l-2.8,9.5h2.6l0.5-1.6H37L37.5,21.7z M34.2,18.2l1.2-3.9l1.2,3.9H34.2z"
		/>
	<path class="st5" d="M56.5,21.7h2.6l-2.8-9.5h-1.3h-1.3h-1.3l-2.8,9.5h2.6l0.5-1.6H56L56.5,21.7z M53.2,18.2l1.2-3.9l1.2,3.9H53.2z
		"/>
	<path class="st5" d="M47.6,16.9L47.6,16.9c1-0.2,1.5-0.7,1.5-1.9v-0.5c0-1.8-1.2-2.3-3.2-2.3h-0.2h-1.4h-3.2v9.5h3.2h1.4h0.7
		c2,0,2.8-0.6,2.8-2.4v-0.5C49.2,17.6,48.6,17,47.6,16.9z M43.6,14.3h2.3c0.4,0,0.7,0.3,0.7,0.7v0.3c0,0.4-0.3,0.7-0.7,0.7h-2.3
		V14.3z M46.7,18.9c0,0.4-0.3,0.7-0.7,0.7h-2.4v-1.9H46c0.4,0,0.7,0.3,0.7,0.7V18.9z"/>
	<polygon class="st5" points="59.8,21.7 59.8,12.2 64,12.2 66.7,19.4 66.8,19.4 66.7,12.2 69.3,12.2 69.3,21.7 64.9,21.7 62.3,14.4 
		62.2,14.4 62.3,21.7 	"/>
	<polygon class="st5" points="73,19.6 73,17.7 77,17.7 77,16 73,16 73,14.3 77.4,14.3 77.4,12.2 73,12.2 71.3,12.2 70.5,12.2 
		70.5,21.7 71.3,21.7 73,21.7 77.5,21.7 77.5,19.6 	"/>
	<path class="st5" d="M85.5,17.9c0.9-0.2,1.3-0.7,1.3-2v-1.3c-0.2-1.7-0.9-2.4-3.9-2.4h-4.3v9.5h2.6v-2.5h2c0.6,0,0.9,0.5,0.9,1v1.4
		h2.6v-1.9c0-0.8-0.6-1.5-1.4-1.6L85,18.1l0-0.1L85.5,17.9z M84.2,15.9c0,0.9-0.3,1.1-0.7,1.1h-2.3v-2.6h1.9c0.9,0,1.1,0.4,1.1,1
		V15.9z"/>
	<path class="st5" d="M96.6,17.1L96.6,17.1c0-0.2,0-0.6,0-0.9c0-0.2,0-0.6,0-0.8l0-0.2c-0.1-1.3-0.8-2.4-1.8-2.7l-0.3-0.1
		c-0.4-0.1-0.7-0.2-1.1-0.2l-1,0v0l-0.2,0l-0.2,0v0l-1,0c-0.4,0-0.8,0.1-1.1,0.2l-0.3,0.1c-1,0.3-1.7,1.4-1.8,2.7l0,0.2
		c0,0.2,0,0.6,0,0.8c0,0.4,0,0.7,0,0.9l0,0c0,0,0,0,0,0.1c0,0,0,0.1,0,0.1l0,0c0,0.2,0,0.5,0,0.8c0,0.2,0,0.5,0,0.7l0,0.2
		c0.1,1.2,0.8,2.1,1.8,2.4l0.3,0.1c0.4,0.1,0.7,0.2,1.1,0.2l1,0v0l0.2,0l0.2,0v0l1,0c0.4,0,0.8-0.1,1.1-0.2l0.3-0.1
		c1-0.3,1.7-1.2,1.8-2.4l0-0.2c0-0.2,0-0.5,0-0.7c0-0.3,0-0.7,0-0.8l0,0C96.6,17.3,96.6,17.3,96.6,17.1
		C96.6,17.2,96.6,17.1,96.6,17.1z M94,16.7v0.6v0.2c0,0.2,0,0.3,0,0.5l0,0.5c0,0.2,0,0.3-0.1,0.5c-0.1,0.3-0.3,0.5-0.6,0.6l0,0
		c-0.7,0.1-1.4,0.1-2.1,0h0l0,0c-0.3-0.1-0.4-0.3-0.6-0.6c-0.1-0.2-0.1-0.3-0.1-0.5l0-0.5c0-0.2,0-0.3,0-0.5v-0.2v-0.6v-0.2
		c0-0.2,0-0.3,0-0.5l0-0.5c0-0.2,0-0.3,0.1-0.5c0.1-0.3,0.3-0.5,0.6-0.6l0,0h0c0.7-0.1,1.4-0.1,2.1,0l0,0c0.3,0.1,0.4,0.3,0.6,0.6
		c0.1,0.2,0.1,0.3,0.1,0.5l0,0.5c0,0.2,0,0.3,0,0.5V16.7z"/>
	<path class="st5" d="M99.3,14.6h-0.6v-1.7h-0.6v-0.5h1.8v0.5h-0.6L99.3,14.6L99.3,14.6z M103,14.6h-0.6l0-1.7h0l-0.6,1.7h-0.5
		l-0.6-1.7h0l0.1,1.7h-0.6v-2.2h0.9l0.4,1.4h0l0.4-1.4h1L103,14.6L103,14.6z"/>
</g>
</svg>
