<?xml version="1.0" encoding="utf-8"?>
<!-- Generator: Adobe Illustrator 22.0.1, SVG Export Plug-In . SVG Version: 6.00 Build 0)  -->
<svg version="1.1" id="Слой_1" xmlns="http://www.w3.org/2000/svg" xmlns:xlink="http://www.w3.org/1999/xlink" x="0px" y="0px"
	 viewBox="0 0 103 32" style="enable-background:new 0 0 103 32;" xml:space="preserve">
<style type="text/css">
	.st0{fill:#FFFFFF;}
</style>
<g>
	<path class="st0" d="M6.8,13.2h2.9v2.4l4.7,0.1V2.3c0-0.1-0.1-0.3-0.2-0.3H10C9.8,2,9.8,2.1,9.8,2.3v6.4H6.8V2.3
		C6.8,2.1,6.7,2,6.6,2H2.4C2.3,2,2.2,2.1,2.2,2.3v13.2l4.6,0.1V13.2z M25.2,2.2C25.2,2.1,25.1,2,25,2h-4.6c-0.1,0-0.2,0-0.2,0.2
		l-3.9,13.6l12.8,0.3C29.1,16.1,25.2,2.2,25.2,2.2z M21.5,13.6l1.2-7.7l1.2,7.7H21.5z M47.2,15.9l2-3l1.5,3.7l4.8,0.1L52,8.9
		l4.5-6.6c0.1-0.2,0-0.3-0.1-0.3h-4.8c-0.1,0-0.2,0.1-0.2,0.1l-4.2,6.7V2.2C47.2,2.1,47.1,2,47,2h-3.9c-0.1,0-0.2,0.1-0.2,0.3v14.2
		l4.3,0.1L47.2,15.9z M69.8,14.3c0-7.1-7.9-4.5-7.9-7.3c0-0.8,0.7-1.2,1.6-1.2c1.1,0,2.2,0.5,3.2,1.6c0,0.1,0.1,0.1,0.2,0l0-0.1
		l2.2-3c0.1-0.1,0.1-0.3,0-0.4c-1.3-1.7-3.3-2.6-5.4-2.6c-2.9,0-6.1,1.4-6.1,6.1c0,7.4,8,4.5,8,7.5c0,0.9-0.8,1.4-1.8,1.4
		c-1.3,0-2.7-0.7-4-2.5c-0.1-0.1-0.2-0.1-0.3,0l-2.1,3l11.9,0.3C69.6,16.2,69.8,15.3,69.8,14.3L69.8,14.3z M79.6,2.2
		c0-0.1-0.1-0.2-0.2-0.2h-4.6c-0.1,0-0.2,0-0.2,0.2l-4.3,15l13.6,0.3L79.6,2.2L79.6,2.2z M75.9,13.6l1.2-7.7l1.2,7.7H75.9z
		 M92.4,10.1l1.2,7.7l5,0.1L103,2.3c0-0.2,0-0.3-0.1-0.3h-4.1c-0.1,0-0.2,0.1-0.2,0.2l-2.2,9.1l-1.8-9.1c0-0.1-0.1-0.2-0.2-0.2h-3.8
		c-0.1,0-0.2,0.1-0.2,0.2l-1.8,9.1l-2.2-9.1c0-0.1-0.1-0.2-0.2-0.2H82c-0.1,0-0.2,0.1-0.1,0.3l4.3,15.3l5.1,0.1L92.4,10.1z M40.8,15
		L40.8,15l-0.1,0c-0.6,0.9-1.6,1.4-2.6,1.3c-2.3,0-3.3-2.3-3.3-5.2c0-2.7,0.9-5.1,3.4-5.1c1,0,2,0.5,2.6,1.3c0,0,0.1,0,0.1,0l0,0v-5
		c0-0.1-0.1-0.2-0.2-0.3c-0.9-0.3-1.8-0.4-2.7-0.4c-5,0-8.2,4.4-8.2,9.9c0,1.6,0.3,3.3,0.9,4.8l10.2,0.3L40.8,15z M7.6,20.7
		c0,0.1,0.1,0.2,0.2,0.2H12c0.1,0,0.2-0.1,0.2-0.2v-4.2l-4.7-0.1L7.6,20.7z M0.2,20.9h4.2c0.1,0,0.2-0.1,0.2-0.2v-4.5L0,16.1v4.6
		C0,20.8,0.1,20.9,0.2,20.9z M13.1,20.9h4.2c0.1,0,0.2-0.1,0.2-0.2l0.5-2.4h4.8l0.5,2.4c0,0.1,0.1,0.2,0.2,0.2h4.2
		c0.1,0,0.2-0.1,0.1-0.3l-1.1-3.8l-12.8-0.3l-1.2,4.1C12.8,20.8,12.9,20.9,13.1,20.9L13.1,20.9z M49.9,20.8c0,0.1,0.1,0.2,0.2,0.2
		h4.4c0.1,0,0.2-0.1,0.1-0.3l-1.4-3.1l-4.8-0.1L49.9,20.8z M40.8,20.9h3.9c0.1,0,0.2-0.1,0.2-0.2v-3.4l-4.3-0.1v3.5
		C40.6,20.8,40.7,20.9,40.8,20.9z M54.8,18.4c1.5,2,3.9,3.2,6.4,3.2c2.5,0,4.9-1.2,5.9-3.7l-11.9-0.3L54.8,18
		C54.7,18.1,54.7,18.3,54.8,18.4L54.8,18.4z M67.4,20.9h4.2c0.1,0,0.2-0.1,0.2-0.2l0.5-2.4h4.8l0.5,2.4c0,0.1,0.1,0.2,0.2,0.2h4.2
		c0.1,0,0.2-0.1,0.1-0.3l-0.7-2.4l-13.6-0.3l-0.8,2.7C67.2,20.8,67.3,20.9,67.4,20.9L67.4,20.9z M91.8,20.7c0,0.1,0.1,0.2,0.2,0.2
		h3.6c0.1,0,0.2-0.1,0.2-0.2l0.6-2.1l-5-0.1L91.8,20.7z M84.9,20.9h3.6c0.1,0,0.2-0.1,0.2-0.2l0.4-2.3L84,18.3l0.7,2.4
		C84.7,20.9,84.7,20.9,84.9,20.9L84.9,20.9z M35.8,21.7c0.9,0,1.8-0.1,2.6-0.4c0.1,0,0.2-0.1,0.2-0.3v-3.9l-10.2-0.3
		C29.7,19.8,32.6,21.7,35.8,21.7L35.8,21.7z M6.4,26.9H4.8v-0.7c0-0.1-0.1-0.2-0.2-0.2H4.2C4.1,25.9,4,26,4,26.1v3.3
		c0,0.1,0.1,0.2,0.2,0.2h0.3c0.1,0,0.2-0.1,0.2-0.2v-1H4.3v-1h2v2.1c0,0.7-0.4,1.1-1.3,1.1H3.7c-0.9,0-1.3-0.4-1.3-1.1V26
		c0-0.7,0.4-1.1,1.3-1.1H5c0.9,0,1.3,0.4,1.3,1.1V26.9z M23.5,30.6l-0.2-0.9h-1.4l-0.2,0.9h-1.6l1.5-5.7h2l1.5,5.7H23.5z M22.2,28.6
		h0.9l-0.4-2.1L22.2,28.6z M40.4,30.6H39v-5.7h1.7l1,3l1-3h1.7v5.7H43V27l-0.7,2.4h-1.1L40.4,27L40.4,30.6z M58.6,24.9h1.6v5.7h-1.6
		V24.9z M77.1,24.9h1.5v5.7h-1.4l-1.3-3v3h-1.5v-5.7h1.4l1.3,3V24.9z M96.8,26.9h-1.6v-0.7c0-0.1-0.1-0.2-0.2-0.2h-0.3
		c-0.1,0-0.2,0.1-0.2,0.2v3.3c0,0.1,0.1,0.2,0.2,0.2h0.3c0.1,0,0.2-0.1,0.2-0.2v-1h-0.5v-1h2.1v2.1c0,0.7-0.4,1.1-1.3,1.1h-1.3
		c-0.9,0-1.3-0.4-1.3-1.1V26c0-0.7,0.4-1.1,1.3-1.1h1.3c0.9,0,1.3,0.4,1.3,1.1V26.9z"/>
</g>
</svg>
