<svg width="17" height="17" viewBox="0 0 17 17" fill="none" xmlns="http://www.w3.org/2000/svg">
<path fill-rule="evenodd" clip-rule="evenodd" d="M2.125 13.5258C2.125 12.9379 2.59648 12.4045 3.17934 12.3345L8.4668 11.6988L13.7543 12.3345C14.3366 12.4045 14.8086 12.9361 14.8086 13.5258V16.7457H2.125V13.5258Z" fill="#5B68C0"/>
<path fill-rule="evenodd" clip-rule="evenodd" d="M6.36594 10.9124C5.31194 9.91236 4.61523 8.29371 4.61523 6.94162C4.61523 4.81446 6.33964 3.09006 8.4668 3.09006C10.594 3.09006 12.3184 4.81446 12.3184 6.94162C12.3184 8.29371 11.6217 9.91236 10.5676 10.9124V13.2563C10.5676 13.2563 9.14347 13.7635 8.4668 13.7635C7.79012 13.7635 6.36594 13.2563 6.36594 13.2563V10.9124Z" fill="#FFDD95"/>
<path fill-rule="evenodd" clip-rule="evenodd" d="M4.74805 3.85156C4.74805 3.04471 5.40091 2.39062 6.20925 2.39062H13.248V3.85156C13.248 4.65842 12.5952 5.3125 11.7868 5.3125H4.74805V3.85156Z" fill="#FFAF40"/>
<path d="M3.98438 7.4375V3.45078C3.98438 2.42517 4.65949 1.59375 5.49092 1.59375H11.5091C12.3411 1.59375 13.0156 2.42481 13.0156 3.45078V7.4375" stroke="#979797" stroke-width="2" stroke-linecap="round"/>
<path d="M10.0938 12.2188C12.7344 12.2188 14.875 10.0781 14.875 7.4375" stroke="#868686" stroke-width="2" stroke-linecap="round"/>
<path d="M9.82812 11.9531H7.96875C7.82205 11.9531 7.70312 12.072 7.70312 12.2188C7.70312 12.3655 7.82205 12.4844 7.96875 12.4844H9.82812C9.97483 12.4844 10.0938 12.3655 10.0938 12.2188C10.0938 12.072 9.97483 11.9531 9.82812 11.9531Z" stroke="#FF5EAC" stroke-width="2"/>
<path d="M13.8125 4.78125H12.75C12.4566 4.78125 12.2188 5.0191 12.2188 5.3125V8.76562C12.2188 9.05903 12.4566 9.29688 12.75 9.29688H13.8125C14.1059 9.29688 14.3438 9.05903 14.3438 8.76562V5.3125C14.3438 5.0191 14.1059 4.78125 13.8125 4.78125Z" fill="#FF5EAC"/>
<path d="M4.25 4.78125H3.1875C2.8941 4.78125 2.65625 5.0191 2.65625 5.3125V8.76562C2.65625 9.05903 2.8941 9.29688 3.1875 9.29688H4.25C4.5434 9.29688 4.78125 9.05903 4.78125 8.76562V5.3125C4.78125 5.0191 4.5434 4.78125 4.25 4.78125Z" fill="#FF5EAC"/>
<path d="M14.875 6.375H14.6094V7.70312H14.875V6.375Z" stroke="#979797" stroke-width="2"/>
</svg>
