<?xml version="1.0" encoding="utf-8"?>
<!-- Generator: Adobe Illustrator 22.0.1, SVG Export Plug-In . SVG Version: 6.00 Build 0)  -->
<svg version="1.1" id="Слой_1" xmlns="http://www.w3.org/2000/svg" xmlns:xlink="http://www.w3.org/1999/xlink" x="0px" y="0px"
	 viewBox="0 0 103 32" style="enable-background:new 0 0 103 32;" xml:space="preserve">
<style type="text/css">
	.st0{fill:#FFFFFF;}
</style>
<g>
	<g>
		<g transform="translate(.827 2.36)">
			<path class="st0" d="M3.9,23.6c1.1,0,2.1-0.3,2.8-0.8c0.8-0.5,1.3-1.2,1.7-2.1C8.8,19.8,9,18.4,9,16.4V4.7H5.9v12.1
				c0,1.6-0.1,2.6-0.4,3c-0.3,0.4-0.8,0.7-1.4,0.7s-1.2-0.3-1.5-0.9c-0.3-0.4-0.4-1.3-0.4-2.3l-2.9,0.4c0,2.1,0.4,3.6,1.3,4.6
				S2.4,23.6,3.9,23.6z"/>
			<path class="st0" d="M15.4,23.3v-8h6.4v-3.1h-6.4V7.8h7.4V4.7H12.3v18.7H15.4z M31.9,23.3V7.8h4.6V4.7H24.2v3.2h4.6v15.5H31.9z
				 M43.9,23.3l3-14l3,14h3.3L57,4.7h-3.1l-2.4,13l-2.7-13h-3.7l-2.8,12.8L40.1,4.7h-3.2l3.7,18.7H43.9z"/>
		</g>
		<path class="st0" d="M62.8,13.8c0.4,0,0.8-0.1,1.1-0.3c0.3-0.2,0.5-0.5,0.7-0.8c0.1-0.4,0.2-0.9,0.2-1.7V6.2h-1.3v4.8
			c0,0.6,0,1-0.2,1.2c-0.1,0.2-0.3,0.3-0.6,0.3s-0.4-0.1-0.6-0.4C62.1,12,62,11.7,62,11.2l-1.2,0.2c0,0.8,0.2,1.4,0.5,1.8
			C61.7,13.6,62.1,13.8,62.8,13.8z M68.6,13.8c0.6,0,1.1-0.1,1.5-0.4c0.4-0.3,0.6-0.6,0.7-1.1c0.1-0.4,0.2-1.2,0.2-2.2V6.2h-1.3v4.3
			c0,0.7,0,1.1-0.1,1.3s-0.2,0.4-0.4,0.5c-0.2,0.1-0.4,0.2-0.7,0.2c-0.4,0-0.6-0.1-0.8-0.3c-0.2-0.2-0.4-0.4-0.4-0.8
			c0-0.2,0-0.6,0-1.2V6.2h-1.3v4c0,1.1,0.1,1.9,0.2,2.3s0.4,0.8,0.8,1C67.4,13.7,67.9,13.8,68.6,13.8L68.6,13.8z M74.5,13.8
			c0.8,0,1.5-0.2,1.9-0.7s0.6-1,0.6-1.7c0-0.4-0.1-0.8-0.2-1.2c-0.1-0.3-0.4-0.6-0.6-0.8S75.3,9.2,74.7,9c-0.6-0.2-1-0.3-1.1-0.4
			c-0.2-0.1-0.2-0.3-0.2-0.5c0-0.2,0.1-0.4,0.3-0.5c0.2-0.1,0.4-0.2,0.8-0.2s0.6,0.1,0.8,0.2c0.2,0.2,0.3,0.4,0.4,0.8l1.3,0
			c0-0.7-0.2-1.3-0.6-1.7S75.2,6,74.5,6c-0.5,0-0.9,0.1-1.2,0.3c-0.3,0.2-0.6,0.4-0.8,0.8c-0.2,0.4-0.3,0.7-0.3,1.1
			c0,0.4,0.1,0.7,0.2,1c0.1,0.3,0.4,0.5,0.6,0.7c0.2,0.2,0.6,0.4,1.2,0.5c0.6,0.2,0.9,0.3,1.1,0.4c0.1,0.1,0.3,0.2,0.4,0.3
			s0.1,0.3,0.1,0.4c0,0.3-0.1,0.5-0.3,0.7s-0.5,0.3-0.9,0.3c-0.8,0-1.2-0.5-1.3-1.4L72,11.3C72.1,13,72.9,13.8,74.5,13.8L74.5,13.8z
			 M80.6,13.7V7.5h1.8V6.2h-4.9v1.3h1.8v6.2L80.6,13.7L80.6,13.7z M86.8,13.7v-3.2h2.5V9.3h-2.5V7.5h2.9V6.2h-4.2v7.5H86.8
			L86.8,13.7z M93.5,13.8c0.9,0,1.6-0.3,2.1-0.9c0.6-0.7,0.9-1.7,0.9-2.9s-0.3-2.2-0.8-2.9c-0.6-0.7-1.3-1-2.1-1
			c-0.6,0-1.1,0.1-1.6,0.4c-0.4,0.3-0.8,0.7-1,1.3c-0.3,0.6-0.4,1.3-0.4,2.2c0,1.2,0.3,2.2,0.9,2.9C92,13.5,92.6,13.8,93.5,13.8z
			 M93.5,12.5c-0.5,0-0.9-0.2-1.2-0.6s-0.5-1.1-0.5-1.9c0-0.9,0.2-1.5,0.5-1.9c0.3-0.4,0.7-0.6,1.2-0.6c0.5,0,0.9,0.2,1.2,0.6
			c0.3,0.4,0.4,1.1,0.4,1.9c0,0.9-0.2,1.5-0.5,2C94.4,12.4,94,12.5,93.5,12.5L93.5,12.5z M98.7,13.7v-3.1H99c0.3,0,0.5,0,0.6,0.1
			c0.1,0,0.3,0.2,0.4,0.3c0.1,0.1,0.3,0.5,0.7,1.1l0.9,1.6h1.5l-0.8-1.5c-0.3-0.6-0.5-1-0.7-1.2c-0.2-0.2-0.4-0.4-0.7-0.6
			c0.5-0.1,0.9-0.3,1.2-0.7c0.3-0.4,0.4-0.8,0.4-1.4c0-0.4-0.1-0.8-0.3-1.2c-0.2-0.4-0.4-0.5-0.7-0.7c-0.3-0.1-0.8-0.2-1.4-0.2h-2.6
			v7.5L98.7,13.7L98.7,13.7z M99.6,9.4h-0.9V7.5h1.1c0.5,0,0.8,0,0.8,0c0.2,0,0.3,0.1,0.4,0.3c0.1,0.1,0.1,0.4,0.1,0.6
			c0,0.3,0,0.4-0.1,0.6c-0.1,0.1-0.2,0.3-0.4,0.3S100.2,9.4,99.6,9.4L99.6,9.4z M63.9,25.7v-6.2h1.8v-1.3h-4.9v1.3h1.8v6.2H63.9
			L63.9,25.7z M67.8,25.7v-3.3h2.4v3.3h1.3v-7.5h-1.3v2.9h-2.4v-2.9h-1.3v7.5H67.8L67.8,25.7z M77.4,25.7v-1.3H74v-2.1H77v-1.3H74
			v-1.7h3.3v-1.3h-4.6v7.5C72.7,25.7,77.4,25.7,77.4,25.7z M83,25.7l1.2-5.6l1.2,5.6h1.3l1.5-7.5H87L86,23.4L85,18.2h-1.5l-1.1,5.1
			l-0.9-5.1h-1.3l1.5,7.5H83L83,25.7z M90.1,25.7v-7.5h-1.3v7.5C88.8,25.7,90.1,25.7,90.1,25.7z M92.5,25.7v-4.9l2.5,4.9h1.3v-7.5
			H95v5l-2.5-5h-1.2v7.5C91.3,25.7,92.5,25.7,92.5,25.7z"/>
	</g>
</g>
</svg>
