<svg width="131" height="28" viewBox="0 0 131 28" fill="none" xmlns="http://www.w3.org/2000/svg">
<g clip-path="url(#clip0_1053_132)">
<path fill-rule="evenodd" clip-rule="evenodd" d="M12.0778 2.6822C11.5529 2.88218 10.9434 3.46565 10.6935 4.00746C10.4105 4.62103 10.3648 5.48677 10.5499 6.7303C10.6274 7.25014 10.7402 8.02722 10.8008 8.4572C10.8614 8.88719 10.9899 9.79446 11.0865 10.4734C11.183 11.1523 11.3319 12.2077 11.4173 12.8187C11.6389 14.404 11.8697 16.0489 12.064 17.4271C12.4974 20.4999 12.5766 21.0659 12.69 21.9024C12.7568 22.395 12.8792 22.9505 12.962 23.1368C13.1414 23.5404 13.5482 23.9581 14.0004 24.203C14.3276 24.3803 14.353 24.381 20.4885 24.4041C27.2597 24.4296 26.942 24.4508 27.663 23.9273C28.1762 23.5549 28.4051 23.0829 28.5485 22.1015C28.7348 20.8268 28.9617 19.3218 29.1478 18.1266C29.4487 16.1951 29.6543 14.8473 29.7692 14.0531C29.8315 13.6231 29.9598 12.7714 30.0544 12.1604C30.3035 10.5516 30.521 9.1157 30.6652 8.12802C30.7346 7.65279 30.8385 7.00472 30.8961 6.6879C30.9539 6.37108 31.0006 5.74154 31.0002 5.28891C30.9995 4.56301 30.9732 4.41265 30.7779 4.01339C30.4904 3.42538 29.9608 2.91518 29.417 2.7022C28.9879 2.53416 28.8842 2.53218 20.7114 2.53819C13.1802 2.5437 12.4075 2.55654 12.0778 2.6822Z" fill="white"/>
<path fill-rule="evenodd" clip-rule="evenodd" d="M12.7744 4.56351C12.3302 4.73448 11.8145 5.23339 11.6031 5.6967C11.3636 6.22133 11.3249 6.9616 11.4816 8.0249C11.5471 8.46941 11.6426 9.13387 11.6938 9.50155C11.7451 9.86922 11.8538 10.645 11.9356 11.2255C12.0173 11.806 12.1432 12.7085 12.2155 13.231C12.403 14.5865 12.5983 15.993 12.7628 17.1715C13.1295 19.7989 13.1965 20.2829 13.2924 20.9982C13.3489 21.4194 13.4526 21.8944 13.5226 22.0537C13.6744 22.3988 14.0186 22.7559 14.4012 22.9653C14.6781 23.1169 14.6995 23.1175 19.8912 23.1373C25.6207 23.1591 25.3518 23.1772 25.9619 22.7296C26.3961 22.4112 26.5898 22.0076 26.7111 21.1684C26.8688 20.0784 27.0608 18.7915 27.2183 17.7696C27.4728 16.118 27.6468 14.9656 27.7441 14.2865C27.7968 13.9188 27.9053 13.1905 27.9854 12.668C28.1962 11.2924 28.3802 10.0646 28.5022 9.22008C28.5609 8.81372 28.6488 8.25957 28.6976 7.98866C28.7465 7.71776 28.786 7.17946 28.7857 6.79244C28.785 6.17174 28.7628 6.04316 28.5976 5.70174C28.3543 5.19899 27.9061 4.7627 27.446 4.5806C27.083 4.4369 26.9952 4.43522 20.0797 4.44036C13.7072 4.44508 13.0534 4.45606 12.7744 4.56351Z" fill="#0D131C"/>
<path fill-rule="evenodd" clip-rule="evenodd" d="M14.1598 10.2154C13.7731 10.3461 13.3307 10.706 13.1548 11.0329C12.9557 11.4031 12.9377 11.917 13.0984 12.6495C13.1656 12.9557 13.2639 13.4135 13.3168 13.6669C13.3699 13.9203 13.4822 14.4548 13.5666 14.8548C13.651 15.2548 13.7812 15.8767 13.856 16.2367C14.0501 17.1708 14.2522 18.1401 14.4222 18.9521C14.8013 20.7626 14.8707 21.0961 14.9705 21.5891C15.0293 21.8794 15.1306 22.2057 15.1956 22.3141C15.3365 22.5491 15.6467 22.7871 15.9876 22.9216C16.2342 23.019 16.253 23.0189 20.8165 22.8895C25.8526 22.7468 25.6167 22.7667 26.1433 22.4397C26.518 22.2071 26.6795 21.9221 26.768 21.3373C26.883 20.5777 27.0239 19.6807 27.1403 18.9682C27.3283 17.8167 27.4563 17.0134 27.5271 16.5402C27.5654 16.284 27.6451 15.7763 27.7042 15.4121C27.8597 14.453 27.9948 13.5972 28.0838 13.0087C28.1267 12.7255 28.1919 12.3391 28.229 12.15C28.266 11.9609 28.2891 11.5868 28.2805 11.3187C28.2665 10.8886 28.2443 10.8001 28.0916 10.5681C27.8669 10.2264 27.4636 9.93648 27.0552 9.82297C26.7331 9.73343 26.6558 9.73466 20.5779 9.92878C14.9771 10.1077 14.4027 10.1333 14.1598 10.2154Z" fill="url(#paint0_linear_1053_132)"/>
<path fill-rule="evenodd" clip-rule="evenodd" d="M16.5566 0.0293277C16.2023 0.0848944 14.4629 0.777061 9.55806 2.81442C9.03729 3.03077 7.74048 3.5614 6.67629 3.99376C5.61214 4.42602 4.66733 4.81549 4.57677 4.85921C4.48617 4.90284 3.80807 5.18351 3.06985 5.48289C1.20331 6.23978 1.02843 6.32739 0.679903 6.68057C0.0875826 7.28079 -0.117597 8.07623 0.0638705 9.0687C0.181775 9.71347 0.342329 10.0241 2.43826 13.6615C3.12568 14.8547 4.67983 17.5767 5.8919 19.7105C8.81169 24.8508 9.10989 25.3473 9.42343 25.5896C9.57024 25.7031 9.93433 25.8533 10.2324 25.9233C10.8603 26.0709 11.3203 26.0124 12.0852 25.6877C12.8285 25.3721 15.1246 24.4264 16.8035 23.7443C17.6413 23.4039 18.4379 23.0749 18.5738 23.0132C18.7096 22.9515 19.5943 22.5881 20.5398 22.2057C21.9492 21.6358 22.3293 21.4463 22.6504 21.1537C23.3746 20.4939 23.5623 19.7495 23.2877 18.6259C23.1579 18.0949 22.9589 17.2502 22.6488 15.9143C22.4963 15.2576 22.2733 14.3052 21.8672 12.5769C21.754 12.0951 21.5671 11.2972 21.4519 10.804C21.3367 10.3106 21.1719 9.60668 21.0856 9.23958C20.9994 8.87247 20.7929 7.99015 20.6268 7.27886C20.4607 6.5676 20.1978 5.44126 20.0423 4.77585C19.4192 2.10841 19.3343 1.81297 19.0556 1.3414C18.4702 0.350965 17.5584 -0.127694 16.5566 0.0293277Z" fill="#0090FF"/>
<path d="M5.51092 14.3241C4.00309 11.7232 3.88757 11.5011 3.80276 11.0401C3.71517 10.3558 4.43111 9.11699 7.99551 9.63578C12.451 10.2843 10.1258 10.7167 14.3358 10.7167C18.114 10.7167 18.5458 11.149 18.6538 11.2571C19.0354 11.6392 19.1066 11.9281 19.1895 12.2808C19.2724 12.6335 19.4068 13.204 19.4883 13.5485C19.7804 14.7843 20.0554 15.5432 20.1651 16.0128C20.3882 16.968 20.6115 17.5786 20.7048 17.9583C20.9024 18.7617 21.0312 18.9997 20.5102 19.4714C20.2792 19.6807 19.5473 20.0258 18.5333 20.4333C17.8532 20.7067 17.2167 20.9666 17.119 21.0107C17.0212 21.0548 16.4481 21.2901 15.8455 21.5334C14.6376 22.0212 12.9857 22.6974 12.451 22.9231C11.9008 23.1552 11.5698 23.197 11.1181 23.0915C10.9037 23.0414 10.6417 22.934 10.5361 22.8529C10.3105 22.6796 10.096 22.3246 7.99551 18.6492C7.12352 17.1235 6.00543 15.1772 5.51092 14.3241Z" fill="url(#paint1_linear_1053_132)"/>
<path d="M6.64369 15.0976C5.49903 13.1749 5.54366 13.5712 5.33558 13.2694C5.01777 12.8084 4.34055 11.102 7.77133 11.4648C12.0598 11.9183 11.4502 12.419 15.5024 12.419C19.139 12.419 19.1051 12.7692 19.209 12.8448C19.5764 13.112 19.7647 14.1903 19.8444 14.437C19.9242 14.6836 19.9275 14.8567 20.0059 15.0976C20.2871 15.9619 20.4802 16.9746 20.5857 17.303C20.8005 17.971 20.7077 17.6744 20.7976 17.9399C20.9877 18.5018 20.8395 18.9675 20.3381 19.2974C20.1157 19.4437 19.4113 19.6851 18.4353 19.9701C17.7806 20.1613 17.168 20.343 17.074 20.3739C16.9799 20.4047 16.4283 20.5692 15.8482 20.7394C14.6857 21.0805 13.0957 21.5534 12.581 21.7112C12.0514 21.8736 11.807 22.2596 11.3721 22.1858C11.1657 22.1508 10.3088 21.6057 10.2072 21.5489C9.99539 21.1243 9.88948 20.8059 8.62082 18.2392C7.78152 17.1722 7.1197 15.6942 6.64369 15.0976Z" fill="url(#paint2_linear_1053_132)"/>
</g>
<g filter="url(#filter0_d_1053_132)">
<path d="M47.2235 8.33447L43.4948 19H40.1618L36.433 8.33447H39.5577L41.7727 15.9656H41.8838L44.0919 8.33447H47.2235ZM52.2125 19.2083C51.1339 19.2083 50.2011 18.9792 49.4142 18.5209C48.6318 18.058 48.0277 17.4145 47.6019 16.5905C47.176 15.7619 46.963 14.8014 46.963 13.7089C46.963 12.6072 47.176 11.6443 47.6019 10.8203C48.0277 9.9917 48.6318 9.34825 49.4142 8.88997C50.2011 8.42705 51.1339 8.1956 52.2125 8.1956C53.2911 8.1956 54.2215 8.42705 55.0039 8.88997C55.7908 9.34825 56.3972 9.9917 56.8231 10.8203C57.249 11.6443 57.4619 12.6072 57.4619 13.7089C57.4619 14.8014 57.249 15.7619 56.8231 16.5905C56.3972 17.4145 55.7908 18.058 55.0039 18.5209C54.2215 18.9792 53.2911 19.2083 52.2125 19.2083ZM52.2264 16.9169C52.7171 16.9169 53.1267 16.778 53.4554 16.5003C53.7841 16.2179 54.0317 15.8337 54.1984 15.3476C54.3697 14.8616 54.4553 14.3084 54.4553 13.6881C54.4553 13.0678 54.3697 12.5146 54.1984 12.0285C54.0317 11.5425 53.7841 11.1582 53.4554 10.8759C53.1267 10.5935 52.7171 10.4523 52.2264 10.4523C51.7311 10.4523 51.3144 10.5935 50.9765 10.8759C50.6432 11.1582 50.3909 11.5425 50.2196 12.0285C50.053 12.5146 49.9697 13.0678 49.9697 13.6881C49.9697 14.3084 50.053 14.8616 50.2196 15.3476C50.3909 15.8337 50.6432 16.2179 50.9765 16.5003C51.3144 16.778 51.7311 16.9169 52.2264 16.9169ZM62.3155 19.1736C61.5054 19.1736 60.7716 18.9653 60.1143 18.5487C59.4616 18.1274 58.9431 17.5094 58.5589 16.6947C58.1793 15.8753 57.9895 14.8708 57.9895 13.6811C57.9895 12.459 58.1863 11.4429 58.5798 10.6328C58.9732 9.81811 59.4963 9.20938 60.149 8.80664C60.8064 8.39928 61.5262 8.1956 62.3085 8.1956C62.9057 8.1956 63.4033 8.29744 63.8014 8.50112C64.2042 8.70017 64.5282 8.95015 64.7735 9.25104C65.0235 9.5473 65.2133 9.83894 65.3429 10.1259H65.4332V4.77929H68.3843V19H65.4679V17.2918H65.3429C65.204 17.5881 65.0073 17.8821 64.7527 18.1737C64.5027 18.4607 64.1764 18.6991 63.7736 18.8889C63.3755 19.0787 62.8895 19.1736 62.3155 19.1736ZM63.2529 16.8197C63.7297 16.8197 64.1324 16.6901 64.4611 16.4308C64.7944 16.167 65.049 15.799 65.2249 15.3268C65.4054 14.8546 65.4957 14.3014 65.4957 13.6672C65.4957 13.033 65.4077 12.4822 65.2318 12.0146C65.0559 11.5471 64.8013 11.186 64.468 10.9314C64.1347 10.6768 63.7297 10.5495 63.2529 10.5495C62.7668 10.5495 62.3571 10.6814 62.0238 10.9453C61.6905 11.2092 61.4382 11.5749 61.267 12.0424C61.0957 12.51 61.01 13.0516 61.01 13.6672C61.01 14.2875 61.0957 14.8361 61.267 15.3129C61.4429 15.7851 61.6952 16.1554 62.0238 16.4239C62.3571 16.6877 62.7668 16.8197 63.2529 16.8197ZM72.4966 15.9309L72.5035 12.3826H72.934L76.3503 8.33447H79.7458L75.156 13.695H74.4547L72.4966 15.9309ZM69.8163 19V4.77929H72.7743V19H69.8163ZM76.4822 19L73.3437 14.3547L75.3157 12.2646L79.9472 19H76.4822ZM83.2384 19.2014C82.5579 19.2014 81.9515 19.0833 81.4191 18.8472C80.8868 18.6065 80.4655 18.2524 80.1554 17.7849C79.8498 17.3127 79.6971 16.7248 79.6971 16.0212C79.6971 15.4286 79.8059 14.931 80.0234 14.5283C80.241 14.1255 80.5373 13.8015 80.9122 13.5561C81.2872 13.3108 81.7131 13.1256 82.1899 13.0006C82.6713 12.8757 83.1759 12.7877 83.7036 12.7368C84.3239 12.672 84.8238 12.6118 85.2034 12.5562C85.583 12.4961 85.8585 12.4081 86.0297 12.2924C86.201 12.1767 86.2867 12.0054 86.2867 11.7785V11.7369C86.2867 11.2971 86.1478 10.9569 85.87 10.7162C85.5969 10.4754 85.2081 10.3551 84.7035 10.3551C84.1711 10.3551 83.7476 10.4731 83.4328 10.7092C83.118 10.9407 82.9097 11.2323 82.8079 11.5841L80.072 11.3619C80.2109 10.7138 80.484 10.1537 80.8914 9.68155C81.2988 9.20475 81.8242 8.83905 82.4676 8.58444C83.1157 8.32521 83.8656 8.1956 84.7174 8.1956C85.3099 8.1956 85.877 8.26503 86.4186 8.40391C86.9648 8.54278 87.4486 8.75804 87.8698 9.04967C88.2957 9.34131 88.6313 9.71627 88.8767 10.1746C89.122 10.6282 89.2447 11.1721 89.2447 11.8063V19H86.4394V17.521H86.3561C86.1848 17.8543 85.9557 18.1482 85.6687 18.4028C85.3817 18.6528 85.0368 18.8496 84.6341 18.9931C84.2313 19.1319 83.7661 19.2014 83.2384 19.2014ZM84.0855 17.1599C84.5206 17.1599 84.9049 17.0743 85.2382 16.903C85.5715 16.7271 85.833 16.491 86.0228 16.1947C86.2126 15.8985 86.3075 15.5629 86.3075 15.1879V14.0561C86.2149 14.1163 86.0876 14.1718 85.9256 14.2227C85.7682 14.269 85.59 14.313 85.3909 14.3547C85.1919 14.3917 84.9928 14.4264 84.7938 14.4588C84.5947 14.4866 84.4142 14.5121 84.2521 14.5352C83.905 14.5861 83.6018 14.6671 83.3425 14.7782C83.0833 14.8893 82.8819 15.0398 82.7384 15.2296C82.5949 15.4147 82.5232 15.6462 82.5232 15.9239C82.5232 16.3267 82.669 16.6345 82.9606 16.8475C83.2569 17.0558 83.6318 17.1599 84.0855 17.1599Z" fill="white"/>
<path d="M92.2686 19.1805C91.8103 19.1805 91.4168 19.0185 91.0881 18.6945C90.7641 18.3658 90.6021 17.9723 90.6021 17.514C90.6021 17.0604 90.7641 16.6715 91.0881 16.3475C91.4168 16.0235 91.8103 15.8614 92.2686 15.8614C92.7129 15.8614 93.1018 16.0235 93.4351 16.3475C93.7684 16.6715 93.935 17.0604 93.935 17.514C93.935 17.8196 93.8563 18.0996 93.699 18.3542C93.5462 18.6042 93.3448 18.8056 93.0949 18.9583C92.8449 19.1065 92.5694 19.1805 92.2686 19.1805ZM95.4191 19V4.77929H98.3772V10.1259H98.4674C98.597 9.83894 98.7845 9.5473 99.0299 9.25104C99.2798 8.95015 99.6039 8.70017 100.002 8.50112C100.405 8.29744 100.905 8.1956 101.502 8.1956C102.28 8.1956 102.997 8.39928 103.654 8.80664C104.312 9.20938 104.837 9.81811 105.231 10.6328C105.624 11.4429 105.821 12.459 105.821 13.6811C105.821 14.8708 105.629 15.8753 105.244 16.6947C104.865 17.5094 104.346 18.1274 103.689 18.5487C103.036 18.9653 102.305 19.1736 101.495 19.1736C100.921 19.1736 100.433 19.0787 100.03 18.8889C99.6317 18.6991 99.3053 18.4607 99.0507 18.1737C98.7961 17.8821 98.6017 17.5881 98.4674 17.2918H98.3355V19H95.4191ZM98.3147 13.6672C98.3147 14.3014 98.4026 14.8546 98.5785 15.3268C98.7544 15.799 99.009 16.167 99.3423 16.4308C99.6756 16.6901 100.081 16.8197 100.557 16.8197C101.039 16.8197 101.446 16.6877 101.78 16.4239C102.113 16.1554 102.365 15.7851 102.536 15.3129C102.712 14.8361 102.8 14.2875 102.8 13.6672C102.8 13.0516 102.715 12.51 102.543 12.0424C102.372 11.5749 102.12 11.2092 101.787 10.9453C101.453 10.6814 101.044 10.5495 100.557 10.5495C100.076 10.5495 99.6687 10.6768 99.3354 10.9314C99.0067 11.186 98.7544 11.5471 98.5785 12.0146C98.4026 12.4822 98.3147 13.033 98.3147 13.6672ZM111.655 19.2083C110.558 19.2083 109.614 18.9861 108.822 18.5417C108.035 18.0927 107.429 17.4585 107.003 16.6391C106.577 15.8152 106.364 14.8407 106.364 13.7158C106.364 12.6187 106.577 11.6559 107.003 10.8273C107.429 9.99864 108.028 9.35288 108.801 8.88997C109.579 8.42705 110.491 8.1956 111.537 8.1956C112.241 8.1956 112.896 8.30901 113.502 8.53584C114.113 8.75804 114.646 9.09365 115.099 9.54267C115.558 9.9917 115.914 10.5565 116.169 11.2369C116.423 11.9128 116.55 12.7044 116.55 13.6117V14.4241H107.544V12.591H113.766C113.766 12.1651 113.673 11.7878 113.488 11.4591C113.303 11.1305 113.046 10.8736 112.718 10.6884C112.394 10.4986 112.016 10.4037 111.586 10.4037C111.137 10.4037 110.739 10.5078 110.391 10.7162C110.049 10.9198 109.78 11.1953 109.586 11.5425C109.392 11.885 109.292 12.2669 109.287 12.6882V14.431C109.287 14.9588 109.385 15.4147 109.579 15.799C109.778 16.1832 110.058 16.4794 110.419 16.6877C110.78 16.8961 111.208 17.0002 111.704 17.0002C112.032 17.0002 112.333 16.9539 112.606 16.8613C112.88 16.7688 113.113 16.6299 113.308 16.4447C113.502 16.2596 113.65 16.0327 113.752 15.7642L116.488 15.9448C116.349 16.6021 116.064 17.1761 115.634 17.6668C115.208 18.1529 114.657 18.5325 113.981 18.8056C113.31 19.0741 112.535 19.2083 111.655 19.2083ZM123.154 8.33447V10.5565H116.731V8.33447H123.154ZM118.189 5.77919H121.147V15.7226C121.147 15.9957 121.189 16.2086 121.272 16.3614C121.355 16.5095 121.471 16.6137 121.619 16.6739C121.772 16.734 121.948 16.7641 122.147 16.7641C122.286 16.7641 122.425 16.7526 122.564 16.7294C122.702 16.7016 122.809 16.6808 122.883 16.6669L123.348 18.8681C123.2 18.9144 122.992 18.9676 122.723 19.0278C122.455 19.0926 122.128 19.1319 121.744 19.1458C121.031 19.1736 120.406 19.0787 119.869 18.8611C119.337 18.6436 118.923 18.3056 118.627 17.8473C118.33 17.3891 118.184 16.8104 118.189 16.1114V5.77919Z" fill="#0090FF"/>
</g>
<defs>
<filter id="filter0_d_1053_132" x="32.4331" y="4.7793" width="94.915" height="22.429" filterUnits="userSpaceOnUse" color-interpolation-filters="sRGB">
<feFlood flood-opacity="0" result="BackgroundImageFix"/>
<feColorMatrix in="SourceAlpha" type="matrix" values="0 0 0 0 0 0 0 0 0 0 0 0 0 0 0 0 0 0 127 0" result="hardAlpha"/>
<feOffset dy="4"/>
<feGaussianBlur stdDeviation="2"/>
<feComposite in2="hardAlpha" operator="out"/>
<feColorMatrix type="matrix" values="0 0 0 0 0 0 0 0 0 0 0 0 0 0 0 0 0 0 0.25 0"/>
<feBlend mode="normal" in2="BackgroundImageFix" result="effect1_dropShadow_1053_132"/>
<feBlend mode="normal" in="SourceGraphic" in2="effect1_dropShadow_1053_132" result="shape"/>
</filter>
<linearGradient id="paint0_linear_1053_132" x1="125.304" y1="-1.85343" x2="122.981" y2="29.5148" gradientUnits="userSpaceOnUse">
<stop stop-color="#E3EDF9" stop-opacity="0.16"/>
<stop offset="0.09375" stop-color="#CFD9E4" stop-opacity="0.145"/>
<stop offset="1" stop-color="#0D131C" stop-opacity="0"/>
</linearGradient>
<linearGradient id="paint1_linear_1053_132" x1="75.5182" y1="-3.85878e-05" x2="75.5182" y2="26" gradientUnits="userSpaceOnUse">
<stop stop-color="white"/>
<stop offset="1" stop-color="white"/>
</linearGradient>
<linearGradient id="paint2_linear_1053_132" x1="15.2906" y1="11.4648" x2="14.5459" y2="17.4087" gradientUnits="userSpaceOnUse">
<stop stop-color="#DDEDFF"/>
<stop offset="1" stop-color="#D9D9D9" stop-opacity="0"/>
</linearGradient>
<clipPath id="clip0_1053_132">
<rect width="31" height="26" fill="white"/>
</clipPath>
</defs>
</svg>
