<svg width="19" height="19" viewBox="0 0 19 19" fill="none" xmlns="http://www.w3.org/2000/svg">
<g clip-path="url(#clip0_122_369)">
<path d="M18.2498 15.5656H0.750203C0.335877 15.5656 0 15.2297 0 14.8154V11.9474C0 11.5331 0.335877 11.1972 0.750203 11.1972C1.68603 11.1972 2.44736 10.4358 2.44736 9.50001C2.44736 8.56419 1.68603 7.80289 0.750203 7.80289C0.335877 7.80289 0 7.46701 0 7.05269V4.18461C0 3.77033 0.335877 3.43445 0.750203 3.43445H18.2498C18.6641 3.43445 19 3.77033 19 4.18465V7.05462C19 7.45992 18.6781 7.79194 18.273 7.80445C16.0981 7.87162 16.093 11.1283 18.273 11.1957C18.6781 11.2082 19 11.5402 19 11.9455V14.8155C19 15.2297 18.6641 15.5656 18.2498 15.5656Z" fill="#F2C500"/>
<path d="M18.2728 7.80445C18.6779 7.79194 18.9998 7.45992 18.9998 7.05462V4.18465C18.9998 3.77036 18.6639 3.43445 18.2496 3.43445H7.53955V15.5656H18.2496C18.6639 15.5656 18.9998 15.2297 18.9998 14.8154V11.9454C18.9998 11.5401 18.6779 11.2081 18.2728 11.1956C16.0979 11.1285 16.0928 7.87176 18.2728 7.80445Z" fill="#F59D00"/>
<path d="M7.53992 3.43445H6.03955V15.5655H7.53992V3.43445Z" fill="#E87E04"/>
<path d="M14.4635 8.87309H9.78634C9.37205 8.87309 9.03613 8.53721 9.03613 8.12288C9.03613 7.70859 9.37201 7.37268 9.78634 7.37268H14.4635C14.8778 7.37268 15.2137 7.70856 15.2137 8.12288C15.2137 8.53721 14.8778 8.87309 14.4635 8.87309Z" fill="#808285"/>
<path d="M14.4635 11.6274H9.78634C9.37205 11.6274 9.03613 11.2915 9.03613 10.8772C9.03613 10.4628 9.37201 10.127 9.78634 10.127H14.4635C14.8778 10.127 15.2137 10.4628 15.2137 10.8772C15.2137 11.2915 14.8778 11.6274 14.4635 11.6274Z" fill="#808285"/>
</g>
<defs>
<clipPath id="clip0_122_369">
<rect width="19" height="19" fill="white"/>
</clipPath>
</defs>
</svg>
