<?xml version="1.0" encoding="utf-8"?>
<!-- Generator: Adobe Illustrator 22.0.1, SVG Export Plug-In . SVG Version: 6.00 Build 0)  -->
<svg version="1.1" id="Слой_1" xmlns="http://www.w3.org/2000/svg" xmlns:xlink="http://www.w3.org/1999/xlink" x="0px" y="0px"
	 viewBox="0 0 103 32" style="enable-background:new 0 0 103 32;" xml:space="preserve">
<style type="text/css">
	.st0{fill:#FFFFFF;}
</style>
<g>
	<g>
		<path class="st0" d="M38.2,1.1h1.9l3.7,8.6h0l3.8-8.6h1.9v11h-1.3V2.9h0l-3.9,9.2h-0.8l-3.9-9.2h0v9.2h-1.3V1.1z"/>
		<path class="st0" d="M55.8,1.1H57l4.7,11h-1.5l-1.1-2.7h-5.5l-1.1,2.7H51L55.8,1.1z M56.4,2.8L56.4,2.8l-2.3,5.4h4.5L56.4,2.8z"/>
		<path class="st0" d="M68.4,3.1c-0.4-0.7-1.2-1-2-1c-1.1,0-2.3,0.5-2.3,1.8c0,1,0.6,1.5,2.3,2C68,6.5,69.6,7,69.6,9.2
			c0,2.2-1.9,3.2-3.9,3.2c-1.3,0-2.6-0.4-3.4-1.5l1.1-0.9c0.5,0.8,1.4,1.2,2.3,1.2c1.1,0,2.4-0.7,2.4-1.9c0-1.3-0.9-1.6-2.9-2.2
			c-1.6-0.5-2.7-1.2-2.7-3c0-2.1,1.8-3.2,3.7-3.2c1.2,0,2.3,0.3,3.1,1.3L68.4,3.1z"/>
		<path class="st0" d="M79.5,3.4c-0.7-0.9-1.7-1.3-2.7-1.3c-2.4,0-4.2,2.2-4.2,4.6c0,2.5,1.7,4.6,4.2,4.6c1.3,0,2.4-0.5,3.2-1.5
			l1,0.8c-1,1.3-2.4,1.9-4.2,1.9c-3.1,0-5.6-2.4-5.6-5.8c0-3.2,2.3-5.8,5.6-5.8c1.5,0,2.9,0.5,3.9,1.7L79.5,3.4z"/>
		<path class="st0" d="M82.1,6.6c0-3.3,2.4-5.8,5.7-5.8c3.3,0,5.7,2.5,5.7,5.8c0,3.3-2.4,5.8-5.7,5.8C84.5,12.4,82.1,10,82.1,6.6z
			 M92.1,6.6c0-2.5-1.8-4.6-4.3-4.6c-2.6,0-4.3,2-4.3,4.6c0,2.5,1.8,4.6,4.3,4.6C90.4,11.2,92.1,9.2,92.1,6.6z"/>
		<path class="st0" d="M103,2.4h-3.6v9.8h-1.3V2.4h-3.6V1.1h8.6V2.4z"/>
		<path class="st0" d="M47.5,30c-1.3,0.7-2.7,1-4.1,1c-3.4,0-5.9-2.3-5.9-5.8c0-3.5,2.6-5.8,5.9-5.8c1.4,0,2.8,0.4,3.9,1.4l-1,1
			c-0.7-0.8-1.9-1.3-3-1.3c-2.5,0-4.4,1.9-4.4,4.6c0,2.6,1.8,4.6,4.5,4.6c0.9,0,1.9-0.2,2.7-0.6v-3.4h-2.5v-1.2h3.8V30z"/>
		<path class="st0" d="M53.8,19.8H55l4.7,11h-1.5L57.1,28h-5.5l-1.1,2.7H49L53.8,19.8z M54.4,21.4L54.4,21.4l-2.3,5.4h4.5L54.4,21.4
			z"/>
		<path class="st0" d="M61.2,19.8h1.9l3.7,8.6h0l3.8-8.6h1.9v11h-1.3v-9.2h0l-3.9,9.2h-0.8l-3.9-9.2h0v9.2h-1.3V19.8z"/>
		<path class="st0" d="M75.2,19.8h1.3v11h-1.3V19.8z"/>
		<path class="st0" d="M79.3,19.8h1.6l6.4,9.1h0v-9.1h1.3v11h-1.6l-6.4-9.1h0v9.1h-1.3V19.8z"/>
		<path class="st0" d="M100.7,30c-1.3,0.7-2.7,1-4.1,1c-3.4,0-5.9-2.3-5.9-5.8c0-3.5,2.6-5.8,5.9-5.8c1.4,0,2.8,0.4,3.9,1.4l-1,1
			c-0.7-0.8-1.9-1.3-3-1.3c-2.5,0-4.4,1.9-4.4,4.6c0,2.6,1.8,4.6,4.5,4.6c0.9,0,1.9-0.2,2.7-0.6v-3.4h-2.5v-1.2h3.8V30z"/>
	</g>
	<g transform="translate(-104 -38)">
		<g transform="translate(500.019 486.765) rotate(180)">
			<path class="st0" d="M380.2,436.3c0-0.7-0.1-1.5-0.3-2.2c-0.5,0.8-1.2,1.6-1.9,2.2l0,0c0,2.1-1.3,4-3.3,4.7
				c-0.4-0.8-1.3-1.2-2.1-0.9c-0.6,0.2-1.1,0.7-1.2,1.3l0,0c-0.9,0.3-1.4,1.3-1.1,2.2c0.3,0.9,1.3,1.4,2.2,1.2l0,0
				c0.5,0.4,1.1,0.6,1.7,0.4c0.8-0.3,1.4-1.1,1.2-2C378.3,442.1,380.2,439.4,380.2,436.3L380.2,436.3z"/>
			<path class="st0" d="M367.9,446h25.9v-9.7l0,0c0.8-0.6,1.4-1.3,1.9-2.2c0.2,0.7,0.3,1.4,0.3,2.2v12h-30.4v-12
				c0-4,3.3-7.3,7.3-7.3c1.5,0,3,0.5,4.2,1.3c-0.1,0.8-0.4,1.6-0.9,2.2c-2.1-1.8-5.3-1.6-7.1,0.5c-0.8,0.9-1.2,2.1-1.2,3.3V446
				L367.9,446z"/>
			<path class="st0" d="M380.2,429.9c0,4-3.3,7.3-7.3,7.3c-1.5,0-3-0.5-4.2-1.3c0.1-0.8,0.4-1.6,0.9-2.2c2.1,1.8,5.3,1.6,7.1-0.5
				c1.8-2.1,1.6-5.3-0.5-7.1c-0.5-0.4-1-0.7-1.5-0.9c-0.4,0.8-1.3,1.2-2.1,0.9c-0.6-0.2-1.1-0.7-1.2-1.3l0,0
				c-0.9-0.3-1.5-1.3-1.2-2.2c0.3-0.9,1.3-1.5,2.2-1.2l0,0l0,0c0.5-0.4,1.1-0.6,1.7-0.4c0.8,0.3,1.4,1.1,1.2,2
				C378.3,424,380.2,426.8,380.2,429.9L380.2,429.9z"/>
			<path class="st0" d="M381.4,429.9c0,0.7,0.1,1.5,0.3,2.2c0.5-0.8,1.2-1.6,1.9-2.2l0,0c0-2.1,1.3-4,3.3-4.7
				c0.4,0.8,1.3,1.2,2.1,0.9c0.6-0.2,1.1-0.7,1.2-1.3l0,0c0.9-0.3,1.5-1.3,1.2-2.2s-1.3-1.5-2.2-1.2l0,0c-0.5-0.4-1.1-0.6-1.7-0.4
				c-0.8,0.3-1.4,1.1-1.2,2C383.4,424,381.4,426.8,381.4,429.9L381.4,429.9z"/>
			<path class="st0" d="M381.4,436.3c0,3.1,2,5.9,4.9,6.9c-0.2,0.9,0.4,1.7,1.2,2c0.6,0.2,1.3,0,1.7-0.4l0,0
				c0.9,0.3,1.9-0.2,2.2-1.2c0.3-0.9-0.2-1.9-1.2-2.2l0,0c-0.2-1-1.2-1.6-2.1-1.4c-0.5,0.1-1,0.5-1.2,1c-2.6-1-3.9-3.9-3-6.5
				c1-2.6,3.9-3.9,6.5-3c0.6,0.2,1.1,0.5,1.5,0.9c0.5-0.6,0.8-1.4,0.9-2.2c-3.3-2.3-7.9-1.5-10.2,1.8
				C381.9,433.3,381.4,434.8,381.4,436.3L381.4,436.3z"/>
			<path class="st0" d="M396,429.9c0,4-3.3,7.3-7.3,7.3c-1.5,0-3-0.5-4.2-1.3c0.1-0.8,0.4-1.6,0.9-2.2c2.1,1.8,5.3,1.6,7.1-0.5
				c0.8-0.9,1.2-2.1,1.2-3.3v-9.7h-25.9v9.7l0,0c-0.8,0.6-1.4,1.3-1.9,2.2c-0.2-0.7-0.3-1.4-0.3-2.2v-12.6H396L396,429.9L396,429.9z
				"/>
		</g>
	</g>
</g>
</svg>
