<?xml version="1.0" encoding="utf-8"?>
<!-- Generator: Adobe Illustrator 22.0.1, SVG Export Plug-In . SVG Version: 6.00 Build 0)  -->
<svg version="1.1" id="Слой_1" xmlns="http://www.w3.org/2000/svg" xmlns:xlink="http://www.w3.org/1999/xlink" x="0px" y="0px"
	 viewBox="0 0 103 32" style="enable-background:new 0 0 103 32;" xml:space="preserve">
<style type="text/css">
	.st0{fill:url(#path1469_1_);}
	.st1{fill:url(#path1478_1_);}
	.st2{fill:url(#path1487_1_);}
	.st3{fill:url(#path1496_1_);}
	.st4{fill:url(#path1505_1_);}
	.st5{fill:url(#path1514_1_);}
	.st6{fill:url(#path1523_1_);}
	.st7{fill:url(#path1532_1_);}
	.st8{fill:url(#path1541_1_);}
	.st9{fill:url(#path1550_1_);}
	.st10{fill:url(#path1559_1_);}
	.st11{fill:url(#path1568_1_);}
</style>
<g id="layer1" transform="translate(-224.386 -183.692)">
	<g id="g1572" transform="matrix(.26458 0 0 .26458 224.386 198.692)">
		<g id="Layer_2">
			<g id="Layer_1-2">
				
					<linearGradient id="path1469_1_" gradientUnits="userSpaceOnUse" x1="3848.2573" y1="-2970.9053" x2="4236.292" y2="-2877.4243" gradientTransform="matrix(0.2646 0 0 -0.2646 -1025.6632 -768.8817)">
					<stop  offset="0" style="stop-color:#21E418"/>
					<stop  offset="0.3" style="stop-color:#31B6E9"/>
					<stop  offset="0.976" style="stop-color:#21E418"/>
				</linearGradient>
				<path id="path1469" class="st0" d="M48.1-44.2C21.5-44.2,0-22.7,0,3.9c0,4.8,0.7,9.4,2.1,13.9c0.9-1.2,1.8-2.5,2.6-3.8
					C8,9.1,11.3,4.2,14.6-0.8l2.4-3.8c0.8-1.2,1.6-2.6,2.3-3.8c1.6-2.6,3.1-5.1,4.5-7.7c0.7-1.3,1.4-2.6,2.2-3.9s1.4-2.6,2.1-3.9
					c0.7-1.3,1.4-2.6,2-3.9l1.9-4l0.2-0.3c1.1-2.1,3.6-3,5.8-2c1.6,0.9,2.6,2.6,2.5,4.4c0,2.3-0.4,4.7-0.6,7s-0.3,4.7-0.4,7.1
					c-0.2,4.7-0.3,9.4-0.3,14.1s0.3,9.3,0.7,13.8c0.3,2.2,0.6,4.4,1.1,6.6c0.4,1.9,1,3.9,1.9,5.6c0.3,0.5,0.6,1.1,1.1,1.5
					c0.3,0.2,0.1,0.1,0.3,0.1h0.2l0.2-0.1h0.1l0.3-0.1c0.1-0.1,0.3-0.2,0.4-0.3c0.7-0.5,1.3-1.1,1.9-1.9c1.4-1.7,2.7-3.4,3.9-5.2
					c1.2-1.9,2.4-3.9,3.5-5.9c2.3-4.1,4.4-8.2,6.4-12.4c1-2.1,2-4.2,3-6.4c1-2.1,1.9-4.3,2.8-6.4c0.9-2.2,3.4-3.3,5.6-2.4
					c1.4,0.5,2.4,1.8,2.6,3.3c0,0.5,0.1,1.2,0.2,1.9l0.3,2c0.2,1.3,0.4,2.6,0.6,4c0.4,2.6,1,5.3,1.7,7.8s1.6,5.1,2.6,7.6
					c1.1,2.5,2.4,4.8,4.1,6.9c0.4,0.5,0.3,1.2-0.2,1.6s-1.1,0.4-1.4,0c-2.2-1.9-4.1-4.1-5.8-6.5S74,8.8,72.7,6.2
					c-0.9-1.8-1.6-3.5-2.4-5.3c-0.5,1.1-1,2.1-1.5,3.1c-2.1,4.3-4.2,8.6-6.7,13c-1.2,2.3-2.5,4.4-3.9,6.5c-1.4,2.2-3,4.3-4.7,6.3
					c-1,1.1-2.1,2.1-3.3,3.1c-0.4,0.3-0.7,0.5-1.1,0.7L48.3,34l-0.4,0.2h-0.1l-0.3,0.1h-0.2L47,34.4c-0.3,0.1-0.4,0.2-0.7,0.2
					l-1.6,0.3c-1.1,0.1-2.4-0.1-3.4-0.4s-2-1-2.9-1.7c-1.3-1.1-2.5-2.6-3.3-4.1c-1.2-2.5-2.1-5.1-2.6-7.8c-0.5-2.5-0.9-5-1.1-7.5
					c-0.5-4.9-0.7-9.8-0.8-14.7v-7c-0.9,1.7-1.8,3.4-2.6,4.9c-0.7,1.3-1.4,2.6-2.2,4l-2.2,4c-3,5.3-6.1,10.5-9.3,15.7
					c-2,3.4-4.1,6.7-6.3,10c14.6,22.2,44.4,28.4,66.6,13.8s28.4-44.4,13.8-66.6C79.4-36,64.3-44.2,48.1-44.2z"/>
				
					<linearGradient id="path1478_1_" gradientUnits="userSpaceOnUse" x1="3864.1785" y1="-3036.9883" x2="4252.2134" y2="-2943.5073" gradientTransform="matrix(0.2646 0 0 -0.2646 -1025.6632 -768.8817)">
					<stop  offset="0" style="stop-color:#21E418"/>
					<stop  offset="0.3" style="stop-color:#31B6E9"/>
					<stop  offset="0.976" style="stop-color:#21E418"/>
				</linearGradient>
				<path id="path1478" class="st1" d="M137.8,21.2v-31.9H137l-10.2,32h-2.6l-10.2-32h-0.8v31.9h-4.2V-14h7.5l9.1,28l8.9-28h7.6
					v35.4L137.8,21.2L137.8,21.2z"/>
				
					<linearGradient id="path1487_1_" gradientUnits="userSpaceOnUse" x1="3869.3228" y1="-3058.3474" x2="4257.3574" y2="-2964.8662" gradientTransform="matrix(0.2646 0 0 -0.2646 -1025.6632 -768.8817)">
					<stop  offset="0" style="stop-color:#21E418"/>
					<stop  offset="0.3" style="stop-color:#31B6E9"/>
					<stop  offset="0.976" style="stop-color:#21E418"/>
				</linearGradient>
				<path id="path1487" class="st2" d="M148.2-9.5V-14h4.6v4.6H148.2z M148.2,21.2V-6h4.5v27.3H148.2z"/>
				
					<linearGradient id="path1496_1_" gradientUnits="userSpaceOnUse" x1="3876.6084" y1="-3088.5964" x2="4264.644" y2="-2995.1152" gradientTransform="matrix(0.2646 0 0 -0.2646 -1025.6632 -768.8817)">
					<stop  offset="0" style="stop-color:#21E418"/>
					<stop  offset="0.3" style="stop-color:#31B6E9"/>
					<stop  offset="0.976" style="stop-color:#21E418"/>
				</linearGradient>
				<path id="path1496" class="st3" d="M180,12.3c0,5.3-2,9.3-10.8,9.3c-11.1,0-11.7-6.3-11.7-14.1S158-6.6,169.1-6.6
					c8.8,0,10.8,4.1,10.8,9.3h-4.2c0-4.3-1.5-6.4-6.6-6.4c-6.9,0-7.2,3.7-7.2,11.1s0.4,11.1,7.2,11.1c5.1,0,6.6-2.1,6.6-6.4
					L180,12.3z"/>
				
					<linearGradient id="path1505_1_" gradientUnits="userSpaceOnUse" x1="3880.3569" y1="-3104.1455" x2="4268.3916" y2="-3010.6643" gradientTransform="matrix(0.2646 0 0 -0.2646 -1025.6632 -768.8817)">
					<stop  offset="0" style="stop-color:#21E418"/>
					<stop  offset="0.3" style="stop-color:#31B6E9"/>
					<stop  offset="0.976" style="stop-color:#21E418"/>
				</linearGradient>
				<path id="path1505" class="st4" d="M188.7-3.1c2.1-1.3,4.9-3.1,7.4-3.2c0.5-0.1,1.1-0.1,1.6-0.1c0.7,0,1.3,0,2.1,0.1L199.5-3
					c-0.7-0.1-1.3-0.1-1.9-0.1c-0.5,0-1.1,0-1.7,0.1c-2.4,0.1-4.9,1.9-6.8,2.9v21.4h-4.5V-6h3.5L188.7-3.1z"/>
				
					<linearGradient id="path1514_1_" gradientUnits="userSpaceOnUse" x1="3885.8149" y1="-3126.8" x2="4273.8496" y2="-3033.3191" gradientTransform="matrix(0.2646 0 0 -0.2646 -1025.6632 -768.8817)">
					<stop  offset="0" style="stop-color:#21E418"/>
					<stop  offset="0.3" style="stop-color:#31B6E9"/>
					<stop  offset="0.976" style="stop-color:#21E418"/>
				</linearGradient>
				<path id="path1514" class="st5" d="M225.1,7.6c0,7.8-0.6,14.1-11.9,14.1s-11.9-6.3-11.9-14.1s0.6-14.1,11.9-14.1
					S225.1-0.1,225.1,7.6z M205.7,7.6c0,7.4,0.4,11.1,7.4,11.1s7.4-3.6,7.4-11.1s-0.4-11.1-7.4-11.1S205.7,0.1,205.7,7.6z"/>
				
					<linearGradient id="path1523_1_" gradientUnits="userSpaceOnUse" x1="3895.4414" y1="-3166.7661" x2="4283.4761" y2="-3073.2849" gradientTransform="matrix(0.2646 0 0 -0.2646 -1025.6632 -768.8817)">
					<stop  offset="0" style="stop-color:#21E418"/>
					<stop  offset="0.3" style="stop-color:#31B6E9"/>
					<stop  offset="0.976" style="stop-color:#21E418"/>
				</linearGradient>
				<path id="path1523" class="st6" d="M233.3,27.6c1.7,0.2,3.9,0.3,6.3,0.3c6.9,0,7.8-1.9,7.8-9.1c-2,1.1-4.9,2.5-7.8,2.6
					c-10,0.2-10.6-5.2-10.6-13.7s0.5-14.1,10.1-14.1c3.3,0,6.3,1.5,8.6,3l0.4-2.5h3.5v24.2c0,9.8-2.2,12.8-11.2,12.8
					c-2.6,0-5.3-0.3-7.8-0.6L233.3,27.6z M247.5-1c-1.9-1.2-4.4-2.5-6.8-2.5c-6.6,0-7.1,3.7-7.1,11.1c0,7.2,0.4,10.7,7.1,10.7
					c2.4,0,4.9-1.3,6.8-2.3V-1z"/>
				
					<linearGradient id="path1532_1_" gradientUnits="userSpaceOnUse" x1="3897.8672" y1="-3176.8296" x2="4285.9019" y2="-3083.3484" gradientTransform="matrix(0.2646 0 0 -0.2646 -1025.6632 -768.8817)">
					<stop  offset="0" style="stop-color:#21E418"/>
					<stop  offset="0.3" style="stop-color:#31B6E9"/>
					<stop  offset="0.976" style="stop-color:#21E418"/>
				</linearGradient>
				<path id="path1532" class="st7" d="M276.3,21.2l-0.4-2.5c-2.2,1.4-5.1,3-8.3,3c-10,0.2-10.6-5.5-10.6-14.1s0.5-14.1,10.4-14.1
					c3.3,0,6.2,1.5,8.4,2.8l0.4-2.4h3.5v27.3H276.3z M275.4-1.2c-1.9-1.1-4.4-2.3-6.8-2.3c-6.6,0-7.1,3.7-7.1,11.1
					s0.4,11.1,7.1,11.1c2.4,0,4.9-1.3,6.8-2.5V-1.2z"/>
				
					<linearGradient id="path1541_1_" gradientUnits="userSpaceOnUse" x1="3904.6453" y1="-3204.9663" x2="4292.6802" y2="-3111.4854" gradientTransform="matrix(0.2646 0 0 -0.2646 -1025.6632 -768.8817)">
					<stop  offset="0" style="stop-color:#21E418"/>
					<stop  offset="0.3" style="stop-color:#31B6E9"/>
					<stop  offset="0.976" style="stop-color:#21E418"/>
				</linearGradient>
				<path id="path1541" class="st8" d="M289.3-3.6c2-1.2,4.8-2.7,7.7-2.8c4.6-0.2,7,1.1,8.1,3c2.1-1.3,4.9-2.9,8-3
					c9.3-0.3,10,4.5,10,11.1v16.6h-4.5V4.9c0-5.6-0.4-8.4-6.4-8.4c-2.2,0-4.5,1.3-6.3,2.5c0.4,1.9,0.6,4,0.5,6v16.3h-3.9V4.9
					c0-5.6-0.4-8.4-6.4-8.4c-2.1,0-4.4,1.3-6.2,2.3v22.4h-4.5V-6h3.5L289.3-3.6z"/>
				
					<linearGradient id="path1550_1_" gradientUnits="userSpaceOnUse" x1="3906.7302" y1="-3213.6289" x2="4294.7651" y2="-3120.1477" gradientTransform="matrix(0.2646 0 0 -0.2646 -1025.6632 -768.8817)">
					<stop  offset="0" style="stop-color:#21E418"/>
					<stop  offset="0.3" style="stop-color:#31B6E9"/>
					<stop  offset="0.976" style="stop-color:#21E418"/>
				</linearGradient>
				<path id="path1550" class="st9" d="M328.6-9.5V-14h4.6v4.6H328.6z M328.7,21.2V-6h4.5v27.3H328.7z"/>
				
					<linearGradient id="path1559_1_" gradientUnits="userSpaceOnUse" x1="3914.1804" y1="-3244.5457" x2="4302.2153" y2="-3151.0645" gradientTransform="matrix(0.2646 0 0 -0.2646 -1025.6632 -768.8817)">
					<stop  offset="0" style="stop-color:#21E418"/>
					<stop  offset="0.3" style="stop-color:#31B6E9"/>
					<stop  offset="0.976" style="stop-color:#21E418"/>
				</linearGradient>
				<path id="path1559" class="st10" d="M342.7-3.6c2.2-1.2,5.1-2.7,8.3-2.8c10-0.3,10.6,4.5,10.6,11.1v16.6h-4.5V4.9
					c0-5.6-0.4-8.4-7.1-8.4c-2.4,0-4.9,1.3-6.8,2.4v22.4h-4.5V-6h3.5L342.7-3.6z"/>
				
					<linearGradient id="path1568_1_" gradientUnits="userSpaceOnUse" x1="3923.8547" y1="-3284.7068" x2="4311.8892" y2="-3191.2256" gradientTransform="matrix(0.2646 0 0 -0.2646 -1025.6632 -768.8817)">
					<stop  offset="0" style="stop-color:#21E418"/>
					<stop  offset="0.3" style="stop-color:#31B6E9"/>
					<stop  offset="0.976" style="stop-color:#21E418"/>
				</linearGradient>
				<path id="path1568" class="st11" d="M370.3,27.6c1.7,0.2,3.9,0.3,6.3,0.3c6.9,0,7.8-1.9,7.8-9.1c-2,1.1-4.9,2.5-7.8,2.6
					c-10,0.2-10.6-5.2-10.6-13.7s0.5-14.1,10.1-14.1c3.3,0,6.3,1.5,8.6,3l0.4-2.5h3.5v24.2c0,9.8-2.2,12.8-11.2,12.8
					c-2.6,0-5.3-0.3-7.8-0.6L370.3,27.6z M384.4-1c-1.9-1.2-4.4-2.5-6.8-2.5c-6.6,0-7.1,3.7-7.1,11.1c0,7.2,0.4,10.7,7.1,10.7
					c2.4,0,4.9-1.3,6.8-2.3V-1z"/>
			</g>
		</g>
	</g>
</g>
</svg>
