<?xml version="1.0" encoding="utf-8"?>
<!-- Generator: Adobe Illustrator 22.0.1, SVG Export Plug-In . SVG Version: 6.00 Build 0)  -->
<svg version="1.1" id="Слой_1" xmlns="http://www.w3.org/2000/svg" xmlns:xlink="http://www.w3.org/1999/xlink" x="0px" y="0px"
	 viewBox="0 0 103 32" style="enable-background:new 0 0 103 32;" xml:space="preserve">
<style type="text/css">
	.st0{fill:#37A72E;}
	.st1{fill:url(#path24_1_);}
</style>
<g>
	<path id="Combined-Shape" class="st0" d="M9.5,2c0.9,0,3.7-0.3,4.8,3.7c0.8,2.6,2,6.9,3.7,12.9l0,0h0.7c1.8-6.3,3.1-10.6,3.8-12.9
		c1.2-4,4.1-3.7,5.3-3.7l9,0V30h-9.2V13.5H27L21.9,30H15L9.8,13.5H9.2V30H0V2L9.5,2z M50,2v16.6h0.7L57,4.9C58.2,2.2,60.8,2,60.8,2
		l0,0h8.9V30h-9.4V13.5h-0.7l-6.1,13.6c-1.2,2.7-3.9,2.9-3.9,2.9h-8.9V2H50z M102.2,15.3c-1.3,3.7-5.4,6.4-10,6.4l0,0h-9.9V30h-8.9
		V15.3H102.2z"/>
	
		<linearGradient id="path24_1_" gradientUnits="userSpaceOnUse" x1="-367.1331" y1="306.0168" x2="-367.4258" y2="306.0168" gradientTransform="matrix(102.6707 0 0 -39.6694 37796.8047 12147.2656)">
		<stop  offset="0" style="stop-color:#1F5CD7"/>
		<stop  offset="1" style="stop-color:#02AEFF"/>
	</linearGradient>
	<path id="path24" class="st1" d="M92.6,2H73c0.5,6.3,5.9,11.6,11.4,11.6h18.4C103.9,8.4,100.2,2,92.6,2z"/>
</g>
</svg>
