<?xml version="1.0" encoding="utf-8"?>
<!-- Generator: Adobe Illustrator 22.0.1, SVG Export Plug-In . SVG Version: 6.00 Build 0)  -->
<svg version="1.1" id="Слой_1" xmlns="http://www.w3.org/2000/svg" xmlns:xlink="http://www.w3.org/1999/xlink" x="0px" y="0px"
	 viewBox="0 0 103 32" style="enable-background:new 0 0 103 32;" xml:space="preserve">
<style type="text/css">
	.st0{fill:url(#SVGID_1_);}
	.st1{fill:#FFFFFF;}
	.st2{fill:url(#SVGID_2_);}
	.st3{fill:url(#SVGID_3_);}
</style>
<g>
	<linearGradient id="SVGID_1_" gradientUnits="userSpaceOnUse" x1="52.6962" y1="15.9807" x2="65.4531" y2="15.9807">
		<stop  offset="0" style="stop-color:#33B545"/>
		<stop  offset="1" style="stop-color:#2DCB42"/>
	</linearGradient>
	<polygon class="st0" points="53.6,0 53.6,6.1 65.5,6.1 65.5,9.9 56.4,9.9 56.4,14 64.1,14 64.1,17.8 56.4,17.8 56.4,22.1 
		65.5,22.1 65.5,25.8 53.6,25.8 53.6,32 52.7,32 52.7,0 	"/>
	<polygon class="st1" points="16.8,18.2 16.8,6.1 20.8,6.1 20.8,25.8 17.2,25.8 12.5,18.4 9.5,13.7 9.5,25.8 5.6,25.8 5.6,6.1 
		9.1,6.1 9.2,6.2 13.5,12.8 	"/>
	<polygon class="st1" points="23.1,25.8 23.1,6.1 36.1,6.1 36.1,9.9 27,9.9 27,14 34.8,14 34.8,17.8 27,17.8 27,22.1 36.1,22.1 
		36.1,25.8 23.1,25.8 	"/>
	<polygon class="st1" points="37.7,9.9 37.7,6.1 50.8,6.1 50.8,9.9 46.3,9.9 46.3,25.8 42.3,25.8 42.3,9.9 37.7,9.9 	"/>
	<linearGradient id="SVGID_2_" gradientUnits="userSpaceOnUse" x1="67.4456" y1="16.0125" x2="82.7075" y2="16.0125">
		<stop  offset="0" style="stop-color:#33B545"/>
		<stop  offset="1" style="stop-color:#2DCB42"/>
	</linearGradient>
	<polygon class="st2" points="78.7,18.2 78.7,6.2 82.7,6.2 82.7,25.8 79.1,25.8 74.4,18.5 71.4,13.8 71.4,25.8 67.4,25.8 67.4,6.2 
		71,6.2 71.1,6.3 75.4,12.9 78.7,18.2 	"/>
	<linearGradient id="SVGID_3_" gradientUnits="userSpaceOnUse" x1="84.3359" y1="16.0125" x2="97.4375" y2="16.0125">
		<stop  offset="0" style="stop-color:#33B545"/>
		<stop  offset="1" style="stop-color:#2DCB42"/>
	</linearGradient>
	<polygon class="st3" points="84.3,6.2 97.4,6.2 97.4,10 92.9,10 92.9,25.8 88.9,25.8 88.9,10 84.3,10 84.3,6.2 	"/>
</g>
</svg>
