<?xml version="1.0" encoding="utf-8"?>
<!-- Generator: Adobe Illustrator 22.0.1, SVG Export Plug-In . SVG Version: 6.00 Build 0)  -->
<svg version="1.1" id="Слой_1" xmlns="http://www.w3.org/2000/svg" xmlns:xlink="http://www.w3.org/1999/xlink" x="0px" y="0px"
	 viewBox="0 0 103 32" style="enable-background:new 0 0 103 32;" xml:space="preserve">
<style type="text/css">
	.st0{fill:#FFFFFF;}
	.st1{fill:#3E72EF;}
</style>
<g>
	<g>
		<path class="st0" d="M41.9,18.9c-0.5,0.9-1.1,1.6-1.9,2.1c-0.8,0.5-1.7,0.8-2.8,0.8c-1,0-1.9-0.3-2.8-0.8
			c-0.8-0.5-1.5-1.2-1.9-2.1c-0.5-0.9-0.7-1.8-0.7-2.9s0.2-2,0.7-2.9c0.5-0.9,1.1-1.6,1.9-2.1c0.8-0.5,1.7-0.8,2.8-0.8
			c1,0,1.9,0.3,2.8,0.8c0.8,0.5,1.5,1.2,1.9,2.1c0.5,0.9,0.7,1.8,0.7,2.9S42.4,18,41.9,18.9z M40.1,14.1c-0.3-0.6-0.7-1-1.2-1.4
			s-1.1-0.5-1.7-0.5c-0.6,0-1.2,0.2-1.7,0.5s-0.9,0.8-1.2,1.4c-0.3,0.6-0.4,1.2-0.4,1.9c0,0.7,0.1,1.4,0.4,1.9
			c0.3,0.6,0.7,1,1.2,1.4c0.5,0.3,1.1,0.5,1.7,0.5c0.6,0,1.2-0.2,1.7-0.5s0.9-0.8,1.2-1.4c0.3-0.6,0.4-1.2,0.4-1.9
			C40.6,15.3,40.4,14.7,40.1,14.1z"/>
		<path class="st0" d="M50.8,13.9c0.4,0.6,0.6,1.5,0.6,2.7v4.2c0,0.3-0.1,0.5-0.3,0.7c-0.2,0.2-0.4,0.3-0.7,0.3
			c-0.3,0-0.5-0.1-0.7-0.3c-0.2-0.2-0.3-0.4-0.3-0.7v-4.2c0-0.6-0.1-1-0.4-1.4c-0.2-0.3-0.7-0.5-1.3-0.5c-0.6,0-1.1,0.2-1.4,0.5
			c-0.3,0.4-0.5,0.8-0.5,1.3v4.2c0,0.3-0.1,0.5-0.3,0.7c-0.2,0.2-0.4,0.3-0.7,0.3s-0.5-0.1-0.7-0.3c-0.2-0.2-0.3-0.4-0.3-0.7v-6.9
			c0-0.3,0.1-0.5,0.3-0.7c0.2-0.2,0.4-0.3,0.7-0.3s0.5,0.1,0.7,0.3c0.2,0.2,0.3,0.4,0.3,0.7v0.4c0.3-0.4,0.7-0.7,1.1-1
			c0.5-0.3,1-0.4,1.5-0.4C49.6,12.9,50.4,13.3,50.8,13.9z"/>
		<path class="st0" d="M60.6,17.8c-0.2,0.2-0.4,0.2-0.7,0.2h-5.2c0.1,0.6,0.4,1.1,0.9,1.5c0.5,0.4,1,0.5,1.5,0.5c0.4,0,0.8,0,1-0.1
			c0.2-0.1,0.4-0.2,0.6-0.3c0.1-0.1,0.2-0.2,0.3-0.2c0.2-0.1,0.4-0.1,0.5-0.1c0.2,0,0.4,0.1,0.6,0.2c0.2,0.2,0.2,0.3,0.2,0.6
			c0,0.3-0.1,0.5-0.4,0.8c-0.3,0.2-0.7,0.4-1.2,0.6c-0.5,0.2-1,0.3-1.5,0.3c-0.9,0-1.7-0.2-2.3-0.6c-0.7-0.4-1.2-0.9-1.5-1.5
			s-0.5-1.4-0.5-2.2c0-0.9,0.2-1.7,0.6-2.4c0.4-0.7,0.9-1.2,1.5-1.6c0.6-0.4,1.3-0.5,2-0.5c0.7,0,1.4,0.2,2,0.6
			c0.6,0.4,1.1,0.9,1.5,1.5c0.4,0.6,0.6,1.3,0.6,2.1C60.9,17.4,60.8,17.6,60.6,17.8z M54.7,16.4h4.1v-0.1c0-0.4-0.3-0.8-0.6-1.1
			c-0.4-0.3-0.8-0.5-1.3-0.5C55.6,14.7,54.9,15.3,54.7,16.4z"/>
		<path class="st0" d="M69.5,10.5c0.2,0.2,0.3,0.4,0.3,0.7c0,0.3-0.1,0.5-0.3,0.7c-0.2,0.2-0.4,0.2-0.7,0.2h-2.5v8.7
			c0,0.3-0.1,0.5-0.3,0.7c-0.2,0.2-0.4,0.3-0.7,0.3s-0.5-0.1-0.7-0.3c-0.2-0.2-0.3-0.4-0.3-0.7v-8.7h-2.5c-0.3,0-0.5-0.1-0.7-0.3
			c-0.2-0.2-0.3-0.4-0.3-0.7c0-0.3,0.1-0.5,0.3-0.6c0.2-0.2,0.4-0.3,0.7-0.3h7C69,10.3,69.3,10.4,69.5,10.5z"/>
		<path class="st0" d="M76.6,19.6c-0.4,0.7-0.9,1.2-1.6,1.6c-0.7,0.4-1.4,0.6-2.2,0.6c-0.8,0-1.5-0.2-2.2-0.6
			c-0.7-0.4-1.2-0.9-1.6-1.6c-0.4-0.7-0.6-1.4-0.6-2.3c0-0.8,0.2-1.6,0.6-2.3c0.4-0.7,0.9-1.2,1.6-1.6c0.7-0.4,1.4-0.6,2.2-0.6
			c0.8,0,1.5,0.2,2.2,0.6c0.7,0.4,1.2,0.9,1.6,1.6c0.4,0.7,0.6,1.4,0.6,2.3C77.2,18.2,77,18.9,76.6,19.6z M75,16
			c-0.2-0.4-0.5-0.7-0.9-0.9c-0.4-0.2-0.8-0.3-1.2-0.3c-0.4,0-0.8,0.1-1.2,0.3S71,15.6,70.8,16c-0.2,0.4-0.3,0.9-0.3,1.4
			s0.1,1,0.3,1.4c0.2,0.4,0.5,0.7,0.9,0.9c0.4,0.2,0.8,0.3,1.2,0.3c0.4,0,0.8-0.1,1.2-0.3c0.4-0.2,0.7-0.5,0.9-0.9
			c0.2-0.4,0.3-0.9,0.3-1.4S75.2,16.4,75,16z"/>
		<path class="st0" d="M85.6,13.2c0.2,0.2,0.3,0.4,0.3,0.7v4.2c0,1.1-0.3,2-0.9,2.7c-0.6,0.6-1.5,1-2.7,1c-1.2,0-2.1-0.3-2.7-1
			c-0.6-0.6-0.9-1.5-0.9-2.7v-4.2c0-0.3,0.1-0.5,0.3-0.7c0.2-0.2,0.4-0.3,0.7-0.3c0.3,0,0.5,0.1,0.7,0.3c0.2,0.2,0.3,0.4,0.3,0.7
			v4.2c0,0.6,0.1,1.1,0.4,1.4c0.3,0.3,0.7,0.5,1.3,0.5c0.6,0,1-0.2,1.3-0.5c0.3-0.3,0.4-0.8,0.4-1.4v-4.2c0-0.3,0.1-0.5,0.3-0.7
			c0.2-0.2,0.4-0.3,0.7-0.3C85.2,13,85.4,13,85.6,13.2z"/>
		<path class="st0" d="M93.6,13.4c0.5,0.3,0.8,0.7,0.8,1.1c0,0.2-0.1,0.4-0.2,0.6s-0.3,0.3-0.5,0.3c-0.2,0-0.3,0-0.4-0.1
			c-0.1,0-0.2-0.1-0.3-0.2c-0.1-0.1-0.2-0.1-0.3-0.2c-0.1-0.1-0.3-0.1-0.5-0.1c-0.2,0-0.4-0.1-0.5-0.1c-0.8,0-1.4,0.2-1.9,0.7
			c-0.4,0.5-0.7,1.1-0.7,1.9c0,0.8,0.2,1.4,0.7,1.9c0.5,0.5,1,0.8,1.7,0.8c0.5,0,0.9-0.1,1.2-0.2c0.1,0,0.2-0.1,0.3-0.2
			c0.1-0.1,0.2-0.1,0.3-0.2c0.1,0,0.2-0.1,0.3-0.1c0.3,0,0.5,0.1,0.6,0.3s0.2,0.4,0.2,0.6c0,0.3-0.1,0.5-0.4,0.7s-0.7,0.4-1.2,0.5
			c-0.5,0.1-1,0.2-1.5,0.2c-0.8,0-1.5-0.2-2.1-0.6c-0.6-0.4-1.1-0.9-1.4-1.6c-0.3-0.7-0.5-1.4-0.5-2.2c0-0.9,0.2-1.6,0.5-2.3
			c0.4-0.7,0.8-1.2,1.5-1.6s1.4-0.6,2.2-0.6C92.3,12.9,93,13.1,93.6,13.4z"/>
		<path class="st0" d="M102.4,13.9c0.4,0.6,0.6,1.5,0.6,2.7v4.2c0,0.3-0.1,0.5-0.3,0.7c-0.2,0.2-0.4,0.3-0.7,0.3
			c-0.3,0-0.5-0.1-0.7-0.3s-0.3-0.4-0.3-0.7v-4.2c0-0.6-0.1-1-0.3-1.4c-0.2-0.3-0.6-0.5-1.2-0.5c-0.6,0-1.1,0.2-1.4,0.5
			c-0.3,0.4-0.5,0.8-0.5,1.3v4.2c0,0.3-0.1,0.5-0.3,0.7c-0.2,0.2-0.4,0.3-0.7,0.3c-0.3,0-0.5-0.1-0.7-0.3c-0.2-0.2-0.3-0.4-0.3-0.7
			v-9.5c0-0.3,0.1-0.5,0.3-0.7c0.2-0.2,0.4-0.3,0.7-0.3c0.3,0,0.5,0.1,0.7,0.3s0.3,0.4,0.3,0.7v3.1c0.3-0.4,0.6-0.7,1.1-1
			c0.4-0.3,0.9-0.4,1.5-0.4C101.3,12.9,102,13.3,102.4,13.9z"/>
	</g>
	<g>
		<path class="st1" d="M17.1,19.8c-0.4,0.3-0.5,0.9-0.1,1.3c0.3,0.4,0.9,0.5,1.3,0.1c1.6-1.3,2.5-3.3,2.5-5.3c0-3.8-3.1-6.9-6.9-6.9
			S6.9,12.1,6.9,16c0,2.1,0.9,4.1,2.6,5.4c0.4,0.3,1,0.3,1.3-0.1c0.3-0.4,0.3-1-0.1-1.3c-3.7-3-1.6-9,3.1-9
			C18.5,10.9,20.7,16.8,17.1,19.8z"/>
		<path class="st1" d="M19.9,24.5c2.6-1.9,4.3-5,4.3-8.5c0-0.5-0.4-0.9-0.9-0.9c-0.5,0-0.9,0.4-0.9,0.9c0,2.9-1.4,5.4-3.6,6.9
			c-0.4,0.3-0.5,0.9-0.2,1.3C18.9,24.7,19.5,24.8,19.9,24.5z"/>
		<path class="st1" d="M9.9,2.7C9.4,2.8,9.1,3.4,9.2,3.9s0.7,0.8,1.2,0.6C18,2.2,25.7,8,25.7,15.9c0,0.5,0.4,0.9,0.9,0.9
			c0.5,0,0.9-0.4,0.9-0.9C27.6,6.7,18.7,0.1,9.9,2.7z"/>
		<path class="st1" d="M20.4,7.9C13.7,2.3,3.4,7.2,3.4,16c0,5.8,4.7,10.5,10.5,10.5c0.5,0,0.9-0.4,0.9-0.9c0-0.5-0.4-0.9-0.9-0.9
			c-4.7,0-8.6-3.8-8.6-8.6c0-7.2,8.4-11.1,14-6.6c0.4,0.3,1,0.3,1.3-0.1C20.9,8.8,20.8,8.2,20.4,7.9z"/>
		<path class="st1" d="M0.9,15.1c-0.5,0-0.9,0.4-0.9,0.9c0,7.6,6.2,13.8,13.8,13.8c3.2,0,6.4-1.1,8.9-3.2c0.4-0.3,0.5-0.9,0.1-1.3
			s-0.9-0.5-1.3-0.1C19.4,27,16.6,28,13.8,28C7.3,28,1.9,22.6,1.9,16.1C1.9,15.5,1.5,15.1,0.9,15.1z"/>
	</g>
</g>
</svg>
