<svg width="33" height="33" viewBox="0 0 33 33" fill="none" xmlns="http://www.w3.org/2000/svg">
<path d="M10.0675 29.9044C9.6104 29.9036 9.16141 29.7838 8.76467 29.5568C7.8713 29.0505 7.31592 28.0678 7.31592 27.001V5.41121C7.31592 4.3414 7.8713 3.36167 8.76467 2.85543C9.17085 2.62199 9.63229 2.50194 10.1007 2.50784C10.5692 2.51373 11.0275 2.64535 11.4277 2.88893L29.8794 13.934C30.264 14.1751 30.581 14.5099 30.8008 14.9071C31.0205 15.3042 31.1358 15.7507 31.1358 16.2046C31.1358 16.6585 31.0205 17.105 30.8008 17.5021C30.581 17.8993 30.264 18.2341 29.8794 18.4753L11.4247 29.5233C11.0151 29.7708 10.5461 29.9026 10.0675 29.9044V29.9044Z" fill="white"/>
</svg>
