<?xml version="1.0" encoding="utf-8"?>
<!-- Generator: Adobe Illustrator 22.0.1, SVG Export Plug-In . SVG Version: 6.00 Build 0)  -->
<svg version="1.1" id="Слой_1" xmlns="http://www.w3.org/2000/svg" xmlns:xlink="http://www.w3.org/1999/xlink" x="0px" y="0px"
	 viewBox="0 0 103 32" style="enable-background:new 0 0 103 32;" xml:space="preserve">
<style type="text/css">
	.st0{fill:#FFFFFF;}
	.st1{fill:#00B7FF;}
	.st2{fill:#FF4200;}
</style>
<path class="st0" d="M56.1,8.4H7.4c-3.6,0-5,2.8-5.5,4.4L0.2,19c-0.2,0.8-0.2,1.7,0.1,2.5c0.5,1.3,1.7,2.5,4,2.5h47L56.1,8.4z"/>
<g>
	<path class="st1" d="M56.1,8.4H7.4c-3.6,0-5,2.8-5.5,4.4L0.2,19c-0.2,0.8-0.2,1.7,0.1,2.5c0.5,1.3,1.7,2.5,4,2.5h47L56.1,8.4z
		 M11.3,18.2H9l-0.8,2.4H5.7L8.8,11h4.8c1.3,0,2.2,1,1.7,2.4c0,0-0.6,1.8-0.9,2.5C13.6,18.3,11.3,18.2,11.3,18.2z M14,20.5l3.1-9.5
		v0h2.6l-2.3,7.1h2.3l0.8-2.4H23l-1.6,4.8H14z M29.7,20.5h-2.4l0.7-2.3l-2.3,0l-0.8,2.4h-2.5l2.4-7.3c0.4-1.2,1.7-2.3,3.3-2.3h2.4
		c1.3,0,2,1.1,1.7,2.4L29.7,20.5z M39.7,16c-0.4,1.1-1.6,2.2-3.2,2.2l-0.7,2.2h-2.5l0.7-2.2h0c-1.3,0-2-1.1-1.7-2.4l1.6-4.9h2.6
		l-1.5,4.8h2.2h0l1.7-4.8h2.5L39.7,16z M42.6,11.2h3.3l-1,2.9h-3.4L42.6,11.2z M50.5,20.5l-2.5,0l1.3-4.3l-2.3,0l-1.3,4.3l-2.6,0
		l1.4-4.5c0.4-1.2,1.7-2.3,3.3-2.3h2.4c1.3,0,2,1.1,1.7,2.4L50.5,20.5z"/>
	<polygon class="st1" points="9.7,15.8 12.1,15.8 12.9,13.4 10.5,13.4 	"/>
	<path class="st2" d="M91.3,4c0,0-4.1,0-5.6,0c-4.1-0.1-7.5,2.7-8.5,5.9l-2.9,9C71,26.7,75.1,28,77.9,28h4.7c3.5,0,7.3-2.5,8.3-5.7
		l3.9-12.3C95.9,7.2,94.2,4,91.3,4z M84.9,22.1h-5.5l3.8-11.9h5.5L84.9,22.1z"/>
	<polygon class="st1" points="26.4,15.8 28.8,15.8 28.8,15.8 29.5,13.4 27.2,13.4 	"/>
	<path class="st1" d="M98.7,8.4h-1.3l-4.9,15.6H95c3.2,0,5.5-1.8,6-4.5c0,0,1.5-4.7,1.9-6.5C103.4,10.6,102,8.4,98.7,8.4z"/>
	<path class="st2" d="M63.4,28h-4.7c-5.2-0.2-5.3-3.5-3.7-9.1l2.9-9c0.7-2.5,4.1-5.6,8.2-5.5c1.5,0,10.9,0,10.9,0l-1.7,5.7l-0.1,0.2
		H63.9l-1,3L61,19.1l-0.1,0.4L60,22.1H66l1-3h-3l1.9-5.9h8.5l-2.6,9C70.7,25.3,67.7,28,63.4,28z"/>
</g>
</svg>
