<?xml version="1.0" encoding="utf-8"?>
<!-- Generator: Adobe Illustrator 22.0.1, SVG Export Plug-In . SVG Version: 6.00 Build 0)  -->
<svg version="1.1" id="Слой_1" xmlns="http://www.w3.org/2000/svg" xmlns:xlink="http://www.w3.org/1999/xlink" x="0px" y="0px"
	 viewBox="0 0 103 32" style="enable-background:new 0 0 103 32;" xml:space="preserve">
<style type="text/css">
	.st0{fill:#F6931D;}
	.st1{fill:#FFFFFF;}
	.st2{fill:#8F8780;}
</style>
<g>
	<path class="st0" d="M77.3,10.5c-4.2-1.7-9-0.8-12.2,2.5c-3.2,3.2-4.1,8-2.4,12.2c1.8,4.2,5.9,6.9,10.4,6.8c6.1,0,11.1-5,11.1-11.2
		C84.2,16.3,81.4,12.2,77.3,10.5z M73.1,30.8L73.1,30.8L73.1,30.8c-5.5,0-9.9-4.5-9.9-10s4.4-9.9,9.9-10v0c5.5,0,10,4.5,10,10
		C83.1,26.4,78.6,30.8,73.1,30.8z"/>
	<path class="st0" d="M76.5,17c-3.8,0.2-5.3-4.3-1.9-4.5C78.2,12.2,80.2,16.7,76.5,17L76.5,17z"/>
	<path class="st0" d="M72.4,8.5c-1.9,0.1-3.8,0.6-5.4,1.6c-0.2-0.8-1.3-3.6-4-5.2c2,0.1,3.7,1.2,4.6,2.9c0,0-1.1-4.5-0.8-7.9
		c2.1,2.6,3.8,7,3.8,7c-0.2-2,0.6-3.9,2.2-5.1C71.4,4.8,72.2,7.8,72.4,8.5L72.4,8.5z"/>
	<polygon class="st1" points="87.9,20 87.7,18.7 87.2,20 86.9,20 86.5,18.7 86.2,20 85.9,20 86.2,18 86.6,18 87.1,19.4 87.5,18 
		87.9,18 88.3,20 87.9,20 	"/>
	<polygon class="st1" points="85.4,20 85,20 85,18.4 84.6,18.4 84.6,18 85.7,18 85.7,18.4 85.4,18.4 85.4,20 	"/>
	<polygon class="st1" points="80,23.6 78.9,23.6 78.9,21.2 77.2,17.9 78.4,17.9 79.5,20 80.5,17.9 81.7,17.9 80,21.2 80,23.6 	"/>
	<path class="st1" d="M75.8,17.9h-1.1l-2.2,5.7h1.1l0.5-1.2h2.4l0.5,1.2H78L75.8,17.9z M74.5,21.4l0.8-1.9v0l0.8,1.9H74.5z"/>
	<polygon class="st1" points="69.1,17.9 70.2,17.9 70.2,22.6 71.8,22.6 71.8,23.6 69.1,23.6 69.1,17.9 	"/>
	<path class="st1" d="M68.1,18.7c-0.2-0.3-0.4-0.4-0.7-0.6c-0.4-0.1-0.9-0.2-1.4-0.2H65v5.7h1.1v-2.4c0.4,0,0.8,0,1.2-0.1l0,0
		c0.3-0.1,0.6-0.3,0.9-0.5c0.2-0.3,0.3-0.6,0.3-1C68.4,19.3,68.3,19,68.1,18.7z M67.2,19.9c-0.1,0.1-0.2,0.2-0.3,0.2
		c-0.2,0-0.4,0.1-0.6,0.1h-0.3l0-1.2h0.3c0.2,0,0.5,0,0.7,0.1l0,0c0.2,0.1,0.3,0.3,0.3,0.5C67.3,19.7,67.3,19.8,67.2,19.9z"/>
	<path class="st1" d="M58.6,18.7c-1.1,0-2,0.8-2,1.9v0.1c0,0.4,0.1,0.7,0.3,1c0.2,0.3,0.4,0.5,0.7,0.7c0.3,0.2,0.7,0.3,1,0.3
		c0.3,0,0.6-0.1,0.9-0.2c0.3-0.2,0.6-0.4,0.9-0.7l0.8,0.8c-0.4,0.4-0.8,0.7-1.2,0.9c-0.4,0.2-0.9,0.3-1.3,0.2
		c-0.8,0-1.6-0.3-2.3-0.8c-1.2-1.2-1.2-3.1-0.1-4.3c0.2-0.2,0.5-0.4,0.7-0.6c0.5-0.3,1-0.4,1.6-0.4c1,0,1.9,0.4,2.6,1.2l-0.8,0.7
		C59.9,19.1,59.3,18.8,58.6,18.7L58.6,18.7L58.6,18.7z"/>
	<polygon class="st2" points="61.2,18.8 61.2,18.9 61.2,18.8 	"/>
	<polygon class="st1" points="53.4,17.8 54.6,17.8 54.6,23.6 53.4,23.6 53.4,17.8 	"/>
	<polygon class="st1" points="51.5,23.6 50.4,23.6 50.4,18.9 49.3,18.9 49.3,17.8 52.6,17.8 52.6,18.9 51.5,18.9 51.5,23.6 	"/>
	<path class="st1" d="M47.2,17.8H46l-2.3,5.8h1.2l0.5-1.2h2.4l0.5,1.2h1.2L47.2,17.8z M45.8,21.4l0.8-2l0.8,2H45.8z"/>
	<polygon class="st1" points="41.3,19.9 40.1,23.6 39.1,23.6 37.9,20 37.2,23.6 36.1,23.6 37.1,17.8 38.2,17.8 39.6,21.9 41,17.8 
		42.1,17.8 43.1,23.6 42,23.6 	"/>
	<path class="st1" d="M34.2,23.4c-0.5,0.2-1,0.4-1.5,0.4c-0.6,0-1.1-0.1-1.6-0.4c-0.5-0.3-0.9-0.7-1.1-1.1c-0.3-0.5-0.4-1-0.4-1.6
		c0-0.7,0.3-1.5,0.8-2c0.6-0.7,1.5-1,2.4-1c0.5,0,1,0.1,1.4,0.3c0.4,0.2,0.8,0.5,1.1,0.8l-0.8,0.8c-0.4-0.5-1.1-0.8-1.8-0.8
		c-0.5,0-1.1,0.2-1.5,0.6c-0.4,0.4-0.6,0.9-0.6,1.4c0,0.5,0.2,1.1,0.6,1.4c0.4,0.4,0.9,0.6,1.5,0.6c0.3,0,0.7-0.1,1-0.2
		c0.3-0.2,0.5-0.4,0.6-0.8h-1.7v-1h3v0.2C35.6,22,35.1,22.9,34.2,23.4L34.2,23.4z"/>
	<path class="st1" d="M27,17.8h-1.1l-2.3,5.8h1.2l0.5-1.2h2.4l0.5,1.2h1.2L27,17.8z M25.7,21.4l0.8-2l0.8,2H25.7z"/>
	<path class="st1" d="M21.6,21c0.3-0.1,0.6-0.3,0.9-0.6c0.2-0.3,0.3-0.6,0.3-1c0-0.3-0.1-0.7-0.3-0.9c-0.2-0.3-0.4-0.5-0.7-0.6
		c-0.5-0.1-0.9-0.2-1.4-0.2h-1.2v5.8h1.1v-2.5h0.1l1.3,2.5h1.2L21.6,21z M20.6,20.1h-0.3l0-1.2h0.3c0.2,0,0.4,0,0.6,0.1
		c0.2,0.1,0.4,0.3,0.4,0.5c0,0.2-0.1,0.4-0.2,0.5C21.1,20.1,20.9,20.1,20.6,20.1z"/>
	<path class="st1" d="M18,18.6c-0.2-0.3-0.4-0.5-0.7-0.6c-0.5-0.1-0.9-0.2-1.4-0.2h-1.2v5.8h1.1v-2.5c0.4,0,0.8,0,1.2-0.1h0
		c0.3-0.1,0.7-0.3,0.9-0.6c0.2-0.3,0.3-0.6,0.3-1C18.3,19.2,18.2,18.9,18,18.6z M17.1,19.8C17,19.9,16.9,20,16.8,20
		c-0.2,0-0.4,0.1-0.6,0.1h-0.3v-1.2h0.3c0.2,0,0.5,0,0.7,0.1h0c0.2,0.1,0.3,0.3,0.3,0.5C17.2,19.6,17.1,19.7,17.1,19.8z"/>
</g>
</svg>
