<?xml version="1.0" encoding="UTF-8"?>
<svg xmlns="http://www.w3.org/2000/svg" id="a" viewBox="0 0 310 425" width="310px" height="425px">
    <defs>
    <style>.e{fill:#f19021;}.w{fill:#ffffff;}</style>
    </defs>
    <path id="b" class="e" d="M174.513,154.017c-46.233,3.002-25.518,63.044,25.518,59.742,50.135-3.002,23.717-62.744-25.518-59.742Z"></path>
    <path id="c" class="e" d="M154.999,126.791c-82.258,0-148.605,66.647-148.605,148.605s66.647,148.605,148.605,148.605,148.605-66.647,148.605-148.605c.3-81.958-66.347-148.605-148.605-148.605Zm0,281.899c-73.552,0-132.994-59.442-132.994-132.994s59.442-132.994,132.994-132.994,132.994,59.442,132.994,132.994-59.442,132.994-132.994,132.994Zm-4.503-385.471c-35.425,26.719-29.121,67.548-29.121,67.548,0,0-22.216-57.641-51.036-92.765-3.903,45.332,10.207,105.374,10.207,105.374,0,0-18.013-37.226-62.144-39.328,36.626,21.015,51.036,59.142,54.038,69.349,21.915-13.51,46.833-21.015,72.651-21.915-3.002-9.607-13.209-49.535,5.404-88.262Z"></path>
    <path id="d" class="w" d="M54.128,290.106v31.222h-12.909v-80.156h27.319c9.307,0,16.211,2.101,20.715,6.605,4.803,4.503,6.905,10.507,6.905,18.013s-2.402,13.51-7.205,18.013-11.708,6.605-20.715,6.605l-14.11-.3h0Zm29.121-24.317c0-4.503-1.201-8.106-3.903-10.507-2.402-2.402-6.605-3.603-12.309-3.603h-12.909v27.92h12.909c10.808,0,16.211-4.503,16.211-13.81h0Zm35.425,45.332h27.619v10.207h-40.529v-80.156h12.909s0,69.949,0,69.949Zm87.061-7.205h-33.924l-6.004,17.412h-13.81l29.421-78.956h15.011l29.421,78.956h-13.81l-6.304-17.412h0Zm-3.903-9.907l-13.209-37.526-13.209,37.526h26.419Zm75.653-52.837l-26.719,51.036v29.121h-12.909v-29.121l-26.719-51.036h15.011l18.313,37.226,18.313-37.226h14.71Z"></path>
</svg>