<?xml version="1.0" encoding="utf-8"?>
<!-- Generator: Adobe Illustrator 22.0.1, SVG Export Plug-In . SVG Version: 6.00 Build 0)  -->
<svg version="1.1" id="Слой_1" xmlns="http://www.w3.org/2000/svg" xmlns:xlink="http://www.w3.org/1999/xlink" x="0px" y="0px"
	 viewBox="0 0 103 32" style="enable-background:new 0 0 103 32;" xml:space="preserve">
<style type="text/css">
	.st0{fill:url(#SVGID_1_);}
	.st1{fill:#FFFFFF;}
	.st2{fill:url(#SVGID_2_);}
	.st3{fill:url(#SVGID_3_);}
	.st4{fill:url(#SVGID_4_);}
	.st5{fill:url(#SVGID_5_);}
	.st6{fill:url(#SVGID_6_);}
	.st7{fill:url(#SVGID_7_);}
	.st8{fill:url(#SVGID_8_);}
</style>
<g>
	
		<linearGradient id="SVGID_1_" gradientUnits="userSpaceOnUse" x1="94.0381" y1="15.9974" x2="102.9274" y2="15.9974" gradientTransform="matrix(1 0 0 -1 0 30.7244)">
		<stop  offset="0" style="stop-color:#FF1843"/>
		<stop  offset="1" style="stop-color:#910055"/>
	</linearGradient>
	<path class="st0" d="M102.4,11.7c0,1-0.5,2-1.3,2.6c1.2,0.6,2,1.8,2,3.1c0,2.3-1.7,3.7-4.5,3.7c-2.7,0-4.4-1.4-4.4-3.6
		c0-1.4,0.8-2.6,2.1-3.2c-0.9-0.6-1.5-1.6-1.5-2.7c0-2,1.5-3.2,3.9-3.2C100.9,8.4,102.4,9.7,102.4,11.7z M96.6,17.2
		c0,1,0.7,1.7,1.8,1.7s1.8-0.6,1.8-1.7s-0.7-1.6-1.8-1.6S96.6,16.1,96.6,17.2z M96.9,11.9c0,0.9,0.6,1.4,1.6,1.4
		c1,0,1.5-0.5,1.5-1.4c0-0.9-0.6-1.5-1.5-1.5C97.5,10.4,96.9,11,96.9,11.9z"/>
	<path class="st1" d="M72.8,26.2V30H72v-3.8h-1.4v-0.7h3.6v0.7H72.8z"/>
	<path class="st1" d="M80.8,28.1c0,1.2-0.7,1.9-2,1.9c-1.2,0-2-0.7-2-1.9v-2.6h0.8v2.6c0,0.6,0.4,1.2,1,1.2h0.2c0.6,0,1.2-0.4,1.2-1
		c0,0,0-0.1,0-0.2v-2.6h0.8V28.1z"/>
	<path class="st1" d="M85.1,25.5c1.2,0,2.3,0.9,2.3,2.2S86.5,30,85.2,30c0,0-0.1,0-0.2,0h-1.9v-4.5L85.1,25.5z M84,29.3h1.1
		c0.8,0,1.5-0.6,1.5-1.5c0,0,0,0,0-0.1c0-0.9-0.7-1.6-1.5-1.6c0,0,0,0-0.1,0H84V29.3z"/>
	<path class="st1" d="M89.7,30v-4.5h0.8V30H89.7z"/>
	<path class="st1" d="M98,27.8c0,1.3-1,2.4-2.3,2.5c-1.3,0-2.4-1-2.5-2.3c0-1.3,1-2.4,2.3-2.5h0.1C96.9,25.5,97.9,26.5,98,27.8z
		 M94,27.8c0,0.9,0.7,1.6,1.6,1.6s1.6-0.7,1.6-1.6s-0.7-1.6-1.6-1.6S94,26.9,94,27.8z"/>
	<path class="st1" d="M67.8,27.4c-0.2,0-0.4-0.1-0.7-0.2c-0.1-0.1-0.3-0.2-0.3-0.4c0-0.1,0-0.2,0-0.3l0,0c0.1-0.1,0.2-0.2,0.4-0.2h0
		c0.4,0,0.9,0.1,1.2,0.4v-0.8c-0.4-0.1-0.8-0.2-1.2-0.2c-1,0-1.4,0.5-1.4,1.3v0.1c0,0.4,0.3,0.8,0.7,1l0.1,0l0.1,0l0.1,0
		c0.6,0.2,1.2,0.3,1.2,0.8c0,0.3-0.3,0.5-0.9,0.5c-0.5,0-1-0.2-1.3-0.5v0.9c0.4,0.2,0.9,0.4,1.3,0.4c1,0,1.7-0.5,1.7-1.3
		C69,27.9,68.4,27.6,67.8,27.4L67.8,27.4z"/>
	<path class="st1" d="M101.8,27.4c-0.2,0-0.4-0.1-0.7-0.2c-0.1-0.1-0.3-0.2-0.3-0.4c0-0.1,0-0.2,0-0.3l0,0c0.1-0.1,0.2-0.2,0.4-0.2
		h0c0.4,0,0.9,0.1,1.2,0.4v-0.8c-0.4-0.1-0.8-0.2-1.2-0.2c-1,0-1.4,0.5-1.4,1.3v0.1c0,0.4,0.3,0.8,0.7,1l0.1,0l0.1,0l0.1,0
		c0.6,0.2,1.2,0.3,1.2,0.8c0,0.3-0.3,0.5-0.9,0.5c-0.5,0-1-0.2-1.4-0.5v0.9c0.4,0.2,0.9,0.4,1.3,0.4c1,0,1.7-0.5,1.7-1.3
		C103.1,27.9,102.5,27.6,101.8,27.4L101.8,27.4z"/>
	<g>
		
			<linearGradient id="SVGID_2_" gradientUnits="userSpaceOnUse" x1="-0.5124" y1="19.5268" x2="34.5234" y2="16.6355" gradientTransform="matrix(1 0 0 -1 0 30.7244)">
			<stop  offset="0" style="stop-color:#FF1843"/>
			<stop  offset="1" style="stop-color:#910055"/>
		</linearGradient>
		<path class="st2" d="M24,1.8c0,0-4.6-3.5-12.6,0S1.2,11.6,1.2,11.6s0.4-0.5,1.4-1.2c0,0-2.5,2.4-2.6,7c0,0,0.2-1,0.5-1.4
			c0,0,0,10.2,15.8,8.6c0,0-4.2-0.4-8.4-2.3c0,0,1.2,1,1.2,0.9l0-0.1c0,0-9.8-3-3-13.3c0,0,3.9-5,5.6-5.9l-0.6,0.9
			C11,4.8,17.2-0.2,24,1.8z"/>
		
			<linearGradient id="SVGID_3_" gradientUnits="userSpaceOnUse" x1="-0.8537" y1="15.3968" x2="34.182" y2="12.5055" gradientTransform="matrix(1 0 0 -1 0 30.7244)">
			<stop  offset="0" style="stop-color:#FF1843"/>
			<stop  offset="1" style="stop-color:#910055"/>
		</linearGradient>
		<path class="st3" d="M8.1,21.2c0,0,1.5-8,10.5-10.5c0,0-9.9,5.1-7.7,11.9L8.1,21.2z"/>
		
			<linearGradient id="SVGID_4_" gradientUnits="userSpaceOnUse" x1="1.595098e-02" y1="25.9252" x2="35.0517" y2="23.034" gradientTransform="matrix(1 0 0 -1 0 30.7244)">
			<stop  offset="0" style="stop-color:#FF1843"/>
			<stop  offset="1" style="stop-color:#910055"/>
		</linearGradient>
		<path class="st4" d="M9.1,8.4c0,0,5.6-6.6,13.4-6.1c0,0,5,0.8,1.2,4.8c-1.9,1.7-4.2,2.9-6.7,3.5c0,0,5.2-2.5,5.6-5.9
			c0,0,0-2-2-1.7c0,0,0.8,0.2,0.9,0.4C21.8,3.5,15.7,2.2,9.1,8.4z"/>
		
			<linearGradient id="SVGID_5_" gradientUnits="userSpaceOnUse" x1="-1.4204" y1="8.521" x2="33.6153" y2="5.6297" gradientTransform="matrix(1 0 0 -1 0 30.7244)">
			<stop  offset="0" style="stop-color:#D11E49"/>
			<stop  offset="1" style="stop-color:#A21E4D"/>
		</linearGradient>
		<path class="st5" d="M26.6,24.4l-0.2,0.2C26.5,24.6,26.6,24.5,26.6,24.4z"/>
		
			<linearGradient id="SVGID_6_" gradientUnits="userSpaceOnUse" x1="-1.384" y1="8.9707" x2="33.6518" y2="6.0795" gradientTransform="matrix(1 0 0 -1 0 30.7244)">
			<stop  offset="0" style="stop-color:#FF1843"/>
			<stop  offset="1" style="stop-color:#910055"/>
		</linearGradient>
		<path class="st6" d="M26.6,15.9c2.3,4.8-1,8.6-1,8.6c0.5-0.1,1.9-1.9,1.9-1.9s0.1,0.7-1,1.8c0,0-0.1,0.1-0.2,0.2
			c-3.5,3.3-7,3.2-7,3.2c-3.9,0.1-7.2-2.5-7.2-2.5c-1,0.1-4-0.5-4-0.5c0.7,2.1,2.2,3.9,4.2,4.8c3.3,1.8,7.6,0.9,7.6,0.9
			c-0.5,0.7-1.7,1.1-1.7,1.1c3.5-0.2,5.6-1.6,5.6-1.6c-0.1,0.3-1.4,1.8-1.4,1.8s4.8-1.2,6.8-7.4S26.6,15.9,26.6,15.9z"/>
		
			<linearGradient id="SVGID_7_" gradientUnits="userSpaceOnUse" x1="-0.9831" y1="13.8255" x2="34.0527" y2="10.9342" gradientTransform="matrix(1 0 0 -1 0 30.7244)">
			<stop  offset="0" style="stop-color:#FF1843"/>
			<stop  offset="1" style="stop-color:#910055"/>
		</linearGradient>
		<path class="st7" d="M30.3,16.1c0.6,0.2,1.9,2.1,1.9,2.1c-1.4-3.6-5-4.7-5.3-4.8c0.2,0,1.6-0.2,2.9-1.2c0.8-0.6,1.2-1.4,1.4-2.3
			c-0.7,1.2-2,2.1-3.4,2.2c-0.9,0.1-1.7,0.2-2.6,0.4c0.2-0.4,1.6-0.9,1.6-0.9c1.1-0.4,1.5-0.9,1.7-1.1c0.1-0.1,0.1-0.2,0.2-0.2
			c0.4-0.5,0.8-1.1,1-1.7c-0.6,1.2-2.7,2.2-4,2.7c-0.4,0.1-0.9,0.3-1.4,0.4c-1.8,0.5-2.5,1.8-2.5,1.8c-0.3-1,2.4-2.3,2.4-2.3
			c2.1-1.9,0.1-2.7,0.1-2.7s1.1,1,0,1.9s-1.6,0.8-3,1.8c-1.4,1-1.4,2.4-1.4,2.4c-1.2-0.1-0.9,1.3-0.9,1.3c-1.1,0-2.3,1.2-2.3,1.2
			c-0.3,0.2-0.8,0-0.8,0c0.1,2.1,2.4,2,2.4,2c-0.3-0.1-0.3-0.5-0.3-0.7c0,0,0-0.1,0.1-0.1c0.7,0.1,1-0.2,1-0.4c0,0,0,0,0.1,0
			l0.5,0.1c0,0,0.1,0,0.1-0.1l0.4-1c0,0,0.1-0.1,0.1-0.1c0.6,0,1.3-0.5,1.8-0.7c0,0,0.1,0,0.1,0v0.1c-0.2,0.6-0.8,2-1.1,2.9
			c-0.4,1.2-1.3,0.9-1.3,0.9c0.3,0.8,1.7,1.8,2.1,0.2c0.4-1.6,3-3.7,3-3.7c0.5,0,0.9,0.8,0.9,0.8c0-1.8-0.9-2.1-0.9-2.1
			c7.4,0.8,5.4,9.1,5.4,9.1c-1.2,1.8-1.6,4-1.2,6c0,0-0.2-3.1,1.4-5.3c1.6-2.2,1.1-3.4,1.3-2.9c0.3,0.4,0.2,1.5,0.2,1.5
			C33.6,19.1,30.3,16.1,30.3,16.1L30.3,16.1z M21.5,15.5c0,0.1-0.2,0.1-0.3,0.1c-0.2,0-0.7,0-0.9-0.2c0,0,0-0.1,0-0.2c0,0,0,0,0,0
			c0.2,0,0.8-0.3,1.8-1.1h0.3L21.5,15.5z"/>
		
			<linearGradient id="SVGID_8_" gradientUnits="userSpaceOnUse" x1="-1.0359" y1="13.177" x2="33.9998" y2="10.2857" gradientTransform="matrix(1 0 0 -1 0 30.7244)">
			<stop  offset="0" style="stop-color:#FF1843"/>
			<stop  offset="1" style="stop-color:#910055"/>
		</linearGradient>
		<path class="st8" d="M20.9,18c0.1-0.2,0-0.6,0-0.6c-0.2,0.8-0.8,1.5-1.6,1.8c-0.1,0-0.3,0.1-0.4,0.2c-1.5,0.8-1.4,1.7-1.4,1.7
			c0-0.2,0.3-0.4,0.5-0.6c0.3-0.2,0.6-0.4,1-0.5c0.4-0.2,0.9-0.4,1.2-0.7c0.1,0,0.2-0.1,0.3-0.2c0.8-0.4,0.9-1.8,0.9-1.8
			C21.1,17.8,20.9,18,20.9,18z"/>
	</g>
	<path class="st1" d="M39.2,8.9c3,0,4.7,1.5,4.7,4.1c0,2.8-1.7,4.3-4.7,4.3h-1.6v3.3h-3V8.9L39.2,8.9z M37.6,14.9H39
		c1.3,0,2.1-0.6,2.1-1.9s-0.7-1.8-2.1-1.8h-1.4V14.9z"/>
	<path class="st1" d="M56.1,15.6c0,3.1-2,5.1-5.1,5.1c-3.1,0-5.1-2-5.1-5.1V8.9h2.8v6.8c0,1.6,1,2.5,2.3,2.5s2.2-1,2.2-2.5V8.9h2.8
		V15.6z"/>
	<path class="st1" d="M67.1,18v2.5h-7.9V8.9h3V18H67.1z"/>
	<path class="st1" d="M82.9,11.2v2.3h4.5v2.4h-4.5v2.4h5.3v2.4h-8.3V8.9h8.2v2.4L82.9,11.2L82.9,11.2z"/>
	<path class="st1" d="M74.2,13.7l-0.8-0.2c-0.7-0.2-1.3-0.6-1.3-1.2s0.5-1,1.3-1h0.2c0.9,0.1,1.8,0.3,2.7,0.7l0.2,0.1V9.3
		c-0.7-0.2-1.5-0.4-2.3-0.5c-0.2,0-0.3,0-0.5,0C71,8.8,69,10,69,12.4c0,2.1,1.6,2.9,3.1,3.4l0.8,0.2c0.7,0.2,1.3,0.6,1.3,1.2
		s-0.5,1-1.3,1h-0.2c-0.9-0.1-1.9-0.3-2.7-0.7c-0.2-0.1-0.5-0.2-0.6-0.3v2.8c0.9,0.3,1.8,0.6,2.8,0.6h0.5c2.6,0,4.7-1.3,4.7-3.6
		C77.2,14.9,75.7,14.2,74.2,13.7z"/>
</g>
</svg>
