<?xml version="1.0" encoding="utf-8"?>
<!-- Generator: Adobe Illustrator 22.0.1, SVG Export Plug-In . SVG Version: 6.00 Build 0)  -->
<svg version="1.1" id="Слой_1" xmlns="http://www.w3.org/2000/svg" xmlns:xlink="http://www.w3.org/1999/xlink" x="0px" y="0px"
	 viewBox="0 0 103 32" style="enable-background:new 0 0 103 32;" xml:space="preserve">
<style type="text/css">
	.st0{fill:#FFFFFF;}
	.st1{fill:#F23929;}
</style>
<g>
	<path class="st0" d="M31.9,2.8C31.4,2,30.7,1.4,29.8,1C29,0.7,27.7,0.5,26,0.5l-0.4,0h0h-3.6v18h3.4v-7.6c1.8,0,3-0.1,3.6-0.3
		c1.1-0.3,2-0.9,2.7-1.7c0.7-0.8,1-1.9,1-3.1C32.7,4.6,32.4,3.6,31.9,2.8z M29,6.7c-0.2,0.3-0.5,0.5-0.8,0.6
		c-0.3,0.1-0.9,0.2-1.8,0.2h-1.1V3.8h1c1.1,0,1.8,0.1,2.2,0.4c0.5,0.3,0.8,0.8,0.8,1.5C29.3,6.1,29.2,6.5,29,6.7z"/>
	<path class="st0" d="M42,19c1,0,1.9-0.2,2.6-0.5c0.8-0.3,1.5-0.8,2-1.5c0.6-0.7,1-1.3,1.2-2c0.2-0.7,0.3-2,0.3-3.8V0.5h-3.4v11.3
		c0,1.2-0.1,2-0.3,2.5c-0.2,0.4-0.5,0.8-0.9,1.1c-0.4,0.3-1,0.4-1.6,0.4c-0.6,0-1.1-0.1-1.5-0.4c-0.4-0.2-0.7-0.6-0.9-1
		c-0.2-0.4-0.3-1.1-0.3-2.1V0.5h-3.4v10.8c0,2.1,0.2,3.7,0.6,4.6c0.4,0.9,1.1,1.7,2.1,2.3S40.7,19,42,19L42,19z"/>
	<path class="st0" d="M56.3,19c1.6,0,3-0.5,4-1.4c1-1,1.5-2.2,1.5-3.7c0-0.7-0.1-1.4-0.4-2.1c-0.3-0.6-0.8-1.3-1.5-2
		c-0.3-0.3-1.1-1-2.4-2.1c-1.4-1.2-2.2-2-2.5-2.3c-0.2-0.2-0.3-0.5-0.3-0.9c0-0.3,0.1-0.6,0.4-0.8c0.3-0.2,0.7-0.4,1.1-0.4
		c0.9,0,1.8,0.6,2.7,1.9l2.5-2.2c-0.9-1.1-1.8-1.9-2.6-2.3C58.1,0.2,57.2,0,56.3,0c-1.4,0-2.6,0.4-3.5,1.3c-1,0.9-1.4,2-1.4,3.2
		c0,0.9,0.3,1.7,0.9,2.6c0.6,0.9,1.8,2.1,3.8,3.7c1,0.8,1.7,1.5,2,1.9c0.3,0.4,0.5,0.8,0.5,1.2c0,0.5-0.2,0.8-0.6,1.2
		c-0.4,0.3-0.9,0.5-1.5,0.5c-1.1,0-2.1-0.8-3-2.4l-2.9,1.7c0.7,1.3,1.5,2.3,2.4,3C53.9,18.7,55.1,19,56.3,19z"/>
	<polygon class="st0" points="68.6,18.5 68.6,10.6 74.7,10.6 74.7,18.5 78.2,18.5 78.2,0.5 74.7,0.5 74.7,7.3 68.6,7.3 68.6,0.5 
		65.2,0.5 65.2,18.5 	"/>
	<path class="st1" d="M26.8,32c0.9,0,1.7-0.2,2.4-0.6c0.7-0.4,1.2-1,1.6-1.7c0.4-0.7,0.6-1.5,0.6-2.3l0-0.4h-4.7v1.7h2.7
		c-0.3,0.5-0.6,0.9-1,1.2c-0.4,0.3-0.9,0.4-1.5,0.4c-0.9,0-1.7-0.3-2.4-0.9c-0.6-0.6-1-1.4-1-2.3c0-0.9,0.3-1.6,0.9-2.2
		c0.6-0.6,1.4-0.9,2.3-0.9c1,0,2,0.4,2.8,1.2l1.2-1.2c-0.6-0.6-1.1-1-1.7-1.3c-0.7-0.3-1.5-0.5-2.3-0.4c-1.5,0-2.8,0.5-3.8,1.6
		c-0.8,0.9-1.2,2-1.2,3.2c0,0.9,0.2,1.7,0.7,2.5c0.4,0.8,1,1.4,1.8,1.8C25,31.8,25.8,32,26.8,32z"/>
	<path class="st1" d="M37.7,22.5h-1.8l-3.6,9.3h1.8l0.8-1.9h3.8l0.7,1.9h1.8L37.7,22.5z M35.6,28.1l1.2-3.2l1.2,3.2H35.6z"/>
	<polygon class="st1" points="43.6,31.8 44.6,25.9 46.6,31.8 48.2,31.8 50.1,25.9 51.1,31.8 52.8,31.8 51.3,22.5 49.6,22.5 47.4,29 
		45.2,22.5 43.5,22.5 41.9,31.8 	"/>
	<polygon class="st1" points="55.9,31.8 55.9,22.5 54.1,22.5 54.1,31.8 55.9,31.8 	"/>
	<polygon class="st1" points="59.6,31.8 59.6,25.7 63.6,31.8 65.3,31.8 65.3,22.5 63.5,22.5 63.5,28.6 59.6,22.5 57.9,22.5 
		57.9,31.8 	"/>
	<path class="st1" d="M72,32c0.9,0,1.7-0.2,2.4-0.6c0.7-0.4,1.2-1,1.6-1.7c0.4-0.7,0.6-1.5,0.6-2.3l0-0.4H72v1.7h2.7
		c-0.3,0.5-0.6,0.9-1,1.2c-0.4,0.3-0.9,0.4-1.5,0.4c-0.9,0-1.7-0.3-2.4-0.9c-0.6-0.6-1-1.4-1-2.3c0-0.9,0.3-1.6,0.9-2.2
		c0.6-0.6,1.4-0.9,2.3-0.9c1,0,2,0.4,2.8,1.2L76,24c-0.6-0.6-1.1-1-1.7-1.3c-0.7-0.3-1.5-0.5-2.3-0.4c-1.5,0-2.8,0.5-3.8,1.6
		c-0.8,0.9-1.2,2-1.2,3.2c0,0.9,0.2,1.7,0.7,2.5c0.4,0.8,1,1.4,1.8,1.8C70.2,31.8,71.1,32,72,32z"/>
	<polygon class="st0" points="78.2,24.3 78.2,22.6 78.6,22.6 78.6,22.2 77.5,22.2 77.5,22.6 77.8,22.6 77.8,24.3 78.2,24.3 	"/>
	<polygon class="st0" points="79.1,24.3 79.4,23 79.8,24.3 80.2,24.3 80.6,23 80.8,24.3 81.2,24.3 80.9,22.2 80.5,22.2 80,23.7 
		79.5,22.2 79.1,22.2 78.7,24.3 	"/>
</g>
</svg>
