<?xml version="1.0" encoding="utf-8"?>
<!-- Generator: Adobe Illustrator 22.0.1, SVG Export Plug-In . SVG Version: 6.00 Build 0)  -->
<svg version="1.1" id="Слой_1" xmlns="http://www.w3.org/2000/svg" xmlns:xlink="http://www.w3.org/1999/xlink" x="0px" y="0px"
	 viewBox="0 0 103 32" style="enable-background:new 0 0 103 32;" xml:space="preserve">
<style type="text/css">
	.st0{fill:#FF8224;}
</style>
<g>
	<path class="st0" d="M75.3,8.6h-1.6c-0.9,0-1.6-0.7-1.6-1.6s0.7-1.6,1.6-1.6h5.2c2.3,0,4.1,2.8,4.1,6.2c0,3.4-1.8,6.2-4.1,6.2h-5.2
		c-0.9,0-1.6-0.7-1.6-1.6s0.7-1.6,1.6-1.6h5c0.8,0,1.5-1.4,1.5-3.1c0-1.7-0.7-3-1.5-3.1C78.7,8.6,75.3,8.6,75.3,8.6z M7.8,10.6
		L7.8,10.6l0-0.4c0-0.9-1-1.6-2.3-1.6s-2.3,0.7-2.3,1.6v0.4h0c0,0.9-0.8,1.5-1.7,1.5C0.7,12,0,11.4,0,10.6h0c0,0.5,0,0.3,0-0.5
		c0-2.6,2.5-4.6,5.5-4.6c3,0,5.5,2.1,5.5,4.6v0.5h0c0,0.9-0.8,1.5-1.7,1.5C8.5,12,7.9,11.4,7.8,10.6L7.8,10.6z M11,12v8.2
		c-0.4-0.4-1-0.7-1.6-0.7c-0.6,0-1.2,0.3-1.6,0.7V12c0.4,0.4,1,0.7,1.6,0.7C10,12.7,10.6,12.4,11,12z M3.2,12v8.2
		c-0.4-0.4-1-0.7-1.6-0.7c-0.6,0-1.2,0.3-1.6,0.7V12c0.4,0.4,1,0.7,1.6,0.7C2.2,12.7,2.8,12.4,3.2,12z M9.6,25.3L11,28
		c0.2,0.4-0.2,1.1-1,1.5c-0.8,0.4-1.6,0.4-1.8-0.1l-1.4-2.7c-0.4,0.1-0.8,0.1-1.2,0.1c-3,0-5.5-2.1-5.5-4.6c0-0.8,0-1,0-0.5h0
		c0-0.9,0.8-1.5,1.7-1.5c0.8,0,1.4,0.7,1.5,1.5V22c0,0.9,1.1,1.6,2.3,1.6s2.3-0.7,2.3-1.6v-0.4h0c0-0.9,0.8-1.5,1.7-1.5
		c0.8,0,1.4,0.7,1.5,1.5v0.5C11,23.4,10.5,24.5,9.6,25.3L9.6,25.3z M16.8,7v13.2c-0.4-0.4-1-0.7-1.6-0.7c-0.6,0-1.2,0.3-1.6,0.7V7v0
		c0-0.9,0.7-1.6,1.5-1.6s1.6,0.7,1.6,1.5C16.8,6.9,16.8,7,16.8,7L16.8,7z M53,15.3l5,9.9c0.2,0.4-0.2,1.1-1,1.5
		c-0.8,0.4-1.6,0.4-1.8-0.1L51,18.2C51,18.2,53,15.3,53,15.3z M57.8,7.2l-8.8,12.7h0c-0.4,0.5-1.2,0.5-1.9,0c-0.7-0.5-1-1.3-0.7-1.8
		v0l8.8-12.8C55.6,5,56.4,5,57.1,5.5C57.8,6,58.2,6.7,57.8,7.2C57.9,7.2,57.9,7.2,57.8,7.2z M24.6,7v13.2c-0.4-0.4-1-0.7-1.6-0.7
		c-0.6,0-1.2,0.3-1.6,0.7V7v0c0-0.9,0.7-1.6,1.5-1.6c0.9,0,1.6,0.7,1.6,1.5C24.6,6.9,24.6,7,24.6,7z M27.5,25.2V7v0
		c0-0.9,0.7-1.6,1.5-1.6c0.9,0,1.6,0.7,1.6,1.5c0,0,0,0.1,0,0.1v18.2c0,0.9-0.7,1.6-1.5,1.6c-0.9,0-1.6-0.7-1.6-1.5
		C27.5,25.3,27.5,25.3,27.5,25.2z M85.2,25.2V7v0c0-0.9,0.7-1.6,1.5-1.6c0.9,0,1.6,0.7,1.6,1.5c0,0,0,0.1,0,0.1v18.2
		c0,0.9-0.7,1.6-1.5,1.6c-0.9,0-1.6-0.7-1.6-1.5C85.1,25.3,85.1,25.3,85.2,25.2z M90.7,8.7l3.2,6.3v10.2c0,0.9-0.7,1.6-1.5,1.6
		s-1.6-0.7-1.6-1.5c0,0,0-0.1,0-0.1C90.7,25.2,90.7,8.7,90.7,8.7z M99.8,17.4V7.1v0c0-0.9,0.7-1.6,1.5-1.6c0.9,0,1.6,0.7,1.6,1.5
		c0,0,0,0.1,0,0.1v16.6C102.9,23.7,99.8,17.4,99.8,17.4z M100,26L100,26L90.9,7.8l0,0C90.5,7,90.7,6,91.5,5.6s1.7-0.1,2.1,0.6
		c0,0,0,0.1,0.1,0.1l9.1,18.2l0,0.1c0.4,0.8,0.1,1.7-0.6,2.1c-0.8,0.4-1.7,0.1-2.1-0.6C100,26.1,100,26,100,26z M75.3,14.1h-1.6
		c-0.6,0-1.2,0.3-1.6,0.7V8.5c0.4,0.4,1,0.7,1.6,0.7h1.6L75.3,14.1L75.3,14.1z M75.3,18.5v6.7c0,0.9-0.7,1.6-1.5,1.6
		c-0.9,0-1.6-0.7-1.6-1.5c0,0,0-0.1,0-0.1v-7.4c0.4,0.4,1,0.7,1.6,0.7L75.3,18.5L75.3,18.5z M46.4,20c0.4,0.5,1.1,0.8,1.8,0.8
		c0.5,0,1-0.1,1.3-0.4v4.8c0,0.9-0.7,1.6-1.5,1.6c-0.9,0-1.6-0.7-1.6-1.5c0,0,0-0.1,0-0.1C46.4,25.2,46.4,20,46.4,20z M46.4,17.1V7
		v0c0-0.9,0.7-1.6,1.5-1.6c0.9,0,1.6,0.7,1.6,1.5c0,0,0,0.1,0,0.1v5.5L46.4,17.1L46.4,17.1z M21.5,21.6c0-0.9,0.8-1.5,1.7-1.5
		c0.8,0,1.4,0.7,1.5,1.5h0v0.5c0,2.6-2.5,4.6-5.5,4.6c-3,0-5.5-2.1-5.5-4.6c0-0.8,0-1,0-0.5h0c0-0.9,0.8-1.5,1.7-1.5
		c0.8,0,1.4,0.7,1.5,1.5h0V22c0,0.9,1.1,1.6,2.3,1.6s2.3-0.7,2.3-1.6L21.5,21.6C21.5,21.6,21.5,21.6,21.5,21.6z M41.3,10.6
		L41.3,10.6l0-0.4c0-0.9-1-1.6-2.3-1.6c-1.3,0-2.3,0.7-2.3,1.6v0.4h0c-0.1,0.9-0.8,1.5-1.7,1.5c-0.8,0-1.4-0.7-1.5-1.5h0
		c0,0.5,0,0.3,0-0.5c0-2.6,2.5-4.6,5.5-4.6s5.5,2.1,5.5,4.6v0.5h0c0,0.9-0.8,1.5-1.7,1.5C42,12,41.3,11.4,41.3,10.6z M36.6,12v8.2
		c-0.4-0.4-1-0.7-1.6-0.7c-0.6,0-1.2,0.3-1.6,0.7V12c0.4,0.4,1,0.7,1.6,0.7S36.2,12.4,36.6,12z M41.3,21.6c0-0.9,0.8-1.5,1.7-1.5
		c0.8,0,1.4,0.7,1.5,1.5h0v0.5c0,2.6-2.5,4.6-5.5,4.6c-3,0-5.5-2.1-5.5-4.6c0-0.8,0-1,0-0.5h0c0.1-0.9,0.8-1.5,1.7-1.5
		c0.8,0,1.4,0.7,1.5,1.5h0V22c0,0.9,1.1,1.6,2.3,1.6c1.3,0,2.3-0.7,2.3-1.6L41.3,21.6L41.3,21.6z M66.9,10.6L66.9,10.6l0-0.4
		c0-0.9-1-1.6-2.3-1.6c-1.3,0-2.3,0.7-2.3,1.6v0.4c0,0.9-0.8,1.5-1.7,1.5c-0.8,0-1.5-0.7-1.5-1.5h0c0,0.5,0,0.3,0-0.5
		c0-2.6,2.5-4.6,5.5-4.6c3,0,5.5,2.1,5.5,4.6v0.5c0,0.9-0.8,1.5-1.7,1.5C67.6,12,67,11.4,66.9,10.6z M62.8,11.2l6,8.3
		c-1.2-0.2-2.2,0.6-2.4,1.7c0,0.1,0,0.2,0,0.2L60,12.7c1.1,0.4,2.3-0.2,2.7-1.4C62.7,11.3,62.8,11.2,62.8,11.2z M66.9,21.6
		c0-0.9,0.8-1.5,1.7-1.5c0.8,0,1.4,0.7,1.5,1.5h0v0.5c0,2.6-2.5,4.6-5.5,4.6c-3,0-5.5-2.1-5.5-4.6c0-0.8,0-1,0-0.5h0
		c0-0.9,0.8-1.5,1.7-1.5c0.8,0,1.4,0.7,1.5,1.5h0V22c0,0.9,1.1,1.6,2.3,1.6s2.3-0.7,2.3-1.6L66.9,21.6L66.9,21.6z"/>
</g>
</svg>
