<?xml version="1.0" encoding="utf-8"?>
<!-- Generator: Adobe Illustrator 22.0.1, SVG Export Plug-In . SVG Version: 6.00 Build 0)  -->
<svg version="1.1" id="Слой_1" xmlns="http://www.w3.org/2000/svg" xmlns:xlink="http://www.w3.org/1999/xlink" x="0px" y="0px"
	 viewBox="0 0 103 32" style="enable-background:new 0 0 103 32;" xml:space="preserve">
<style type="text/css">
	.st0{filter:url(#Adobe_OpacityMaskFilter);}
	.st1{fill:#FFFFFF;}
	.st2{mask:url(#mask-2_1_);fill:#FFD400;}
	.st3{fill:#FFD400;}
	.st4{filter:url(#Adobe_OpacityMaskFilter_1_);}
	.st5{mask:url(#mask-4_1_);fill:#FFD400;}
	.st6{filter:url(#Adobe_OpacityMaskFilter_2_);}
	.st7{mask:url(#mask-6_1_);fill:#FFD400;}
</style>
<g>
	<g transform="translate(-792 -480)">
		<g transform="translate(792 480)">
			<g>
				<defs>
					<filter id="Adobe_OpacityMaskFilter" filterUnits="userSpaceOnUse" x="0" y="1.9" width="27.1" height="28.2">
						<feColorMatrix  type="matrix" values="1 0 0 0 0  0 1 0 0 0  0 0 1 0 0  0 0 0 1 0"/>
					</filter>
				</defs>
				<mask maskUnits="userSpaceOnUse" x="0" y="1.9" width="27.1" height="28.2" id="mask-2_1_">
					<g class="st0">
						<path class="st1" d="M0,1.9h27.2v28.2H0V1.9z"/>
					</g>
				</mask>
				<path class="st2" d="M16.2,22L16.2,22c0.2,0.1,0.2,0,0.4,0c1.2-0.4,2.4-0.6,3.6-1c0.3-0.1,0.5-0.2,0.7-0.5s0.4-0.6,0.6-0.9
					c0.5-0.9,1.1-1.8,1.5-2.6c0.1-0.1,0.1-0.2,0.1-0.2l-0.1-0.1C20.7,18.4,18.5,20.2,16.2,22 M10.9,22.1c-0.1-0.1-0.1-0.2-0.2-0.2
					c-1.2-1-2.5-2-3.8-3c-0.9-0.7-1.8-1.4-2.7-2.1c-0.1-0.1-0.1-0.1-0.3-0.1c0.1,0.2,0.2,0.4,0.3,0.6c0.6,1.1,1.3,2.2,1.9,3.3
					C6.4,20.9,6.6,21,7,21.2c1.2,0.4,2.5,0.6,3.7,1C10.7,22.1,10.8,22.1,10.9,22.1 M0.1,2l0.7,0.7L5,7c0.5,0.5,1,1.1,1.5,1.5
					c0.2,0.2,0.3,0.2,0.5,0.1c1.6-0.6,3.4-1,5.1-1.1c2.8-0.2,5.5,0.1,8.2,1.1c0.2,0.1,0.3,0.1,0.5-0.1c1.1-1.1,2.1-2.2,3.1-3.2
					c0.9-0.9,1.9-1.9,2.8-2.8l0.6-0.6v15.5c0,0.5-0.2,0.9-0.4,1.4c-0.5,0.9-1.2,1.8-1.8,2.6c-0.9,1.1-1.9,2.2-2.9,3.4
					c-0.7,0.8-1.4,1.6-2,2.5c-0.4,0.5-0.8,0.9-1.2,1.3c-0.9,0.8-1.9,1.2-3.1,1.4c-1.5,0.2-2.9,0.2-4.4-0.1s-2.6-0.9-3.6-2.1
					c-0.5-0.5-0.9-1.1-1.4-1.7c-0.9-1-1.7-2.1-2.6-3.1c-1.1-1.2-2.1-2.4-2.9-3.8c-0.3-0.5-0.6-0.9-0.7-1.5C0,17.6,0,17.4,0,17.2V4.3
					v-2L0.1,2L0.1,2"/>
			</g>
			<path class="st3" d="M35.4,11.8v4.6c1-0.4,1.8-0.9,2.4-1.7c0.2-0.4,0.2-0.7,0-1.1C37.3,12.7,36.4,12.3,35.4,11.8 M42.8,24.1h-4.3
				c-0.3,0-0.5-0.2-0.6-0.5c-0.6-1.1-1.2-2.2-1.8-3.3c-0.2-0.4-0.4-0.8-0.7-1.1c-0.2,0.8-0.1,1.6-0.1,2.4V24c-1.5,0.1-3,0-4.6,0
				c-0.1-5.4,0.1-10.6,0.1-16C31.1,8,31.4,8,31.6,8h5.9c0.4,0,0.8,0.1,1.1,0.2C40,8.8,41,9.7,41.8,11c0.9,1.4,1,2.9,0.2,4.4
				c-0.4,0.8-0.9,1.5-1.4,2.1c-0.3,0.4-0.3,0.7-0.1,1.2c0.6,1.5,1.3,3,1.9,4.5C42.7,23.5,42.7,23.7,42.8,24.1"/>
			<path class="st3" d="M62.4,17.5v3.3c0.8-0.4,1.3-0.8,1.7-1.3c0.2-0.2,0.1-0.5,0-0.6C63.7,18.3,63.2,17.9,62.4,17.5 M62.5,11.7V15
				c0.7-0.4,1.2-0.8,1.7-1.3c0.2-0.2,0.2-0.4,0-0.6C63.7,12.4,63.2,12.1,62.5,11.7 M67,16.4c0.5,0.5,0.9,1,1.3,1.5
				c0.2,0.2,0.4,0.5,0.5,0.8c0.4,0.8,0.4,1.6-0.1,2.4c-0.5,0.8-1.2,1.5-2.1,2.1c-1.2,0.9-1.2,0.9-2.7,0.9h-5.5
				C58.3,23.6,58.3,9,58.4,8.1c0.2,0,0.4-0.1,0.5-0.1h6.2c0.2,0,0.5,0.1,0.7,0.2c1.2,0.9,2.1,1.9,2.6,3.4c0.4,1,0.4,2-0.2,2.9
				C67.8,15,67.4,15.7,67,16.4"/>
			<path class="st3" d="M49,17.9c0.8,0,1.5,0.1,2.2-0.1c-0.3-1.1-0.6-2.1-1.1-3.3C50.1,14.8,50,14.9,50,15
				C49.7,15.9,49.4,16.8,49,17.9 M48,8h3.5c0.3,0,0.4,0.2,0.5,0.5c0.2,0.8,0.5,1.5,0.8,2.4c1.4,4.2,2.8,8.3,4.2,12.5
				c0.1,0.2,0.1,0.5,0.2,0.8c-0.2,0.1-0.3,0.1-0.4,0.1h-3.6c-0.6,0-0.6,0-0.7-0.5c-0.1-0.5-0.3-0.9-0.4-1.4
				c-0.1-0.4-0.2-0.5-0.6-0.5h-3.1c-0.4,0-0.5,0.1-0.6,0.5c-0.2,0.6-0.4,1.3-0.5,2h-4.1c0.5-1.8,1.1-3.6,1.5-5.4l1.6-5.3
				C46.9,11.6,47.4,9.8,48,8"/>
			<path class="st3" d="M87.4,14.6h-0.2c-0.4,1.1-0.7,2.1-1.1,3.2c0.8,0.1,1.5,0.1,2.2-0.1C88.1,16.7,87.8,15.6,87.4,14.6 M94.4,24
				h-4.6c-0.2-0.8-0.4-1.6-0.6-2.4c-0.3,0-0.6-0.1-0.9-0.1h-2.6c-0.4,0-0.5,0.1-0.6,0.5L84.5,24h-4.2c0.1-0.3,0.1-0.5,0.2-0.7
				c1.4-4.8,2.9-9.6,4.3-14.4c0.1-0.1,0.1-0.2,0.1-0.4c0.2-0.6,0.2-0.6,0.8-0.6H89C90.8,13.3,92.6,18.6,94.4,24"/>
			<g transform="translate(118.06 10.167)">
				<defs>
					<filter id="Adobe_OpacityMaskFilter_1_" filterUnits="userSpaceOnUse" x="-48.6" y="-2.2" width="10.6" height="16.2">
						<feColorMatrix  type="matrix" values="1 0 0 0 0  0 1 0 0 0  0 0 1 0 0  0 0 0 1 0"/>
					</filter>
				</defs>
				<mask maskUnits="userSpaceOnUse" x="-48.6" y="-2.2" width="10.6" height="16.2" id="mask-4_1_">
					<g class="st4">
						<path class="st1" d="M-48.6-2.2H-38v16.1h-10.6V-2.2z"/>
					</g>
				</mask>
				<path class="st5" d="M-38.1-2.2v4c-0.3,0-0.5,0.1-0.7,0.1h-3.1c-0.3,0-0.6,0.1-0.8,0.3c-1.5,1.4-2.5,5.1-0.2,7.4
					c0.4,0.4,0.7,0.5,1.2,0.5c0.9-0.1,1.9,0,2.9,0h0.7c0.2,0.6,0.2,2.9,0.1,3.8c-0.2,0-0.4,0.1-0.6,0.1h-5.4c-0.5,0-0.8-0.1-1.2-0.5
					c-2.3-1.9-3.3-4.4-3.2-7.3c0.1-1.8,0.4-3.6,1.3-5.3c0.5-1,1.2-1.9,2.1-2.7c0.3-0.2,0.6-0.4,1-0.4h5.6
					C-38.5-2.2-38.3-2.2-38.1-2.2"/>
			</g>
			<g transform="translate(156.368 10.167)">
				<defs>
					<filter id="Adobe_OpacityMaskFilter_2_" filterUnits="userSpaceOnUse" x="-64.4" y="-2.3" width="11" height="16.2">
						<feColorMatrix  type="matrix" values="1 0 0 0 0  0 1 0 0 0  0 0 1 0 0  0 0 0 1 0"/>
					</filter>
				</defs>
				<mask maskUnits="userSpaceOnUse" x="-64.4" y="-2.3" width="11" height="16.2" id="mask-6_1_">
					<g class="st6">
						<path class="st1" d="M-64.4-2.2h11v16.1h-11V-2.2z"/>
					</g>
				</mask>
				<path class="st7" d="M-53.4-2.1v4.5h-3.2c-0.1,3.8-0.1,7.6-0.2,11.4c-1.4,0.1-2.8,0.1-4.3,0c0-0.3-0.1-0.6-0.1-0.9
					c0-3.2-0.1-6.4-0.1-9.6c0-0.3-0.1-0.6-0.1-1h-3.1c-0.1-0.2-0.1-0.4-0.1-0.6v-3.4c0-0.6,0.1-0.7,0.7-0.7h9.7
					C-53.8-2.2-53.6-2.2-53.4-2.1"/>
			</g>
		</g>
	</g>
</g>
</svg>
