<?xml version="1.0" encoding="utf-8"?>
<!-- Generator: Adobe Illustrator 22.0.1, SVG Export Plug-In . SVG Version: 6.00 Build 0)  -->
<svg version="1.1" id="Слой_1" xmlns="http://www.w3.org/2000/svg" xmlns:xlink="http://www.w3.org/1999/xlink" x="0px" y="0px"
	 viewBox="0 0 103 32" style="enable-background:new 0 0 103 32;" xml:space="preserve">
<style type="text/css">
	.st0{fill:#FFFFFF;}
</style>
<g>
	<path class="st0" d="M12.7,20.4v-1.6h4.2v1.9c0,1.7,0.7,2.6,2,2.6h0c1.3,0,2-0.9,2-2.6c0-1-0.3-1.9-0.8-2.7c-0.6-0.9-1.2-1.6-2-2.3
		l-2.1-2.2c-0.9-0.8-1.6-1.7-2.2-2.9c-0.6-1.2-0.9-2.4-0.9-3.8c0-2.1,0.6-3.7,1.7-4.9s2.6-1.7,4.6-1.7s3.4,0.6,4.4,1.7
		C24.5,3,25,4.6,25,6.8v0.8h-3.9V6.5c0-1.7-0.7-2.6-2.1-2.6c-1.4,0-2.1,0.9-2.1,2.6c0,0.7,0.1,1.4,0.5,2.1c0.3,0.6,0.7,1.2,1.2,1.8
		c0.5,0.5,1,1,1.6,1.6c0.6,0.5,1.2,1.1,1.7,1.6c0.6,0.6,1.1,1.2,1.6,1.8s0.9,1.4,1.2,2.3c0.3,0.9,0.5,1.8,0.5,2.8
		c0,2.1-0.5,3.7-1.6,4.9C22.4,26.4,20.9,27,19,27s-3.5-0.6-4.6-1.7S12.7,22.5,12.7,20.4 M31.5,13.1h2c0.7,0,1.2-0.2,1.5-0.6
		c0.3-0.4,0.5-1,0.5-1.9V6.7c0-0.9-0.2-1.5-0.5-1.9c-0.3-0.4-0.8-0.6-1.5-0.6h-2V13.1z M27.4,26.7V0.5h6.1c4.1,0,6.2,2.2,6.2,6.5
		v3.4c0,4.3-2.1,6.5-6.2,6.5h-2v9.8C31.5,26.7,27.4,26.7,27.4,26.7z M45.7,12.3h1.6c0.8,0,1.5-0.2,1.9-0.6c0.4-0.4,0.6-1.1,0.6-2.1
		V6.9c0-1.8-0.7-2.7-2.1-2.7h-2C45.7,4.2,45.7,12.3,45.7,12.3z M41.6,26.7V0.5h6.2c2.1,0,3.7,0.5,4.7,1.5c1,1,1.5,2.5,1.5,4.6v2.1
		c0,2.7-0.9,4.5-2.7,5.3c1.8,0.8,2.7,2.6,2.7,5.6v4.2c0,1.3,0.1,2.3,0.4,3h-4.2c-0.2-0.7-0.4-1.8-0.4-3.2v-4.1c0-1.2-0.2-2-0.6-2.6
		c-0.4-0.5-1.1-0.8-2.1-0.8h-1.4v10.7L41.6,26.7L41.6,26.7z M56.7,26.7h4.1V0.5h-4.1V26.7z M68,22.9h2.4c0.7,0,1.3-0.2,1.6-0.6
		c0.4-0.4,0.5-1.1,0.5-2v-2.3c0-1.2-0.2-2-0.6-2.5c-0.4-0.5-1.1-0.7-2-0.7H68L68,22.9L68,22.9z M68,11.2h1.6c0.8,0,1.5-0.2,1.9-0.6
		c0.4-0.4,0.6-1.1,0.6-2.1V6.9c0-1.8-0.7-2.7-2.1-2.7h-2L68,11.2L68,11.2z M63.8,26.7V0.5h6.2c2.1,0,3.7,0.5,4.7,1.5
		s1.5,2.5,1.5,4.6v0.9c0,2.7-0.9,4.5-2.7,5.3c2.1,0.8,3.1,2.7,3.1,5.6v2.1c0,2-0.5,3.6-1.6,4.6c-1.1,1.1-2.6,1.6-4.7,1.6L63.8,26.7
		L63.8,26.7z M79.1,26.7V0.5h11.3v3.7h-7.1v7.3h5.7v3.7h-5.7v7.7h7.1v3.7H79.1z M12.6,32h77.8v-3.6H12.6V32z"/>
</g>
</svg>
