<?xml version="1.0" encoding="utf-8"?>
<!-- Generator: Adobe Illustrator 22.0.1, SVG Export Plug-In . SVG Version: 6.00 Build 0)  -->
<svg version="1.1" id="Слой_1" xmlns="http://www.w3.org/2000/svg" xmlns:xlink="http://www.w3.org/1999/xlink" x="0px" y="0px"
	 viewBox="0 0 103 32" style="enable-background:new 0 0 103 32;" xml:space="preserve">
<style type="text/css">
	.st0{fill:#FFFFFF;}
</style>
<path class="st0" d="M29.6,22l1.1-7c0-0.1,0-0.1,0-0.2l-4.2-8.2c-0.1-0.1-0.2-0.2-0.4-0.1L24,7.4c-0.1,0.1-0.3,0-0.4-0.1l-3.2-3.7
	l-1.7-0.9l-4.6-2.6c-0.2-0.1-0.4,0-0.4,0.2l-1.4,4.8l-0.9-2.7L6.4,7.3c0,0,0,0-0.1,0.1l-2.7,4.5c0,0,0,0.1,0,0.2v5.2l-2-1.2l1.3,8.2
	c0,0,0,0.1,0,0.1l3,5.1c0,0.1,0.1,0.1,0.2,0.1l6.7,2.4c0,0,0.1,0,0.1,0h6.4c0,0,0.1,0,0.1,0l9.3-3.5c0.1,0,0.1-0.1,0.2-0.2l3.1-7.4
	L29.6,22z M25.4,17.7c0,0.2-0.2,0.4-0.4,0.4h-5c-0.2,0-0.4,0.2-0.4,0.4L19.3,28c0,0.2-0.2,0.4-0.4,0.4h-4.3c-0.2,0-0.4-0.2-0.4-0.4
	l-0.2-9.2c0-0.2-0.2-0.4-0.4-0.4l-5.4,0.2c-0.2,0-0.4-0.2-0.4-0.4v-5.4c0-0.2,0.2-0.4,0.4-0.4l16.9-0.3c0.2,0,0.4,0.2,0.4,0.4
	L25.4,17.7z"/>
<path class="st0" d="M36.6,14l0.3,6.7c0,0.2,0.2,0.4,0.4,0.4L39,21c0.2,0,0.4-0.2,0.4-0.4L39.2,14c0-0.2,0.2-0.4,0.4-0.4h1
	c0.2,0,0.4-0.2,0.4-0.4v-1.6c0-0.2-0.2-0.4-0.4-0.4L35,11.3c-0.2,0-0.4,0.2-0.4,0.4l0,1.5c0,0.2,0.2,0.4,0.4,0.4l1.1,0
	C36.4,13.6,36.6,13.8,36.6,14z"/>
<path class="st0" d="M47.3,12c0-0.2-0.2-0.4-0.5-0.5l-1.6,0c-0.2,0-0.3,0.1-0.3,0.3l0,3.8l-0.8,0.1L44,11.6c0-0.2-0.1-0.3-0.3-0.3
	H42c-0.2,0-0.4,0.2-0.4,0.4l0.3,9.3c0,0.2,0.2,0.4,0.5,0.4l1.5-0.1c0.2,0,0.4-0.1,0.4-0.4l-0.2-3l0.6,0v2.7c0,0.3,0.2,0.5,0.5,0.5
	l1.7,0.1c0.3,0,0.5-0.2,0.5-0.5L47.3,12z"/>
<path class="st0" d="M53.1,10.9L51.6,11c-0.2,0-0.4,0.2-0.4,0.4v6.9c0,0,0,1-0.4,1c-0.4,0-0.4-0.6-0.4-0.8l0-0.1c0,0,0,0,0,0v0
	l0.1-6.5c0-0.2-0.2-0.4-0.4-0.5l-1.7-0.2c-0.2,0-0.4,0.1-0.4,0.4v6.8c0,1.5,1.2,2.7,2.7,2.7c1.5,0,2.7-1.2,2.7-2.7l0.1-7.1
	C53.5,11,53.3,10.8,53.1,10.9z"/>
<path class="st0" d="M54.4,20.4l-0.2-8.5c0-0.3,0.2-0.5,0.5-0.5l1.3-0.1c0.2,0,0.4,0.1,0.5,0.3l1.6,4.3l-0.2-4.2
	c0-0.2,0.1-0.4,0.3-0.4l1.6,0c0.2,0,0.4,0.2,0.4,0.4l0.1,9c0,0.3-0.2,0.5-0.5,0.5h-1.5c-0.2,0-0.4-0.1-0.4-0.3l-1.3-3.7l0.2,3.5
	c0,0.2-0.2,0.4-0.4,0.4L55,21C54.7,21,54.4,20.7,54.4,20.4z"/>
<path class="st0" d="M63.4,11.1l-1.8-0.1c-0.2,0-0.4,0.2-0.4,0.4l-0.2,8.9c0,0.3,0.2,0.5,0.4,0.5l1.3-0.1c1.9,0,3.8-1.1,3.8-3.4
	l0-2.9C66.6,12.7,65.2,11.2,63.4,11.1z M64.3,16.7c-0.1,1.8-1.2,2.1-1.2,2.1l0.2-5.6c1.1,0.3,1,1.4,1,1.4S64.4,14.9,64.3,16.7z"/>
<path class="st0" d="M67.2,11.8l0,8.8c0,0.3,0.2,0.5,0.5,0.5h3.9c0.2,0,0.4-0.2,0.4-0.4v-1.2c0-0.2-0.2-0.4-0.4-0.4l-2.1,0.1l0-1.8
	l1.2,0c0.3,0,0.5-0.3,0.5-0.6l0-1.1c0-0.2-0.2-0.4-0.4-0.3l-1.4,0l0-2l2.1,0c0.2,0,0.4-0.2,0.4-0.4l0-1.3c0-0.2-0.2-0.4-0.4-0.4
	l-4,0.1C67.4,11.4,67.2,11.6,67.2,11.8z"/>
<path class="st0" d="M78.1,15.4c0-0.8,0.1-2.5-0.7-3.5c-0.8-1.1-3.6-0.7-3.6-0.7l-0.8,0.1c-0.2,0-0.4,0.2-0.4,0.5l0.1,8.6
	c0,0.3,0.2,0.5,0.5,0.5h1.1c0.2,0,0.4-0.2,0.4-0.4v-2.7l0.6-0.1l0.7,3c0,0.2,0.2,0.4,0.5,0.4l1.2-0.1c0.3,0,0.5-0.3,0.4-0.6
	c-0.2-0.9-0.7-2.5-0.9-3.3C77.4,16.8,78,16.1,78.1,15.4z M74.7,15.7c0-1.5,0-2.5,0-2.5s1.2-0.2,1.4,0.9
	C76.2,14.7,76.1,15.5,74.7,15.7z"/>
<path class="st0" d="M79,11.4h1.8c0.3,0,0.5,0.2,0.4,0.5L81,15c0,0,1.1-0.6,1.2-3.3c0-0.2,0.2-0.4,0.4-0.4c0.8,0,1.5-0.1,1.5-0.1
	c0.2,0,0.3,0.1,0.4,0.3c0,0.6,0,2.1-0.6,3.2c-0.3,0.6-0.8,1.5-1.2,1.8c0.5,0.5,1.2,1.2,1.8,4.1c0.1,0.2-0.1,0.5-0.4,0.5
	c-0.6,0-1.2,0-1.5,0c-0.2,0-0.4-0.2-0.5-0.4c-0.1-0.7-0.4-2-1.3-2.7c0,1.3,0,2.3,0,2.7c0,0.2-0.1,0.3-0.3,0.3l-1.5,0.2
	c-0.3,0-0.5-0.2-0.5-0.5l-0.1-8.9C78.6,11.6,78.8,11.4,79,11.4z"/>
<path class="st0" d="M85.5,11.1l1.5-0.2c0.3,0,0.6,0.2,0.6,0.5l0.1,8.5c0,0.4-0.3,0.8-0.8,0.8l-1.3,0.1c-0.3,0-0.6-0.2-0.6-0.6v-8.7
	C85.2,11.3,85.3,11.2,85.5,11.1z"/>
<path class="st0" d="M94.3,13.9c-0.1-1.6-1.4-2.9-3-2.8l-0.3,0c-1.5,0.1-2.6,1.3-2.6,2.8v4.5c0,1.4,1.1,2.6,2.6,2.6h0.8
	c1.3,0,2.3-1,2.4-2.3l0-0.5c0-0.3-0.2-0.5-0.5-0.5l-1.3,0c-0.2,0-0.4,0.2-0.4,0.4l0,0.8c0,0.2-0.2,0.4-0.6,0.4
	c-0.4,0-0.7-0.4-0.7-0.8l0.1-5c0-0.3,0.3-0.6,0.6-0.6h0.2c0.3,0,0.5,0.3,0.5,0.5l0,0.2c0,0,0,0.4,0.1,0.4c0.1,0.1,0.3,0.1,0.3,0.1
	c0.2,0,0.2,0,0.2,0l1.4,0C94.2,14.2,94.3,14.1,94.3,13.9z"/>
<path class="st0" d="M94.9,20.6l-0.2-8.9c0-0.2,0.1-0.4,0.4-0.4l1.8-0.2c0.3,0,0.5,0.2,0.5,0.4L97.2,15c0,0,0.8-0.6,1-2.1
	c0-0.6,0-1-0.1-1.3c0-0.2,0.1-0.4,0.3-0.4l1.9-0.3c0.3,0,0.5,0.1,0.5,0.4c0.1,0.7,0.1,1.9-0.3,2.9c-0.3,0.7-0.6,1.3-1.3,1.9
	c0.5,0.6,1.3,1.6,1.8,3.1c0.2,0.5,0.3,0.8,0.3,1c0.1,0.2-0.1,0.5-0.3,0.5l-1.8,0.2c-0.2,0-0.4-0.1-0.5-0.3c-0.2-0.6-0.6-2-1.4-2.9
	c0,0.9-0.1,2.1-0.1,2.7c0,0.2-0.2,0.4-0.4,0.4L95.4,21C95.1,21.1,94.9,20.9,94.9,20.6z"/>
</svg>
