<svg width="19" height="19" viewBox="0 0 19 19" fill="none" xmlns="http://www.w3.org/2000/svg">
<g clip-path="url(#clip0_122_359)">
<path d="M18.9425 1.95842L14.0516 12.1976H4.94843L0.0575261 1.95842C-0.126945 1.57196 0.154716 1.12561 0.582475 1.12561H5.88481C6.10888 1.12561 6.31313 1.25423 6.40976 1.45674L9.50001 7.92594L12.5903 1.45674C12.6868 1.25419 12.8911 1.12561 13.1152 1.12561H18.4175C18.8453 1.12561 19.127 1.57196 18.9425 1.95842Z" fill="#80D0E1"/>
<path d="M14.0515 12.1976C13.5869 10.1035 11.7173 8.5498 9.49995 8.5498C6.522 8.5498 4.30063 11.3078 4.94837 14.2269C5.41302 16.3211 7.28259 17.8747 9.49995 17.8747C12.4779 17.8747 14.6992 15.1168 14.0515 12.1976ZM9.49991 15.0335V15.0329C8.49428 15.0329 7.67892 14.2176 7.67892 13.2119C7.67892 12.2063 8.49425 11.3909 9.49991 11.3909V11.3915C10.5055 11.3915 11.3209 12.2069 11.3209 13.2125C11.3209 14.2182 10.5056 15.0335 9.49991 15.0335Z" fill="#FFC72D"/>
<path d="M9.5 17.8747V15.0336C10.5056 15.0336 11.321 14.2182 11.321 13.2126C11.321 12.2069 10.5057 11.3916 9.5 11.3916V8.5498C10.2129 8.5498 10.9258 8.71275 11.577 9.0375C12.8172 9.65555 13.7437 10.8102 14.0516 12.1976C14.6993 15.1168 12.478 17.8747 9.5 17.8747Z" fill="#FFBE0D"/>
<path d="M9.49997 11.3918C9.4999 11.3918 9.49986 11.3918 9.49979 11.3918C8.49468 11.392 7.6792 12.2066 7.6792 13.2126C7.6792 14.2182 8.49423 15.0333 9.49979 15.0334C9.49986 15.0334 9.4999 15.0334 9.49997 15.0334C10.5056 15.0334 11.3207 14.2182 11.3207 13.2126C11.3207 12.2067 10.5054 11.3918 9.49997 11.3918Z" fill="#FFE49C"/>
<path d="M9.50019 11.3918C9.50011 11.3918 9.50007 11.3918 9.5 11.3918V15.0334C9.50007 15.0334 9.50011 15.0334 9.50019 15.0334C10.5058 15.0334 11.3209 14.2183 11.3209 13.2127C11.321 12.2067 10.5056 11.3918 9.50019 11.3918Z" fill="#FFC72D"/>
<path d="M13.1154 1.12524C12.8912 1.12524 12.6869 1.25405 12.5903 1.45637L9.50001 7.92598L9.49983 7.92557L6.40973 1.45641C6.31306 1.25413 6.10881 1.12528 5.88463 1.12528H3.64404L7.42311 9.03719C8.07498 8.71222 8.78755 8.54998 9.49983 8.54998C10.2128 8.54998 10.9256 8.71252 11.577 9.03719L15.356 1.12524H13.1154Z" fill="#48AEE2"/>
<path d="M18.9422 1.9581L14.0514 12.1975C13.7434 10.8102 12.817 9.65555 11.5767 9.03723L15.3558 1.12537H18.4171C18.8451 1.12529 19.1267 1.57183 18.9422 1.9581Z" fill="#3494C7"/>
</g>
<defs>
<clipPath id="clip0_122_359">
<rect width="19" height="19" fill="white"/>
</clipPath>
</defs>
</svg>
