<svg width="19" height="19" viewBox="0 0 19 19" fill="none" xmlns="http://www.w3.org/2000/svg">
<path d="M14.4017 18.2753C14.1884 18.2753 13.9763 18.2099 13.7937 18.0795L9.50019 15.0005L5.20672 18.0795C5.02884 18.2075 4.81506 18.276 4.59593 18.2753C4.37679 18.2745 4.1635 18.2045 3.9865 18.0753C3.80934 17.9469 3.6772 17.7658 3.60888 17.5579C3.54056 17.35 3.53954 17.1259 3.60597 16.9174L5.20725 11.7494L0.952306 8.75106C0.775965 8.62092 0.645005 8.43863 0.577948 8.22998C0.510891 8.02133 0.511133 7.79688 0.578639 7.58837C0.646678 7.38037 0.778364 7.19901 0.955087 7.06992C1.13181 6.94084 1.34463 6.87055 1.56347 6.86901L6.83333 6.86109L8.51114 1.82134C8.58038 1.61373 8.71318 1.43316 8.89074 1.3052C9.06829 1.17725 9.2816 1.1084 9.50046 1.1084C9.71931 1.1084 9.93262 1.17725 10.1102 1.3052C10.2877 1.43316 10.4205 1.61373 10.4898 1.82134L12.1391 6.86109L17.4359 6.86901C17.655 6.87024 17.8681 6.94049 18.045 7.06977C18.2219 7.19905 18.3536 7.38078 18.4213 7.58916C18.489 7.79754 18.4894 8.02195 18.4223 8.23053C18.3552 8.43911 18.2241 8.62125 18.0476 8.75106L13.7926 11.7494L15.3939 16.9174C15.4605 17.1258 15.4596 17.3499 15.3913 17.5579C15.3231 17.7658 15.191 17.9468 15.0139 18.0753C14.8364 18.2055 14.6218 18.2756 14.4017 18.2753Z" fill="#FFAC33"/>
</svg>
