<?xml version="1.0" encoding="utf-8"?>
<!-- Generator: Adobe Illustrator 22.0.1, SVG Export Plug-In . SVG Version: 6.00 Build 0)  -->
<svg version="1.1" id="Слой_1" xmlns="http://www.w3.org/2000/svg" xmlns:xlink="http://www.w3.org/1999/xlink" x="0px" y="0px"
	 viewBox="0 0 103 32" style="enable-background:new 0 0 103 32;" xml:space="preserve">
<style type="text/css">
	.st0{fill:#FFFFFF;}
</style>
<g>
	<path class="st0" d="M18.6,10.2h5c0.3,0,0.6,0.1,0.7,0.4c0.1,0.3,0,0.5-0.2,0.8c-2.7,2.7-5.4,5.4-8.1,8.2c-0.6,0.6-1.3,1.3-1.9,1.9
		c-0.2,0.2-0.5,0.4-0.9,0.2c-0.3-0.1-0.4-0.4-0.4-0.8c0-3.3,0-6.6,0-9.9c0-0.7,0.2-0.9,0.8-0.9H18.6z"/>
	<path class="st0" d="M30.9,10.2h4.9c0.3,0,0.6,0,0.8,0.4c0.1,0.4,0,0.6-0.2,0.8c-2.8,2.8-5.5,5.6-8.3,8.3c-0.6,0.6-1.2,1.2-1.8,1.8
		c-0.2,0.2-0.5,0.4-0.8,0.2c-0.3-0.1-0.4-0.4-0.4-0.7c0-3.4,0-6.7,0-10.1c0-0.5,0.2-0.8,0.8-0.8C27.6,10.2,29.3,10.2,30.9,10.2
		L30.9,10.2z"/>
	<path class="st0" d="M11.5,16v5c0,0.3-0.1,0.6-0.4,0.7c-0.3,0.1-0.6,0-0.8-0.2C7,18.2,3.7,14.8,0.3,11.4c-0.3-0.3-0.4-0.6-0.2-0.9
		c0.1-0.3,0.4-0.3,0.7-0.3h3.8h6c0.7,0,0.9,0.2,0.9,0.9V16z"/>
	<path class="st0" d="M59,13.6l1.3,4.1h-2.6L59,13.6z M57.9,10.2l-4,11.6h2.5l0.7-2.2h3.9l0.7,2.2h2.5l-4-11.6H57.9z"/>
	<path class="st0" d="M64.6,21.8h7.8v-2h-4.8l4.7-8v-1.5h-7.7v2h4.7l-4.7,8V21.8z"/>
	<path class="st0" d="M80.2,16.8v-1.5c0-2-0.5-3-2.1-3h-1.8v7.6h1.8C79.6,19.8,80.2,18.8,80.2,16.8L80.2,16.8z M73.9,21.8V10.3h4.1
		c2.6,0,4.5,1.3,4.5,5v1.5c0,3.7-1.8,5-4.5,5L73.9,21.8L73.9,21.8z M88,13.6l1.3,4.1h-2.6L88,13.6z M86.9,10.2l-4,11.6h2.5l0.7-2.2
		H90l0.7,2.2h2.5l-4-11.6H86.9z"/>
	<path class="st0" d="M94.3,21.8h2.2v-7.2l4.5,7.2h2V10.2h-2.2v7.3l-4.5-7.3h-1.9V21.8z"/>
	<path class="st0" d="M44.5,16.8c0.7-1.5,1.5-3,2.3-4.5h1.5c0.7,1.5,1.5,3,2.2,4.4c0.1,0,0.1,0,0.2,0c0-2.1,0-4.3,0-6.5h2.3v11.4
		c-0.7,0-1.4,0-2.2,0c-1-1.9-2-4-3.2-6.1c-1.1,2.1-2.1,4.1-3.2,6.1c-0.8,0-1.5,0-2.3,0c0-3.8,0-7.6,0-11.4h2.2v6.5
		C44.4,16.8,44.5,16.8,44.5,16.8z"/>
</g>
</svg>
